SplineFontDB: 3.2
FontName: Pretension-Bold
FullName: Pretension Bold
FamilyName: Pretension
Weight: Bold
Copyright: Copyright 2016 The Inter Project Authors
Version: 4.000;git-a52131595
ItalicAngle: 0
UnderlinePosition: -331
UnderlineWidth: 197
Ascent: 1638
Descent: 410
InvalidEm: 0
sfntRevision: 0x00040000
LayerCount: 2
Layer: 0 1 "Back" 1
Layer: 1 1 "Fore" 0
XUID: [1021 89 -1234937351 12313253]
StyleMap: 0x0020
FSType: 0
OS2Version: 4
OS2_WeightWidthSlopeOnly: 0
OS2_UseTypoMetrics: 1
CreationTime: 1700438797
ModificationTime: 1707792915
PfmFamily: 17
TTFWeight: 700
TTFWidth: 5
LineGap: 0
VLineGap: 0
Panose: 2 0 5 3 0 0 0 2 0 4
OS2TypoAscent: 1984
OS2TypoAOffset: 0
OS2TypoDescent: -494
OS2TypoDOffset: 0
OS2TypoLinegap: 0
OS2WinAscent: 1984
OS2WinAOffset: 0
OS2WinDescent: 494
OS2WinDOffset: 0
HheadAscent: 1984
HheadAOffset: 0
HheadDescent: -494
HheadDOffset: 0
OS2SubXSize: 1331
OS2SubYSize: 1229
OS2SubXOff: 0
OS2SubYOff: 154
OS2SupXSize: 1331
OS2SupYSize: 1229
OS2SupXOff: 0
OS2SupYOff: 717
OS2StrikeYSize: 197
OS2StrikeYPos: 653
OS2CapHeight: 1490
OS2XHeight: 1087
OS2Vendor: 'RSMS'
OS2CodePages: 0000019f.00000000
OS2UnicodeRanges: e0000aff.5200a1ff.00000021.00000000
Lookup: 1 0 0 "'aalt' Access All Alternates in Latin lookup 0" { "'aalt' Access All Alternates in Latin lookup 0 subtable"  } ['aalt' ('DFLT' <'dflt' > 'latn' <'CAT ' 'MOL ' 'ROM ' 'dflt' > ) ]
Lookup: 3 0 0 "'aalt' Access All Alternates in Latin lookup 1" { "'aalt' Access All Alternates in Latin lookup 1 subtable"  } ['aalt' ('DFLT' <'dflt' > 'latn' <'CAT ' 'MOL ' 'ROM ' 'dflt' > ) ]
Lookup: 1 0 0 "Single Substitution lookup 2" { "Single Substitution lookup 2 subtable"  } []
Lookup: 4 0 0 "'ccmp' Glyph Composition/Decomposition in Latin lookup 3" { "'ccmp' Glyph Composition/Decomposition in Latin lookup 3 subtable"  } ['ccmp' ('DFLT' <'dflt' > 'latn' <'CAT ' 'MOL ' 'ROM ' 'dflt' > ) ]

StartChar: .notdef
Encoding: 1114112 -1 0
Width: 1344
Flags: W
LayerCount: 2
Fore
SplineSet
1016 -416 m 1,0,-1
 328 -416 l 1,1,-1
 328 1856 l 1,2,-1
 1016 1856 l 1,3,-1
 1016 -416 l 1,0,-1
512 -192 m 1,4,-1
 512 -256 l 1,5,-1
 832 -256 l 1,6,-1
 832 -192 l 1,7,-1
 617 -192 l 1,8,-1
 832 -65 l 1,9,-1
 832 0 l 1,10,-1
 512 0 l 1,11,-1
 512 -64 l 1,12,-1
 728 -64 l 1,13,-1
 512 -192 l 1,4,-1
512 320 m 1,14,-1
 512 64 l 1,15,-1
 832 64 l 1,16,-1
 832 320 l 1,17,-1
 512 320 l 1,14,-1
768 128 m 1,18,-1
 576 128 l 1,19,-1
 576 256 l 1,20,-1
 768 256 l 1,21,-1
 768 128 l 1,18,-1
512 704 m 1,22,-1
 512 448 l 1,23,-1
 832 448 l 1,24,-1
 832 704 l 1,25,-1
 640 704 l 1,26,-1
 640 576 l 1,27,-1
 704 576 l 1,28,-1
 704 640 l 1,29,-1
 768 640 l 1,30,-1
 768 512 l 1,31,-1
 576 512 l 1,32,-1
 576 704 l 1,33,-1
 512 704 l 1,22,-1
512 832 m 1,34,-1
 512 768 l 1,35,-1
 832 768 l 1,36,-1
 832 992 l 1,37,-1
 768 992 l 1,38,-1
 768 832 l 1,39,-1
 512 832 l 1,34,-1
512 960 m 1,40,-1
 512 896 l 1,41,-1
 704 896 l 1,42,-1
 704 1056 l 1,43,-1
 832 1056 l 1,44,-1
 832 1120 l 1,45,-1
 512 1120 l 1,46,-1
 512 1056 l 1,47,-1
 640 1056 l 1,48,-1
 640 960 l 1,49,-1
 512 960 l 1,40,-1
640 1248 m 1,50,-1
 576 1248 l 1,51,-1
 576 1344 l 1,52,-1
 640 1344 l 1,53,-1
 640 1248 l 1,50,-1
512 1408 m 1,54,-1
 512 1184 l 1,55,-1
 832 1184 l 1,56,-1
 832 1248 l 1,57,-1
 704 1248 l 1,58,-1
 704 1408 l 1,59,-1
 512 1408 l 1,54,-1
512 1536 m 1,60,-1
 512 1472 l 1,61,-1
 832 1472 l 1,62,-1
 832 1536 l 1,63,-1
 688 1536 l 1,64,-1
 688 1632 l 1,65,-1
 832 1632 l 1,66,-1
 832 1696 l 1,67,-1
 512 1696 l 1,68,-1
 512 1632 l 1,69,-1
 624 1632 l 1,70,-1
 624 1536 l 1,71,-1
 512 1536 l 1,60,-1
EndSplineSet
EndChar

StartChar: A
Encoding: 65 65 2
Width: 1495
GlyphClass: 2
Flags: W
AnchorPoint: "Anchor-4" 1466 0 basechar 0
AnchorPoint: "Anchor-1" 747 1490 basechar 0
AnchorPoint: "Anchor-0" 747 0 basechar 0
LayerCount: 2
Fore
SplineSet
29 0 m 1,0,-1
 546 1490 l 1,1,-1
 944 1490 l 1,2,-1
 1466 0 l 1,3,-1
 1126 0 l 1,4,-1
 889 722 l 2,5,6
 846 864 846 864 801.5 1022.5 c 128,-1,7
 757 1181 757 1181 705 1375 c 1,8,-1
 781 1375 l 1,9,10
 730 1181 730 1181 686.5 1021.5 c 128,-1,11
 643 862 643 862 600 722 c 2,12,-1
 364 0 l 1,13,-1
 29 0 l 1,0,-1
354 335 m 1,14,-1
 354 578 l 1,15,-1
 1141 578 l 1,16,-1
 1141 335 l 1,17,-1
 354 335 l 1,14,-1
EndSplineSet
Substitution2: "'c2sc' Capitals to Small Capitals in Latin lookup 68 subtable" a.sc
Substitution2: "'ss06' Style Set 6 in Latin lookup 52 subtable" A.squared
Substitution2: "'ss05' Style Set 5 in Latin lookup 51 subtable" uni24B6
Substitution2: "Single Substitution lookup 44 subtable" ordfeminine
AlternateSubs2: "'aalt' Access All Alternates in Latin lookup 1 subtable" ordfeminine a.sc
Position2: "'cpsp' Capital Spacing in Latin lookup 0 subtable" dx=0 dy=0 dh=0 dv=0
EndChar

StartChar: uni023A
Encoding: 570 570 46
Width: 1495
GlyphClass: 2
Flags: W
AnchorPoint: "Anchor-4" 1466 0 basechar 0
AnchorPoint: "Anchor-1" 747 1490 basechar 0
AnchorPoint: "Anchor-0" 747 0 basechar 0
LayerCount: 2
Fore
SplineSet
1132 1678 m 1,0,-1
 522 -190 l 1,1,-1
 404 -190 l 1,2,-1
 1014 1678 l 1,3,-1
 1132 1678 l 1,0,-1
29 0 m 1,4,-1
 546 1490 l 1,5,-1
 944 1490 l 1,6,-1
 1466 0 l 1,7,-1
 1126 0 l 1,8,-1
 889 722 l 2,9,10
 846 864 846 864 801.5 1022.5 c 128,-1,11
 757 1181 757 1181 705 1375 c 1,12,-1
 781 1375 l 1,13,14
 730 1181 730 1181 686.5 1021.5 c 128,-1,15
 643 862 643 862 600 722 c 2,16,-1
 364 0 l 1,17,-1
 29 0 l 1,4,-1
354 335 m 1,18,-1
 354 578 l 1,19,-1
 1141 578 l 1,20,-1
 1141 335 l 1,21,-1
 354 335 l 1,18,-1
EndSplineSet
Position2: "'cpsp' Capital Spacing in Latin lookup 0 subtable" dx=0 dy=0 dh=0 dv=0
EndChar

StartChar: Lambda
Encoding: 923 923 60
Width: 1495
GlyphClass: 2
Flags: W
AnchorPoint: "Anchor-1" 747 1490 basechar 0
AnchorPoint: "Anchor-0" 747 0 basechar 0
LayerCount: 2
Fore
SplineSet
29 0 m 1,0,-1
 546 1490 l 1,1,-1
 944 1490 l 1,2,-1
 1466 0 l 1,3,-1
 1126 0 l 1,4,-1
 889 722 l 2,5,6
 846 864 846 864 801.5 1022.5 c 128,-1,7
 757 1181 757 1181 705 1375 c 1,8,-1
 781 1375 l 1,9,10
 730 1181 730 1181 686.5 1021.5 c 128,-1,11
 643 862 643 862 600 722 c 2,12,-1
 364 0 l 1,13,-1
 29 0 l 1,0,-1
EndSplineSet
Position2: "'cpsp' Capital Spacing in Latin lookup 0 subtable" dx=0 dy=0 dh=0 dv=0
EndChar

StartChar: AE
Encoding: 198 198 61
Width: 2088
GlyphClass: 2
Flags: W
AnchorPoint: "Anchor-1" 1340 1490 basechar 0
LayerCount: 2
Fore
SplineSet
29 0 m 1,0,-1
 663 1490 l 1,1,-1
 2000 1490 l 1,2,-1
 2000 1232 l 1,3,-1
 1273 1232 l 1,4,-1
 1273 875 l 1,5,-1
 1946 875 l 1,6,-1
 1946 622 l 1,7,-1
 1273 622 l 1,8,-1
 1273 258 l 1,9,-1
 2001 258 l 1,10,-1
 2001 0 l 1,11,-1
 978 0 l 1,12,-1
 978 1262 l 1,13,-1
 875 1262 l 1,14,-1
 356 0 l 1,15,-1
 29 0 l 1,0,-1
378 355 m 1,16,-1
 378 583 l 1,17,-1
 1110 583 l 1,18,-1
 1110 355 l 1,19,-1
 378 355 l 1,16,-1
EndSplineSet
Position2: "'cpsp' Capital Spacing in Latin lookup 0 subtable" dx=0 dy=0 dh=0 dv=0
EndChar

StartChar: B
Encoding: 66 66 65
Width: 1338
GlyphClass: 2
Flags: W
AnchorPoint: "Anchor-1" 648 1490 basechar 0
AnchorPoint: "Anchor-0" 651 0 basechar 0
LayerCount: 2
Fore
SplineSet
123 0 m 1,0,-1
 123 1490 l 1,1,-1
 717 1490 l 2,2,3
 879 1490 879 1490 990 1441 c 128,-1,4
 1101 1392 1101 1392 1157.5 1306 c 128,-1,5
 1214 1220 1214 1220 1214 1108 c 0,6,7
 1214 1020 1214 1020 1180 954.5 c 128,-1,8
 1146 889 1146 889 1086 846 c 128,-1,9
 1026 803 1026 803 946 783 c 1,10,-1
 946 775 l 1,11,12
 1034 769 1034 769 1108 724.5 c 128,-1,13
 1182 680 1182 680 1226.5 602 c 128,-1,14
 1271 524 1271 524 1271 416 c 0,15,16
 1271 294 1271 294 1212 200.5 c 128,-1,17
 1153 107 1153 107 1037.5 53.5 c 128,-1,18
 922 0 922 0 754 0 c 2,19,-1
 123 0 l 1,0,-1
426 247 m 1,20,-1
 702 247 l 2,21,22
 829 247 829 247 893 298.5 c 128,-1,23
 957 350 957 350 957 438 c 0,24,25
 957 501 957 501 926.5 548.5 c 128,-1,26
 896 596 896 596 841 621.5 c 128,-1,27
 786 647 786 647 708 647 c 2,28,-1
 426 647 l 1,29,-1
 426 247 l 1,20,-1
426 867 m 1,30,-1
 684 867 l 2,31,32
 750 867 750 867 800 890.5 c 128,-1,33
 850 914 850 914 878 957 c 128,-1,34
 906 1000 906 1000 906 1059 c 0,35,36
 906 1143 906 1143 848.5 1193.5 c 128,-1,37
 791 1244 791 1244 687 1244 c 2,38,-1
 426 1244 l 1,39,-1
 426 867 l 1,30,-1
EndSplineSet
Substitution2: "'ss06' Style Set 6 in Latin lookup 52 subtable" B.squared
Substitution2: "'ss05' Style Set 5 in Latin lookup 51 subtable" uni24B7
Position2: "'cpsp' Capital Spacing in Latin lookup 0 subtable" dx=0 dy=0 dh=0 dv=0
EndChar

StartChar: uni0181
Encoding: 385 385 70
Width: 1726
GlyphClass: 2
Flags: W
AnchorPoint: "Anchor-1" 1036 1490 basechar 0
AnchorPoint: "Anchor-0" 1039 0 basechar 0
LayerCount: 2
Fore
SplineSet
41 1049 m 1,0,-1
 41 1160 l 2,1,2
 41 1322 41 1322 130 1406 c 128,-1,3
 219 1490 219 1490 400 1490 c 2,4,-1
 511 1490 l 1,5,-1
 511 1236 l 1,6,-1
 437 1236 l 2,7,8
 379 1236 379 1236 351 1210.5 c 128,-1,9
 323 1185 323 1185 323 1132 c 2,10,-1
 323 1049 l 1,11,-1
 41 1049 l 1,0,-1
511 0 m 1,12,-1
 511 1490 l 1,13,-1
 1105 1490 l 2,14,15
 1267 1490 1267 1490 1378 1441 c 128,-1,16
 1489 1392 1489 1392 1545.5 1306 c 128,-1,17
 1602 1220 1602 1220 1602 1108 c 0,18,19
 1602 1020 1602 1020 1568 954.5 c 128,-1,20
 1534 889 1534 889 1474 846 c 128,-1,21
 1414 803 1414 803 1334 783 c 1,22,-1
 1334 775 l 1,23,24
 1422 769 1422 769 1496 724.5 c 128,-1,25
 1570 680 1570 680 1614.5 602 c 128,-1,26
 1659 524 1659 524 1659 416 c 0,27,28
 1659 294 1659 294 1600 200.5 c 128,-1,29
 1541 107 1541 107 1425.5 53.5 c 128,-1,30
 1310 0 1310 0 1142 0 c 2,31,-1
 511 0 l 1,12,-1
814 247 m 1,32,-1
 1090 247 l 2,33,34
 1217 247 1217 247 1281 298.5 c 128,-1,35
 1345 350 1345 350 1345 438 c 0,36,37
 1345 501 1345 501 1314.5 548.5 c 128,-1,38
 1284 596 1284 596 1229 621.5 c 128,-1,39
 1174 647 1174 647 1096 647 c 2,40,-1
 814 647 l 1,41,-1
 814 247 l 1,32,-1
814 867 m 1,42,-1
 1072 867 l 2,43,44
 1138 867 1138 867 1188 890.5 c 128,-1,45
 1238 914 1238 914 1266 957 c 128,-1,46
 1294 1000 1294 1000 1294 1059 c 0,47,48
 1294 1143 1294 1143 1236.5 1193.5 c 128,-1,49
 1179 1244 1179 1244 1075 1244 c 2,50,-1
 814 1244 l 1,51,-1
 814 867 l 1,42,-1
EndSplineSet
Position2: "'cpsp' Capital Spacing in Latin lookup 0 subtable" dx=0 dy=0 dh=0 dv=0
EndChar

StartChar: C
Encoding: 67 67 73
Width: 1501
GlyphClass: 2
Flags: W
AnchorPoint: "Anchor-3" 767 1 basechar 0
AnchorPoint: "Anchor-1" 773 1490 basechar 0
LayerCount: 2
Fore
SplineSet
778 -22 m 0,0,1
 578 -22 578 -22 419.5 69.5 c 128,-1,2
 261 161 261 161 169.5 333 c 128,-1,3
 78 505 78 505 78 744 c 0,4,5
 78 986 78 986 170 1158 c 128,-1,6
 262 1330 262 1330 420.5 1421 c 128,-1,7
 579 1512 579 1512 778 1512 c 0,8,9
 907 1512 907 1512 1018 1475 c 128,-1,10
 1129 1438 1129 1438 1215 1368 c 128,-1,11
 1301 1298 1301 1298 1355.5 1198.5 c 128,-1,12
 1410 1099 1410 1099 1428 973 c 1,13,-1
 1118 973 l 1,14,15
 1106 1037 1106 1037 1076.5 1086.5 c 128,-1,16
 1047 1136 1047 1136 1004 1170.5 c 128,-1,17
 961 1205 961 1205 905 1223 c 128,-1,18
 849 1241 849 1241 784 1241 c 0,19,20
 663 1241 663 1241 574 1181.5 c 128,-1,21
 485 1122 485 1122 437 1011 c 128,-1,22
 389 900 389 900 389 744 c 0,23,24
 389 589 389 589 437 477.5 c 128,-1,25
 485 366 485 366 573.5 307.5 c 128,-1,26
 662 249 662 249 783 249 c 0,27,28
 848 249 848 249 903.5 267.5 c 128,-1,29
 959 286 959 286 1003 320 c 128,-1,30
 1047 354 1047 354 1076.5 403.5 c 128,-1,31
 1106 453 1106 453 1118 517 c 1,32,-1
 1428 517 l 1,33,34
 1413 403 1413 403 1360.5 305 c 128,-1,35
 1308 207 1308 207 1223.5 133.5 c 128,-1,36
 1139 60 1139 60 1027 19 c 128,-1,37
 915 -22 915 -22 778 -22 c 0,0,1
EndSplineSet
Substitution2: "'ss06' Style Set 6 in Latin lookup 52 subtable" C.squared
Substitution2: "'ss05' Style Set 5 in Latin lookup 51 subtable" uni24B8
Position2: "'cpsp' Capital Spacing in Latin lookup 0 subtable" dx=0 dy=0 dh=0 dv=0
EndChar

StartChar: uni0187
Encoding: 391 391 74
Width: 1501
GlyphClass: 2
Flags: W
AnchorPoint: "Anchor-3" 767 1 basechar 0
AnchorPoint: "Anchor-1" 773 1490 basechar 0
LayerCount: 2
Fore
SplineSet
1135 973 m 1,0,-1
 1135 1367 l 2,1,2
 1135 1525 1135 1525 1222.5 1605 c 128,-1,3
 1310 1685 1310 1685 1490 1685 c 0,4,5
 1538 1685 1538 1685 1578.5 1682.5 c 128,-1,6
 1619 1680 1619 1680 1648 1676 c 1,7,-1
 1648 1450 l 1,8,9
 1628 1451 1628 1451 1599.5 1452 c 128,-1,10
 1571 1453 1571 1453 1544 1453 c 0,11,12
 1483 1453 1483 1453 1455.5 1431.5 c 128,-1,13
 1428 1410 1428 1410 1428 1361 c 2,14,-1
 1428 973 l 1,15,-1
 1135 973 l 1,0,-1
778 -22 m 0,16,17
 578 -22 578 -22 419.5 69.5 c 128,-1,18
 261 161 261 161 169.5 333 c 128,-1,19
 78 505 78 505 78 744 c 0,20,21
 78 986 78 986 170 1158 c 128,-1,22
 262 1330 262 1330 420.5 1421 c 128,-1,23
 579 1512 579 1512 778 1512 c 0,24,25
 907 1512 907 1512 1018 1475 c 128,-1,26
 1129 1438 1129 1438 1215 1368 c 128,-1,27
 1301 1298 1301 1298 1355.5 1198.5 c 128,-1,28
 1410 1099 1410 1099 1428 973 c 1,29,-1
 1118 973 l 1,30,31
 1106 1037 1106 1037 1076.5 1086.5 c 128,-1,32
 1047 1136 1047 1136 1004 1170.5 c 128,-1,33
 961 1205 961 1205 905 1223 c 128,-1,34
 849 1241 849 1241 784 1241 c 0,35,36
 663 1241 663 1241 574 1181.5 c 128,-1,37
 485 1122 485 1122 437 1011 c 128,-1,38
 389 900 389 900 389 744 c 0,39,40
 389 589 389 589 437 477.5 c 128,-1,41
 485 366 485 366 573.5 307.5 c 128,-1,42
 662 249 662 249 783 249 c 0,43,44
 848 249 848 249 903.5 267.5 c 128,-1,45
 959 286 959 286 1003 320 c 128,-1,46
 1047 354 1047 354 1076.5 403.5 c 128,-1,47
 1106 453 1106 453 1118 517 c 1,48,-1
 1428 517 l 1,49,50
 1413 403 1413 403 1360.5 305 c 128,-1,51
 1308 207 1308 207 1223.5 133.5 c 128,-1,52
 1139 60 1139 60 1027 19 c 128,-1,53
 915 -22 915 -22 778 -22 c 0,16,17
EndSplineSet
Position2: "'cpsp' Capital Spacing in Latin lookup 0 subtable" dx=0 dy=0 dh=0 dv=0
EndChar

StartChar: uni023B
Encoding: 571 571 81
Width: 1501
GlyphClass: 2
Flags: W
AnchorPoint: "Anchor-3" 767 1 basechar 0
AnchorPoint: "Anchor-1" 773 1490 basechar 0
LayerCount: 2
Fore
SplineSet
362 -190 m 1,0,-1
 971 1678 l 1,1,-1
 1160 1678 l 1,2,-1
 550 -190 l 1,3,-1
 362 -190 l 1,0,-1
778 -22 m 0,4,5
 578 -22 578 -22 419.5 69.5 c 128,-1,6
 261 161 261 161 169.5 333 c 128,-1,7
 78 505 78 505 78 744 c 0,8,9
 78 986 78 986 170 1158 c 128,-1,10
 262 1330 262 1330 420.5 1421 c 128,-1,11
 579 1512 579 1512 778 1512 c 0,12,13
 907 1512 907 1512 1018 1475 c 128,-1,14
 1129 1438 1129 1438 1215 1368 c 128,-1,15
 1301 1298 1301 1298 1355.5 1198.5 c 128,-1,16
 1410 1099 1410 1099 1428 973 c 1,17,-1
 1118 973 l 1,18,19
 1106 1037 1106 1037 1076.5 1086.5 c 128,-1,20
 1047 1136 1047 1136 1004 1170.5 c 128,-1,21
 961 1205 961 1205 905 1223 c 128,-1,22
 849 1241 849 1241 784 1241 c 0,23,24
 663 1241 663 1241 574 1181.5 c 128,-1,25
 485 1122 485 1122 437 1011 c 128,-1,26
 389 900 389 900 389 744 c 0,27,28
 389 589 389 589 437 477.5 c 128,-1,29
 485 366 485 366 573.5 307.5 c 128,-1,30
 662 249 662 249 783 249 c 0,31,32
 848 249 848 249 903.5 267.5 c 128,-1,33
 959 286 959 286 1003 320 c 128,-1,34
 1047 354 1047 354 1076.5 403.5 c 128,-1,35
 1106 453 1106 453 1118 517 c 1,36,-1
 1428 517 l 1,37,38
 1413 403 1413 403 1360.5 305 c 128,-1,39
 1308 207 1308 207 1223.5 133.5 c 128,-1,40
 1139 60 1139 60 1027 19 c 128,-1,41
 915 -22 915 -22 778 -22 c 0,4,5
EndSplineSet
Ligature2: "'ccmp' Glyph Composition/Decomposition in Latin lookup 6 subtable" C uni0338
Position2: "'cpsp' Capital Spacing in Latin lookup 0 subtable" dx=0 dy=0 dh=0 dv=0
EndChar

StartChar: uni0186
Encoding: 390 390 82
Width: 1501
GlyphClass: 2
Flags: W
AnchorPoint: "Anchor-3" 734 1490 basechar 0
AnchorPoint: "Anchor-1" 729 0 basechar 0
LayerCount: 2
Fore
SplineSet
723 1512 m 0,0,1
 924 1512 924 1512 1082.5 1420.5 c 128,-1,2
 1241 1329 1241 1329 1332 1157.5 c 128,-1,3
 1423 986 1423 986 1423 746 c 256,4,5
 1423 506 1423 506 1331.5 334 c 128,-1,6
 1240 162 1240 162 1082 70 c 128,-1,7
 924 -22 924 -22 723 -22 c 0,8,9
 594 -22 594 -22 483.5 15 c 128,-1,10
 373 52 373 52 287 122.5 c 128,-1,11
 201 193 201 193 146.5 292.5 c 128,-1,12
 92 392 92 392 74 518 c 1,13,-1
 384 518 l 1,14,15
 396 454 396 454 425 404.5 c 128,-1,16
 454 355 454 355 497.5 320 c 128,-1,17
 541 285 541 285 597 267 c 128,-1,18
 653 249 653 249 718 249 c 0,19,20
 839 249 839 249 928 309 c 128,-1,21
 1017 369 1017 369 1065 480.5 c 128,-1,22
 1113 592 1113 592 1113 746 c 0,23,24
 1113 903 1113 903 1065 1014 c 128,-1,25
 1017 1125 1017 1125 928 1183 c 128,-1,26
 839 1241 839 1241 718 1241 c 0,27,28
 654 1241 654 1241 598.5 1223.5 c 128,-1,29
 543 1206 543 1206 499 1171 c 128,-1,30
 455 1136 455 1136 425.5 1086.5 c 128,-1,31
 396 1037 396 1037 384 974 c 1,32,-1
 74 974 l 1,33,34
 89 1088 89 1088 141.5 1186 c 128,-1,35
 194 1284 194 1284 278 1357.5 c 128,-1,36
 362 1431 362 1431 474.5 1471.5 c 128,-1,37
 587 1512 587 1512 723 1512 c 0,0,1
EndSplineSet
Position2: "'cpsp' Capital Spacing in Latin lookup 0 subtable" dx=0 dy=0 dh=0 dv=0
EndChar

StartChar: D
Encoding: 68 68 84
Width: 1457
GlyphClass: 2
Flags: W
AnchorPoint: "Anchor-1" 596 1490 basechar 0
AnchorPoint: "Anchor-0" 642 0 basechar 0
LayerCount: 2
Fore
SplineSet
649 0 m 2,0,-1
 263 0 l 1,1,-1
 263 261 l 1,2,-1
 633 261 l 2,3,4
 780 261 780 261 878 315 c 128,-1,5
 976 369 976 369 1024 477 c 128,-1,6
 1072 585 1072 585 1072 746 c 0,7,8
 1072 908 1072 908 1023.5 1015.5 c 128,-1,9
 975 1123 975 1123 878 1176 c 128,-1,10
 781 1229 781 1229 636 1229 c 2,11,-1
 256 1229 l 1,12,-1
 256 1490 l 1,13,-1
 654 1490 l 2,14,15
 879 1490 879 1490 1041 1400 c 128,-1,16
 1203 1310 1203 1310 1291 1143 c 128,-1,17
 1379 976 1379 976 1379 746 c 0,18,19
 1379 515 1379 515 1291 348 c 128,-1,20
 1203 181 1203 181 1039.5 90.5 c 128,-1,21
 876 0 876 0 649 0 c 2,0,-1
429 1490 m 1,22,-1
 429 0 l 1,23,-1
 123 0 l 1,24,-1
 123 1490 l 1,25,-1
 429 1490 l 1,22,-1
EndSplineSet
Substitution2: "'ss06' Style Set 6 in Latin lookup 52 subtable" D.squared
Substitution2: "'ss05' Style Set 5 in Latin lookup 51 subtable" uni24B9
Position2: "'cpsp' Capital Spacing in Latin lookup 0 subtable" dx=0 dy=0 dh=0 dv=0
EndChar

StartChar: uni018A
Encoding: 394 394 85
Width: 1845
GlyphClass: 2
Flags: W
AnchorPoint: "Anchor-1" 984 1490 basechar 0
AnchorPoint: "Anchor-0" 1030 0 basechar 0
LayerCount: 2
Fore
SplineSet
41 1049 m 1,0,-1
 41 1160 l 2,1,2
 41 1322 41 1322 130 1406 c 128,-1,3
 219 1490 219 1490 400 1490 c 2,4,-1
 511 1490 l 1,5,-1
 511 1236 l 1,6,-1
 437 1236 l 2,7,8
 379 1236 379 1236 351 1210.5 c 128,-1,9
 323 1185 323 1185 323 1132 c 2,10,-1
 323 1049 l 1,11,-1
 41 1049 l 1,0,-1
1037 0 m 2,12,-1
 651 0 l 1,13,-1
 651 261 l 1,14,-1
 1021 261 l 2,15,16
 1168 261 1168 261 1266 315 c 128,-1,17
 1364 369 1364 369 1412 477 c 128,-1,18
 1460 585 1460 585 1460 746 c 0,19,20
 1460 908 1460 908 1411.5 1015.5 c 128,-1,21
 1363 1123 1363 1123 1266 1176 c 128,-1,22
 1169 1229 1169 1229 1024 1229 c 2,23,-1
 644 1229 l 1,24,-1
 644 1490 l 1,25,-1
 1042 1490 l 2,26,27
 1267 1490 1267 1490 1429.5 1400 c 128,-1,28
 1592 1310 1592 1310 1679.5 1143 c 128,-1,29
 1767 976 1767 976 1767 746 c 0,30,31
 1767 515 1767 515 1679 348 c 128,-1,32
 1591 181 1591 181 1427.5 90.5 c 128,-1,33
 1264 0 1264 0 1037 0 c 2,12,-1
817 1490 m 1,34,-1
 817 0 l 1,35,-1
 511 0 l 1,36,-1
 511 1490 l 1,37,-1
 817 1490 l 1,34,-1
EndSplineSet
Position2: "'cpsp' Capital Spacing in Latin lookup 0 subtable" dx=0 dy=0 dh=0 dv=0
EndChar

StartChar: E
Encoding: 69 69 95
Width: 1245
GlyphClass: 2
Flags: W
AnchorPoint: "Anchor-4" 1157 0 basechar 0
AnchorPoint: "Anchor-3" 643 0 basechar 0
AnchorPoint: "Anchor-1" 641 1490 basechar 0
AnchorPoint: "Anchor-0" 641 0 basechar 0
LayerCount: 2
Fore
SplineSet
123 0 m 1,0,-1
 123 1490 l 1,1,-1
 1157 1490 l 1,2,-1
 1157 1232 l 1,3,-1
 429 1232 l 1,4,-1
 429 880 l 1,5,-1
 1101 880 l 1,6,-1
 1101 627 l 1,7,-1
 429 627 l 1,8,-1
 429 258 l 1,9,-1
 1157 258 l 1,10,-1
 1157 0 l 1,11,-1
 123 0 l 1,0,-1
EndSplineSet
Substitution2: "'ss06' Style Set 6 in Latin lookup 52 subtable" E.squared
Substitution2: "'ss05' Style Set 5 in Latin lookup 51 subtable" uni24BA
Position2: "'cpsp' Capital Spacing in Latin lookup 0 subtable" dx=0 dy=0 dh=0 dv=0
EndChar

StartChar: uni0246
Encoding: 582 582 121
Width: 1245
GlyphClass: 2
Flags: W
AnchorPoint: "Anchor-4" 1157 0 basechar 0
AnchorPoint: "Anchor-3" 643 0 basechar 0
AnchorPoint: "Anchor-1" 641 1490 basechar 0
AnchorPoint: "Anchor-0" 641 0 basechar 0
LayerCount: 2
Fore
SplineSet
310 -190 m 1,0,-1
 850 1678 l 1,1,-1
 1014 1678 l 1,2,-1
 476 -190 l 1,3,-1
 310 -190 l 1,0,-1
123 0 m 1,4,-1
 123 1490 l 1,5,-1
 1157 1490 l 1,6,-1
 1157 1232 l 1,7,-1
 429 1232 l 1,8,-1
 429 880 l 1,9,-1
 1101 880 l 1,10,-1
 1101 627 l 1,11,-1
 429 627 l 1,12,-1
 429 258 l 1,13,-1
 1157 258 l 1,14,-1
 1157 0 l 1,15,-1
 123 0 l 1,4,-1
EndSplineSet
Position2: "'cpsp' Capital Spacing in Latin lookup 0 subtable" dx=0 dy=0 dh=0 dv=0
EndChar

StartChar: Eturn
Encoding: 398 398 122
Width: 1245
GlyphClass: 2
Flags: W
AnchorPoint: "Anchor-4" 87 1490 basechar 0
AnchorPoint: "Anchor-3" 620 0 basechar 0
AnchorPoint: "Anchor-1" 621 1490 basechar 0
AnchorPoint: "Anchor-0" 617 0 basechar 0
LayerCount: 2
Fore
SplineSet
1122 1490 m 1,0,-1
 1122 0 l 1,1,-1
 89 0 l 1,2,-1
 89 258 l 1,3,-1
 815 258 l 1,4,-1
 815 612 l 1,5,-1
 143 612 l 1,6,-1
 143 865 l 1,7,-1
 815 865 l 1,8,-1
 815 1232 l 1,9,-1
 87 1232 l 1,10,-1
 87 1490 l 1,11,-1
 1122 1490 l 1,0,-1
EndSplineSet
Position2: "'cpsp' Capital Spacing in Latin lookup 0 subtable" dx=0 dy=0 dh=0 dv=0
EndChar

StartChar: F
Encoding: 70 70 137
Width: 1197
GlyphClass: 2
Flags: W
AnchorPoint: "Anchor-1" 627 1490 basechar 0
AnchorPoint: "Anchor-0" 277 0 basechar 0
LayerCount: 2
Fore
SplineSet
123 0 m 1,0,-1
 123 1490 l 1,1,-1
 1131 1490 l 1,2,-1
 1131 1232 l 1,3,-1
 429 1232 l 1,4,-1
 429 841 l 1,5,-1
 1074 841 l 1,6,-1
 1074 588 l 1,7,-1
 429 588 l 1,8,-1
 429 0 l 1,9,-1
 123 0 l 1,0,-1
EndSplineSet
Substitution2: "'ss06' Style Set 6 in Latin lookup 52 subtable" F.squared
Substitution2: "'ss05' Style Set 5 in Latin lookup 51 subtable" uni24BB
Position2: "'cpsp' Capital Spacing in Latin lookup 0 subtable" dx=0 dy=0 dh=0 dv=0
EndChar

StartChar: uni0191
Encoding: 401 401 138
Width: 1197
GlyphClass: 2
Flags: W
AnchorPoint: "Anchor-1" 627 1490 basechar 0
AnchorPoint: "Anchor-0" 277 0 basechar 0
LayerCount: 2
Fore
SplineSet
-91 -417 m 1,0,-1
 -91 -178 l 1,1,2
 -71 -180 -71 -180 -42.5 -181 c 128,-1,3
 -14 -182 -14 -182 13 -182 c 0,4,5
 74 -182 74 -182 98.5 -160.5 c 128,-1,6
 123 -139 123 -139 123 -92 c 2,7,-1
 123 124 l 1,8,-1
 429 124 l 1,9,-1
 429 -108 l 2,10,11
 429 -265 429 -265 339 -345.5 c 128,-1,12
 249 -426 249 -426 70 -426 c 0,13,14
 21 -426 21 -426 -20.5 -424 c 128,-1,15
 -62 -422 -62 -422 -91 -417 c 1,0,-1
123 0 m 1,16,-1
 123 1490 l 1,17,-1
 1131 1490 l 1,18,-1
 1131 1232 l 1,19,-1
 429 1232 l 1,20,-1
 429 841 l 1,21,-1
 1074 841 l 1,22,-1
 1074 588 l 1,23,-1
 429 588 l 1,24,-1
 429 0 l 1,25,-1
 123 0 l 1,16,-1
EndSplineSet
Position2: "'cpsp' Capital Spacing in Latin lookup 0 subtable" dx=0 dy=0 dh=0 dv=0
EndChar

StartChar: Fturn
Encoding: 8498 8498 140
Width: 1197
GlyphClass: 2
Flags: W
AnchorPoint: "Anchor-1" 899 1490 basechar 0
AnchorPoint: "Anchor-0" 563 0 basechar 0
LayerCount: 2
Fore
SplineSet
1074 1490 m 1,0,-1
 1074 0 l 1,1,-1
 66 0 l 1,2,-1
 66 258 l 1,3,-1
 767 258 l 1,4,-1
 767 651 l 1,5,-1
 123 651 l 1,6,-1
 123 903 l 1,7,-1
 767 903 l 1,8,-1
 767 1490 l 1,9,-1
 1074 1490 l 1,0,-1
EndSplineSet
Position2: "'cpsp' Capital Spacing in Latin lookup 0 subtable" dx=0 dy=0 dh=0 dv=0
EndChar

StartChar: G
Encoding: 1114113 -1 141
Width: 1522
GlyphClass: 2
Flags: W
AnchorPoint: "Anchor-1" 770 1490 basechar 0
AnchorPoint: "Anchor-0" 767 0 basechar 0
LayerCount: 2
Fore
SplineSet
783 -22 m 0,0,1
 574 -22 574 -22 415 72.5 c 128,-1,2
 256 167 256 167 167 339.5 c 128,-1,3
 78 512 78 512 78 743 c 0,4,5
 78 984 78 984 170.5 1156.5 c 128,-1,6
 263 1329 263 1329 421.5 1420.5 c 128,-1,7
 580 1512 580 1512 778 1512 c 0,8,9
 905 1512 905 1512 1015.5 1475 c 128,-1,10
 1126 1438 1126 1438 1212 1370 c 128,-1,11
 1298 1302 1298 1302 1353 1208.5 c 128,-1,12
 1408 1115 1408 1115 1423 1001 c 1,13,-1
 1111 1001 l 1,14,15
 1097 1056 1097 1056 1069 1100 c 128,-1,16
 1041 1144 1041 1144 999 1176 c 128,-1,17
 957 1208 957 1208 903.5 1224.5 c 128,-1,18
 850 1241 850 1241 785 1241 c 0,19,20
 665 1241 665 1241 576 1182 c 128,-1,21
 487 1123 487 1123 438 1012 c 128,-1,22
 389 901 389 901 389 745 c 0,23,24
 389 590 389 590 437.5 479 c 128,-1,25
 486 368 486 368 576 308.5 c 128,-1,26
 666 249 666 249 789 249 c 0,27,28
 895 249 895 249 973.5 289 c 128,-1,29
 1052 329 1052 329 1094 400 c 128,-1,30
 1136 471 1136 471 1136 568 c 1,31,-1
 1206 560 l 1,32,-1
 812 560 l 1,33,-1
 812 793 l 1,34,-1
 1435 793 l 1,35,-1
 1435 605 l 2,36,37
 1435 415 1435 415 1351.5 274 c 128,-1,38
 1268 133 1268 133 1121 55.5 c 128,-1,39
 974 -22 974 -22 783 -22 c 0,0,1
EndSplineSet
Substitution2: "'c2sc' Capitals to Small Capitals in Latin lookup 68 subtable" g.sc
Substitution2: "'cv10' Character Variants 10 in Latin lookup 64 subtable" G.1
Substitution2: "'ss06' Style Set 6 in Latin lookup 52 subtable" G.squared
Substitution2: "'ss05' Style Set 5 in Latin lookup 51 subtable" uni24BC
Substitution2: "'salt' Stylistic Alternatives in Latin lookup 46 subtable" G.1
Substitution2: "'aalt' Access All Alternates in Latin lookup 0 subtable" g.sc
Position2: "'cpsp' Capital Spacing in Latin lookup 0 subtable" dx=0 dy=0 dh=0 dv=0
EndChar

StartChar: uni0193
Encoding: 1114115 -1 143
Width: 1522
GlyphClass: 2
Flags: W
AnchorPoint: "Anchor-1" 770 1490 basechar 0
AnchorPoint: "Anchor-0" 767 0 basechar 0
LayerCount: 2
Fore
SplineSet
1130 1001 m 1,0,-1
 1130 1363 l 2,1,2
 1130 1521 1130 1521 1218.5 1600.5 c 128,-1,3
 1307 1680 1307 1680 1485 1680 c 0,4,5
 1534 1680 1534 1680 1574.5 1678 c 128,-1,6
 1615 1676 1615 1676 1644 1672 c 1,7,-1
 1644 1445 l 1,8,9
 1624 1446 1624 1446 1595 1447 c 128,-1,10
 1566 1448 1566 1448 1539 1448 c 0,11,12
 1478 1448 1478 1448 1450.5 1426 c 128,-1,13
 1423 1404 1423 1404 1423 1357 c 2,14,-1
 1423 1001 l 1,15,-1
 1130 1001 l 1,0,-1
783 -22 m 0,16,17
 574 -22 574 -22 415 72.5 c 128,-1,18
 256 167 256 167 167 339.5 c 128,-1,19
 78 512 78 512 78 743 c 0,20,21
 78 984 78 984 170.5 1156.5 c 128,-1,22
 263 1329 263 1329 421.5 1420.5 c 128,-1,23
 580 1512 580 1512 778 1512 c 0,24,25
 905 1512 905 1512 1015.5 1475 c 128,-1,26
 1126 1438 1126 1438 1212 1370 c 128,-1,27
 1298 1302 1298 1302 1353 1208.5 c 128,-1,28
 1408 1115 1408 1115 1423 1001 c 1,29,-1
 1111 1001 l 1,30,31
 1097 1056 1097 1056 1069 1100 c 128,-1,32
 1041 1144 1041 1144 999 1176 c 128,-1,33
 957 1208 957 1208 903.5 1224.5 c 128,-1,34
 850 1241 850 1241 785 1241 c 0,35,36
 665 1241 665 1241 576 1182 c 128,-1,37
 487 1123 487 1123 438 1012 c 128,-1,38
 389 901 389 901 389 745 c 0,39,40
 389 590 389 590 437.5 479 c 128,-1,41
 486 368 486 368 576 308.5 c 128,-1,42
 666 249 666 249 789 249 c 0,43,44
 895 249 895 249 973.5 289 c 128,-1,45
 1052 329 1052 329 1094 400 c 128,-1,46
 1136 471 1136 471 1136 568 c 1,47,-1
 1206 560 l 1,48,-1
 812 560 l 1,49,-1
 812 793 l 1,50,-1
 1435 793 l 1,51,-1
 1435 605 l 2,52,53
 1435 415 1435 415 1351.5 274 c 128,-1,54
 1268 133 1268 133 1121 55.5 c 128,-1,55
 974 -22 974 -22 783 -22 c 0,16,17
EndSplineSet
Substitution2: "'c2sc' Capitals to Small Capitals in Latin lookup 68 subtable" uni0260.sc
Substitution2: "'cv10' Character Variants 10 in Latin lookup 64 subtable" uni0193.1
Substitution2: "'salt' Stylistic Alternatives in Latin lookup 46 subtable" uni0193.1
Substitution2: "'aalt' Access All Alternates in Latin lookup 0 subtable" uni0260.sc
Position2: "'cpsp' Capital Spacing in Latin lookup 0 subtable" dx=0 dy=0 dh=0 dv=0
EndChar

StartChar: G.1
Encoding: 57346 57346 151
AltUni2: 000047.ffffffff.0
Width: 1542
GlyphClass: 2
Flags: W
AnchorPoint: "Anchor-1" 771 1490 basechar 0
AnchorPoint: "Anchor-0" 768 0 basechar 0
LayerCount: 2
Fore
SplineSet
752 -22 m 0,0,1
 561 -22 561 -22 408.5 72.5 c 128,-1,2
 256 167 256 167 167 339.5 c 128,-1,3
 78 512 78 512 78 743 c 0,4,5
 78 984 78 984 170.5 1156.5 c 128,-1,6
 263 1329 263 1329 421.5 1420.5 c 128,-1,7
 580 1512 580 1512 778 1512 c 0,8,9
 905 1512 905 1512 1015.5 1475 c 128,-1,10
 1126 1438 1126 1438 1212 1370 c 128,-1,11
 1298 1302 1298 1302 1353 1208.5 c 128,-1,12
 1408 1115 1408 1115 1423 1001 c 1,13,-1
 1111 1001 l 1,14,15
 1097 1056 1097 1056 1069 1100 c 128,-1,16
 1041 1144 1041 1144 999 1176 c 128,-1,17
 957 1208 957 1208 903.5 1224.5 c 128,-1,18
 850 1241 850 1241 785 1241 c 0,19,20
 665 1241 665 1241 576 1182 c 128,-1,21
 487 1123 487 1123 438 1012 c 128,-1,22
 389 901 389 901 389 745 c 0,23,24
 389 590 389 590 437.5 479 c 128,-1,25
 486 368 486 368 576.5 308.5 c 128,-1,26
 667 249 667 249 791 249 c 0,27,28
 897 249 897 249 974.5 289.5 c 128,-1,29
 1052 330 1052 330 1095.5 403.5 c 128,-1,30
 1139 477 1139 477 1139 579 c 1,31,-1
 1244 579 l 1,32,-1
 1244 467 l 2,33,34
 1244 364 1244 364 1213 275 c 128,-1,35
 1182 186 1182 186 1120 119.5 c 128,-1,36
 1058 53 1058 53 966 15.5 c 128,-1,37
 874 -22 874 -22 752 -22 c 0,0,1
1233 0 m 1,38,-1
 1193 331 l 1,39,-1
 1193 560 l 1,40,-1
 813 560 l 1,41,-1
 813 793 l 1,42,-1
 1436 793 l 1,43,-1
 1436 0 l 1,44,-1
 1233 0 l 1,38,-1
EndSplineSet
Substitution2: "'ss06' Style Set 6 in Latin lookup 52 subtable" G.1.squared
EndChar

StartChar: uni0193.1
Encoding: 57348 57348 153
AltUni2: 000193.ffffffff.0
Width: 1542
GlyphClass: 2
Flags: W
AnchorPoint: "Anchor-1" 771 1490 basechar 0
AnchorPoint: "Anchor-0" 768 0 basechar 0
LayerCount: 2
Fore
SplineSet
1130 1001 m 1,0,-1
 1130 1363 l 2,1,2
 1130 1521 1130 1521 1218.5 1600.5 c 128,-1,3
 1307 1680 1307 1680 1485 1680 c 0,4,5
 1534 1680 1534 1680 1574.5 1678 c 128,-1,6
 1615 1676 1615 1676 1644 1672 c 1,7,-1
 1644 1445 l 1,8,9
 1624 1446 1624 1446 1595 1447 c 128,-1,10
 1566 1448 1566 1448 1539 1448 c 0,11,12
 1478 1448 1478 1448 1450.5 1426 c 128,-1,13
 1423 1404 1423 1404 1423 1357 c 2,14,-1
 1423 1001 l 1,15,-1
 1130 1001 l 1,0,-1
752 -22 m 0,16,17
 561 -22 561 -22 408.5 72.5 c 128,-1,18
 256 167 256 167 167 339.5 c 128,-1,19
 78 512 78 512 78 743 c 0,20,21
 78 984 78 984 170.5 1156.5 c 128,-1,22
 263 1329 263 1329 421.5 1420.5 c 128,-1,23
 580 1512 580 1512 778 1512 c 0,24,25
 905 1512 905 1512 1015.5 1475 c 128,-1,26
 1126 1438 1126 1438 1212 1370 c 128,-1,27
 1298 1302 1298 1302 1353 1208.5 c 128,-1,28
 1408 1115 1408 1115 1423 1001 c 1,29,-1
 1111 1001 l 1,30,31
 1097 1056 1097 1056 1069 1100 c 128,-1,32
 1041 1144 1041 1144 999 1176 c 128,-1,33
 957 1208 957 1208 903.5 1224.5 c 128,-1,34
 850 1241 850 1241 785 1241 c 0,35,36
 665 1241 665 1241 576 1182 c 128,-1,37
 487 1123 487 1123 438 1012 c 128,-1,38
 389 901 389 901 389 745 c 0,39,40
 389 590 389 590 437.5 479 c 128,-1,41
 486 368 486 368 576.5 308.5 c 128,-1,42
 667 249 667 249 791 249 c 0,43,44
 897 249 897 249 974.5 289.5 c 128,-1,45
 1052 330 1052 330 1095.5 403.5 c 128,-1,46
 1139 477 1139 477 1139 579 c 1,47,-1
 1244 579 l 1,48,-1
 1244 467 l 2,49,50
 1244 364 1244 364 1213 275 c 128,-1,51
 1182 186 1182 186 1120 119.5 c 128,-1,52
 1058 53 1058 53 966 15.5 c 128,-1,53
 874 -22 874 -22 752 -22 c 0,16,17
1233 0 m 1,54,-1
 1193 331 l 1,55,-1
 1193 560 l 1,56,-1
 813 560 l 1,57,-1
 813 793 l 1,58,-1
 1436 793 l 1,59,-1
 1436 0 l 1,60,-1
 1233 0 l 1,54,-1
EndSplineSet
EndChar

StartChar: H
Encoding: 72 72 161
Width: 1500
GlyphClass: 2
Flags: W
AnchorPoint: "Anchor-3" 276 1 basechar 0
AnchorPoint: "Anchor-1" 751 1490 basechar 0
AnchorPoint: "Anchor-0" 751 0 basechar 0
LayerCount: 2
Fore
SplineSet
123 0 m 1,0,-1
 123 1490 l 1,1,-1
 429 1490 l 1,2,-1
 429 890 l 1,3,-1
 1071 890 l 1,4,-1
 1071 1490 l 1,5,-1
 1377 1490 l 1,6,-1
 1377 0 l 1,7,-1
 1071 0 l 1,8,-1
 1071 632 l 1,9,-1
 429 632 l 1,10,-1
 429 0 l 1,11,-1
 123 0 l 1,0,-1
EndSplineSet
Substitution2: "'c2sc' Capitals to Small Capitals in Latin lookup 68 subtable" h.sc
Substitution2: "'ss06' Style Set 6 in Latin lookup 52 subtable" H.squared
Substitution2: "'ss05' Style Set 5 in Latin lookup 51 subtable" uni24BD
Substitution2: "'aalt' Access All Alternates in Latin lookup 0 subtable" h.sc
Position2: "'cpsp' Capital Spacing in Latin lookup 0 subtable" dx=0 dy=0 dh=0 dv=0
EndChar

StartChar: Hbar
Encoding: 294 294 169
Width: 1622
GlyphClass: 2
Flags: W
AnchorPoint: "Anchor-3" 335 1 basechar 0
AnchorPoint: "Anchor-1" 810 1490 basechar 0
AnchorPoint: "Anchor-0" 810 0 basechar 0
LayerCount: 2
Fore
SplineSet
1562 1226 m 1,0,-1
 1562 1052 l 1,1,-1
 60 1052 l 1,2,-1
 60 1226 l 1,3,-1
 1562 1226 l 1,0,-1
182 0 m 1,4,-1
 182 1490 l 1,5,-1
 489 1490 l 1,6,-1
 489 890 l 1,7,-1
 1130 890 l 1,8,-1
 1130 1490 l 1,9,-1
 1436 1490 l 1,10,-1
 1436 0 l 1,11,-1
 1130 0 l 1,12,-1
 1130 632 l 1,13,-1
 489 632 l 1,14,-1
 489 0 l 1,15,-1
 182 0 l 1,4,-1
EndSplineSet
Position2: "'cpsp' Capital Spacing in Latin lookup 0 subtable" dx=0 dy=0 dh=0 dv=0
EndChar

StartChar: uni04C7
Encoding: 1223 1223 170
Width: 1500
GlyphClass: 2
Flags: W
AnchorPoint: "Anchor-3" 276 1 basechar 0
AnchorPoint: "Anchor-1" 751 1490 basechar 0
AnchorPoint: "Anchor-0" 751 0 basechar 0
LayerCount: 2
Fore
SplineSet
857 -417 m 1,0,-1
 857 -178 l 1,1,2
 877 -180 877 -180 905.5 -181 c 128,-1,3
 934 -182 934 -182 961 -182 c 0,4,5
 1022 -182 1022 -182 1046.5 -160.5 c 128,-1,6
 1071 -139 1071 -139 1071 -92 c 2,7,-1
 1071 124 l 1,8,-1
 1377 124 l 1,9,-1
 1377 -108 l 2,10,11
 1377 -265 1377 -265 1287 -345.5 c 128,-1,12
 1197 -426 1197 -426 1018 -426 c 0,13,14
 969 -426 969 -426 927.5 -424 c 128,-1,15
 886 -422 886 -422 857 -417 c 1,0,-1
123 0 m 1,16,-1
 123 1490 l 1,17,-1
 429 1490 l 1,18,-1
 429 890 l 1,19,-1
 1071 890 l 1,20,-1
 1071 1490 l 1,21,-1
 1377 1490 l 1,22,-1
 1377 0 l 1,23,-1
 1071 0 l 1,24,-1
 1071 632 l 1,25,-1
 429 632 l 1,26,-1
 429 0 l 1,27,-1
 123 0 l 1,16,-1
EndSplineSet
Position2: "'cpsp' Capital Spacing in Latin lookup 0 subtable" dx=0 dy=0 dh=0 dv=0
EndChar

StartChar: uni04A4
Encoding: 1188 1188 173
Width: 2030
GlyphClass: 2
Flags: W
AnchorPoint: "Anchor-3" 276 1 basechar 0
AnchorPoint: "Anchor-1" 751 1490 basechar 0
AnchorPoint: "Anchor-0" 751 0 basechar 0
LayerCount: 2
Fore
SplineSet
1970 1490 m 1,0,-1
 1970 1240 l 1,1,-1
 1324 1240 l 1,2,-1
 1080 1490 l 1,3,-1
 1970 1490 l 1,0,-1
123 0 m 1,4,-1
 123 1490 l 1,5,-1
 429 1490 l 1,6,-1
 429 890 l 1,7,-1
 1071 890 l 1,8,-1
 1071 1490 l 1,9,-1
 1377 1490 l 1,10,-1
 1377 0 l 1,11,-1
 1071 0 l 1,12,-1
 1071 632 l 1,13,-1
 429 632 l 1,14,-1
 429 0 l 1,15,-1
 123 0 l 1,4,-1
EndSplineSet
Position2: "'cpsp' Capital Spacing in Latin lookup 0 subtable" dx=0 dy=0 dh=0 dv=0
EndChar

StartChar: uni01F6
Encoding: 502 502 174
Width: 2238
Flags: W
LayerCount: 2
Fore
SplineSet
1599 -21 m 256,0,1
 1440 -21 1440 -21 1321 37.5 c 128,-1,2
 1202 96 1202 96 1136.5 204.5 c 128,-1,3
 1071 313 1071 313 1071 462 c 2,4,-1
 1071 624 l 1,5,-1
 429 624 l 1,6,-1
 429 0 l 1,7,-1
 123 0 l 1,8,-1
 123 1490 l 1,9,-1
 429 1490 l 1,10,-1
 429 882 l 1,11,-1
 1071 882 l 1,12,-1
 1071 1490 l 1,13,-1
 1378 1490 l 1,14,-1
 1378 471 l 2,15,16
 1378 394 1378 394 1404 340.5 c 128,-1,17
 1430 287 1430 287 1480.5 259.5 c 128,-1,18
 1531 232 1531 232 1600 232 c 0,19,20
 1671 232 1671 232 1720.5 259.5 c 128,-1,21
 1770 287 1770 287 1796 340.5 c 128,-1,22
 1822 394 1822 394 1822 471 c 2,23,-1
 1822 1073 l 1,24,-1
 2122 1073 l 1,25,-1
 2122 462 l 2,26,27
 2123 313 2123 313 2058 204.5 c 128,-1,28
 1993 96 1993 96 1875.5 37.5 c 128,-1,29
 1758 -21 1758 -21 1599 -21 c 256,0,1
EndSplineSet
Position2: "'cpsp' Capital Spacing in Latin lookup 0 subtable" dx=0 dy=0 dh=0 dv=0
EndChar

StartChar: I
Encoding: 73 73 197
Width: 552
GlyphClass: 2
Flags: W
AnchorPoint: "Anchor-4" 429 0 basechar 0
AnchorPoint: "Anchor-1" 278 1490 basechar 0
AnchorPoint: "Anchor-0" 276 0 basechar 0
LayerCount: 2
Fore
SplineSet
429 1490 m 1,0,-1
 429 0 l 1,1,-1
 123 0 l 1,2,-1
 123 1490 l 1,3,-1
 429 1490 l 1,0,-1
EndSplineSet
Substitution2: "'c2sc' Capitals to Small Capitals in Latin lookup 68 subtable" i.sc
Substitution2: "'cv08' Character Variants 08 in Latin lookup 62 subtable" I.1
Substitution2: "'ss06' Style Set 6 in Latin lookup 52 subtable" I.squared
Substitution2: "'ss05' Style Set 5 in Latin lookup 51 subtable" uni24BE
Substitution2: "'ss04' Style Set 4 in Latin lookup 50 subtable" I.1
Substitution2: "'ss02' Style Set 2 in Latin lookup 48 subtable" I.1
Substitution2: "'salt' Stylistic Alternatives in Latin lookup 46 subtable" I.1
Substitution2: "'aalt' Access All Alternates in Latin lookup 0 subtable" i.sc
Position2: "'cpsp' Capital Spacing in Latin lookup 0 subtable" dx=0 dy=0 dh=0 dv=0
EndChar

StartChar: I.1
Encoding: 57356 57356 235
Width: 890
GlyphClass: 2
Flags: W
AnchorPoint: "Anchor-4" 821 0 basechar 0
AnchorPoint: "Anchor-1" 445 1490 basechar 0
AnchorPoint: "Anchor-0" 445 0 basechar 0
LayerCount: 2
Fore
SplineSet
69 0 m 1,0,-1
 69 251 l 1,1,-1
 291 251 l 1,2,-1
 291 1239 l 1,3,-1
 69 1239 l 1,4,-1
 69 1490 l 1,5,-1
 821 1490 l 1,6,-1
 821 1239 l 1,7,-1
 598 1239 l 1,8,-1
 598 251 l 1,9,-1
 821 251 l 1,10,-1
 821 0 l 1,11,-1
 69 0 l 1,0,-1
EndSplineSet
EndChar

StartChar: J
Encoding: 74 74 267
Width: 1174
GlyphClass: 2
Flags: W
AnchorPoint: "Anchor-1" 901 1490 basechar 0
LayerCount: 2
Fore
SplineSet
557 -21 m 0,0,1
 328 -21 328 -21 196 101 c 128,-1,2
 64 223 64 223 64 449 c 2,3,-1
 64 543 l 1,4,-1
 362 543 l 1,5,-1
 362 446 l 2,6,7
 362 342 362 342 413.5 287.5 c 128,-1,8
 465 233 465 233 555 233 c 0,9,10
 644 233 644 233 696 287.5 c 128,-1,11
 748 342 748 342 748 447 c 2,12,-1
 748 1490 l 1,13,-1
 1053 1490 l 1,14,-1
 1053 447 l 2,15,16
 1053 222 1053 222 920.5 100.5 c 128,-1,17
 788 -21 788 -21 557 -21 c 0,0,1
EndSplineSet
Substitution2: "'ss06' Style Set 6 in Latin lookup 52 subtable" J.squared
Substitution2: "'ss05' Style Set 5 in Latin lookup 51 subtable" uni24BF
Position2: "'cpsp' Capital Spacing in Latin lookup 0 subtable" dx=0 dy=0 dh=0 dv=0
EndChar

StartChar: K
Encoding: 75 75 272
Width: 1439
GlyphClass: 2
Flags: W
AnchorPoint: "Anchor-1" 715 1490 basechar 0
AnchorPoint: "Anchor-0" 715 0 basechar 0
LayerCount: 2
Fore
SplineSet
347 324 m 1,0,-1
 347 654 l 1,1,2
 395 727 395 727 442.5 792.5 c 128,-1,3
 490 858 490 858 542.5 923 c 128,-1,4
 595 988 595 988 654 1062 c 2,5,-1
 1021 1490 l 1,6,-1
 1392 1490 l 1,7,-1
 763 763 l 1,8,-1
 738 768 l 1,9,-1
 347 324 l 1,0,-1
123 0 m 1,10,-1
 123 1490 l 1,11,-1
 429 1490 l 1,12,-1
 429 1081 l 1,13,-1
 427 702 l 1,14,-1
 429 555 l 1,15,-1
 429 0 l 1,16,-1
 123 0 l 1,10,-1
1050 0 m 1,17,-1
 606 675 l 1,18,-1
 794 905 l 1,19,-1
 1408 0 l 1,20,-1
 1050 0 l 1,17,-1
EndSplineSet
Substitution2: "'ss06' Style Set 6 in Latin lookup 52 subtable" K.squared
Substitution2: "'ss05' Style Set 5 in Latin lookup 51 subtable" uni24C0
Position2: "'cpsp' Capital Spacing in Latin lookup 0 subtable" dx=0 dy=0 dh=0 dv=0
EndChar

StartChar: uni04A0
Encoding: 1184 1184 278
Width: 1780
GlyphClass: 2
Flags: W
AnchorPoint: "Anchor-1" 1028 1490 basechar 0
LayerCount: 2
Fore
SplineSet
611 1490 m 1,0,-1
 611 1233 l 1,1,-1
 60 1233 l 1,2,-1
 60 1490 l 1,3,-1
 611 1490 l 1,0,-1
464 0 m 1,4,-1
 464 1490 l 1,5,-1
 771 1490 l 1,6,-1
 771 889 l 1,7,-1
 928 889 l 1,8,-1
 1364 1490 l 1,9,-1
 1723 1490 l 1,10,-1
 1180 766 l 1,11,-1
 1748 0 l 1,12,-1
 1390 0 l 1,13,-1
 930 632 l 1,14,-1
 771 632 l 1,15,-1
 771 0 l 1,16,-1
 464 0 l 1,4,-1
EndSplineSet
Position2: "'cpsp' Capital Spacing in Latin lookup 0 subtable" dx=0 dy=0 dh=0 dv=0
EndChar

StartChar: uni0198
Encoding: 408 408 280
Width: 1461
Flags: W
LayerCount: 2
Fore
SplineSet
123 0 m 1,0,-1
 123 1490 l 1,1,-1
 426 1490 l 1,2,-1
 426 841 l 1,3,-1
 445 841 l 1,4,-1
 944 1370 l 2,5,6
 1019 1447 1019 1447 1103 1481.5 c 128,-1,7
 1187 1516 1187 1516 1277.5 1506.5 c 128,-1,8
 1368 1497 1368 1497 1459 1443 c 1,9,-1
 1361 1228 l 1,10,11
 1300 1259 1300 1259 1255.5 1244 c 128,-1,12
 1211 1229 1211 1229 1160 1176 c 2,13,-1
 802 805 l 1,14,-1
 1418 0 l 1,15,-1
 1053 0 l 1,16,-1
 609 589 l 1,17,-1
 426 393 l 1,18,-1
 426 0 l 1,19,-1
 123 0 l 1,0,-1
EndSplineSet
Position2: "'cpsp' Capital Spacing in Latin lookup 0 subtable" dx=0 dy=0 dh=0 dv=0
EndChar

StartChar: L
Encoding: 76 76 282
Width: 1149
GlyphClass: 2
Flags: W
AnchorPoint: "Anchor-1" 276 1490 basechar 0
AnchorPoint: "Anchor-0" 598 0 basechar 0
LayerCount: 2
Fore
SplineSet
123 0 m 1,0,-1
 123 1490 l 1,1,-1
 429 1490 l 1,2,-1
 429 258 l 1,3,-1
 1089 258 l 1,4,-1
 1089 0 l 1,5,-1
 123 0 l 1,0,-1
EndSplineSet
Substitution2: "'c2sc' Capitals to Small Capitals in Latin lookup 68 subtable" l.sc
Substitution2: "'ss06' Style Set 6 in Latin lookup 52 subtable" L.squared
Substitution2: "'ss05' Style Set 5 in Latin lookup 51 subtable" uni24C1
Substitution2: "'aalt' Access All Alternates in Latin lookup 0 subtable" l.sc
Position2: "'cpsp' Capital Spacing in Latin lookup 0 subtable" dx=0 dy=0 dh=0 dv=0
EndChar

StartChar: M
Encoding: 77 77 293
Width: 1869
GlyphClass: 2
Flags: W
AnchorPoint: "Anchor-1" 935 1490 basechar 0
AnchorPoint: "Anchor-0" 935 0 basechar 0
LayerCount: 2
Fore
SplineSet
123 0 m 1,0,-1
 123 1490 l 1,1,-1
 582 1490 l 1,2,-1
 825 801 l 2,3,4
 840 754 840 754 860.5 681.5 c 128,-1,5
 881 609 881 609 902 527.5 c 128,-1,6
 923 446 923 446 941 371 c 128,-1,7
 959 296 959 296 971 242 c 1,8,-1
 902 242 l 1,9,10
 914 296 914 296 932.5 371 c 128,-1,11
 951 446 951 446 971.5 527 c 128,-1,12
 992 608 992 608 1012 680.5 c 128,-1,13
 1032 753 1032 753 1047 801 c 2,14,-1
 1288 1490 l 1,15,-1
 1746 1490 l 1,16,-1
 1746 0 l 1,17,-1
 1442 0 l 1,18,-1
 1442 706 l 2,19,20
 1442 755 1442 755 1444 826 c 128,-1,21
 1446 897 1446 897 1448 978.5 c 128,-1,22
 1450 1060 1450 1060 1452 1143 c 128,-1,23
 1454 1226 1454 1226 1455 1299 c 1,24,-1
 1484 1299 l 1,25,26
 1462 1219 1462 1219 1438 1133.5 c 128,-1,27
 1414 1048 1414 1048 1391 967 c 128,-1,28
 1368 886 1368 886 1347.5 818.5 c 128,-1,29
 1327 751 1327 751 1311 706 c 2,30,-1
 1063 0 l 1,31,-1
 808 0 l 1,32,-1
 556 706 l 2,33,34
 541 752 541 752 520 818.5 c 128,-1,35
 499 885 499 885 475 965.5 c 128,-1,36
 451 1046 451 1046 426.5 1132 c 128,-1,37
 402 1218 402 1218 379 1299 c 1,38,-1
 413 1299 l 1,39,40
 414 1227 414 1227 416.5 1144.5 c 128,-1,41
 419 1062 419 1062 420.5 980.5 c 128,-1,42
 422 899 422 899 424.5 827 c 128,-1,43
 427 755 427 755 427 706 c 2,44,-1
 427 0 l 1,45,-1
 123 0 l 1,0,-1
EndSplineSet
Substitution2: "'c2sc' Capitals to Small Capitals in Latin lookup 68 subtable" m.sc
Substitution2: "'ss06' Style Set 6 in Latin lookup 52 subtable" M.squared
Substitution2: "'ss05' Style Set 5 in Latin lookup 51 subtable" uni24C2
Substitution2: "'aalt' Access All Alternates in Latin lookup 0 subtable" m.sc
Position2: "'cpsp' Capital Spacing in Latin lookup 0 subtable" dx=0 dy=0 dh=0 dv=0
EndChar

StartChar: N
Encoding: 78 78 301
Width: 1524
GlyphClass: 2
Flags: W
AnchorPoint: "Anchor-1" 763 1490 basechar 0
AnchorPoint: "Anchor-0" 763 0 basechar 0
LayerCount: 2
Fore
SplineSet
123 0 m 1,0,-1
 123 1490 l 1,1,-1
 456 1490 l 1,2,-1
 931 733 l 2,3,4
 960 686 960 686 995 622.5 c 128,-1,5
 1030 559 1030 559 1068.5 483.5 c 128,-1,6
 1107 408 1107 408 1143 326 c 1,7,-1
 1110 286 l 1,8,9
 1104 361 1104 361 1100 452.5 c 128,-1,10
 1096 544 1096 544 1093.5 628 c 128,-1,11
 1091 712 1091 712 1091 764 c 2,12,-1
 1091 1490 l 1,13,-1
 1401 1490 l 1,14,-1
 1401 0 l 1,15,-1
 1067 0 l 1,16,-1
 636 687 l 2,17,18
 600 747 600 747 559.5 818 c 128,-1,19
 519 889 519 889 472 977 c 128,-1,20
 425 1065 425 1065 367 1176 c 1,21,-1
 414 1194 l 1,22,23
 420 1084 420 1084 424.5 986.5 c 128,-1,24
 429 889 429 889 431.5 812 c 128,-1,25
 434 735 434 735 434 688 c 2,26,-1
 434 0 l 1,27,-1
 123 0 l 1,0,-1
EndSplineSet
Substitution2: "'c2sc' Capitals to Small Capitals in Latin lookup 68 subtable" n.sc
Substitution2: "'ss06' Style Set 6 in Latin lookup 52 subtable" N.squared
Substitution2: "'ss05' Style Set 5 in Latin lookup 51 subtable" uni24C3
Substitution2: "'aalt' Access All Alternates in Latin lookup 0 subtable" n.sc
Position2: "'cpsp' Capital Spacing in Latin lookup 0 subtable" dx=0 dy=0 dh=0 dv=0
EndChar

StartChar: Nhook
Encoding: 413 413 311
Width: 1524
GlyphClass: 2
Flags: W
AnchorPoint: "Anchor-1" 763 1490 basechar 0
AnchorPoint: "Anchor-0" 763 0 basechar 0
LayerCount: 2
Fore
SplineSet
-91 -417 m 1,0,-1
 -91 -178 l 1,1,2
 -71 -180 -71 -180 -42.5 -181 c 128,-1,3
 -14 -182 -14 -182 13 -182 c 0,4,5
 75 -182 75 -182 99 -160.5 c 128,-1,6
 123 -139 123 -139 123 -92 c 2,7,-1
 123 124 l 1,8,-1
 429 124 l 1,9,-1
 429 -108 l 2,10,11
 429 -265 429 -265 339 -345.5 c 128,-1,12
 249 -426 249 -426 70 -426 c 0,13,14
 21 -426 21 -426 -20.5 -424 c 128,-1,15
 -62 -422 -62 -422 -91 -417 c 1,0,-1
123 0 m 1,16,-1
 123 1490 l 1,17,-1
 456 1490 l 1,18,-1
 931 733 l 2,19,20
 960 686 960 686 995 622.5 c 128,-1,21
 1030 559 1030 559 1068.5 483.5 c 128,-1,22
 1107 408 1107 408 1143 326 c 1,23,-1
 1110 286 l 1,24,25
 1104 361 1104 361 1100 452.5 c 128,-1,26
 1096 544 1096 544 1093.5 628 c 128,-1,27
 1091 712 1091 712 1091 764 c 2,28,-1
 1091 1490 l 1,29,-1
 1401 1490 l 1,30,-1
 1401 0 l 1,31,-1
 1067 0 l 1,32,-1
 636 687 l 2,33,34
 600 747 600 747 559.5 818 c 128,-1,35
 519 889 519 889 472 977 c 128,-1,36
 425 1065 425 1065 367 1176 c 1,37,-1
 414 1194 l 1,38,39
 420 1084 420 1084 424.5 986.5 c 128,-1,40
 429 889 429 889 431.5 812 c 128,-1,41
 434 735 434 735 434 688 c 2,42,-1
 434 0 l 1,43,-1
 123 0 l 1,16,-1
EndSplineSet
Position2: "'cpsp' Capital Spacing in Latin lookup 0 subtable" dx=0 dy=0 dh=0 dv=0
EndChar

StartChar: Eng
Encoding: 330 330 312
Width: 1524
GlyphClass: 2
Flags: W
AnchorPoint: "Anchor-1" 763 1490 basechar 0
AnchorPoint: "Anchor-0" 763 0 basechar 0
LayerCount: 2
Fore
SplineSet
882 -417 m 1,0,-1
 882 -178 l 1,1,2
 902 -180 902 -180 931 -181 c 128,-1,3
 960 -182 960 -182 986 -182 c 0,4,5
 1048 -182 1048 -182 1072 -160.5 c 128,-1,6
 1096 -139 1096 -139 1096 -92 c 2,7,-1
 1096 124 l 1,8,-1
 1403 124 l 1,9,-1
 1403 -108 l 2,10,11
 1403 -265 1403 -265 1312.5 -345.5 c 128,-1,12
 1222 -426 1222 -426 1043 -426 c 0,13,14
 995 -426 995 -426 953 -424 c 128,-1,15
 911 -422 911 -422 882 -417 c 1,0,-1
123 0 m 1,16,-1
 123 1490 l 1,17,-1
 456 1490 l 1,18,-1
 931 733 l 2,19,20
 960 686 960 686 995 622.5 c 128,-1,21
 1030 559 1030 559 1068.5 483.5 c 128,-1,22
 1107 408 1107 408 1143 326 c 1,23,-1
 1110 286 l 1,24,25
 1104 361 1104 361 1100 452.5 c 128,-1,26
 1096 544 1096 544 1093.5 628 c 128,-1,27
 1091 712 1091 712 1091 764 c 2,28,-1
 1091 1490 l 1,29,-1
 1401 1490 l 1,30,-1
 1401 0 l 1,31,-1
 1067 0 l 1,32,-1
 636 687 l 2,33,34
 600 747 600 747 559.5 818 c 128,-1,35
 519 889 519 889 472 977 c 128,-1,36
 425 1065 425 1065 367 1176 c 1,37,-1
 414 1194 l 1,38,39
 420 1084 420 1084 424.5 986.5 c 128,-1,40
 429 889 429 889 431.5 812 c 128,-1,41
 434 735 434 735 434 688 c 2,42,-1
 434 0 l 1,43,-1
 123 0 l 1,16,-1
EndSplineSet
Position2: "'cpsp' Capital Spacing in Latin lookup 0 subtable" dx=0 dy=0 dh=0 dv=0
EndChar

StartChar: uni0418
Encoding: 1048 1048 313
Width: 1524
GlyphClass: 2
Flags: W
AnchorPoint: "Anchor-1" 751 1490 basechar 0
AnchorPoint: "Anchor-0" 761 0 basechar 0
LayerCount: 2
Fore
SplineSet
1401 0 m 1,0,-1
 1090 0 l 1,1,-1
 1090 688 l 2,2,3
 1090 735 1090 735 1092.5 812 c 128,-1,4
 1095 889 1095 889 1099.5 986.5 c 128,-1,5
 1104 1084 1104 1084 1110 1194 c 1,6,-1
 1156 1176 l 1,7,8
 1099 1065 1099 1065 1052 977 c 128,-1,9
 1005 889 1005 889 965 818 c 128,-1,10
 925 747 925 747 888 687 c 2,11,-1
 457 0 l 1,12,-1
 123 0 l 1,13,-1
 123 1490 l 1,14,-1
 433 1490 l 1,15,-1
 433 764 l 2,16,17
 433 712 433 712 430.5 628 c 128,-1,18
 428 544 428 544 423.5 452.5 c 128,-1,19
 419 361 419 361 414 286 c 1,20,-1
 381 326 l 1,21,22
 418 408 418 408 456 483.5 c 128,-1,23
 494 559 494 559 529.5 622.5 c 128,-1,24
 565 686 565 686 593 733 c 2,25,-1
 1068 1490 l 1,26,-1
 1401 1490 l 1,27,-1
 1401 0 l 1,0,-1
EndSplineSet
Position2: "'cpsp' Capital Spacing in Latin lookup 0 subtable" dx=0 dy=0 dh=0 dv=0
EndChar

StartChar: O
Encoding: 79 79 322
Width: 1554
GlyphClass: 2
Flags: W
AnchorPoint: "Anchor-4" 1476 744 basechar 0
AnchorPoint: "Anchor-1" 778 1490 basechar 0
AnchorPoint: "Anchor-0" 778 0 basechar 0
LayerCount: 2
Fore
SplineSet
778 -22 m 0,0,1
 579 -22 579 -22 420.5 70 c 128,-1,2
 262 162 262 162 170 334 c 128,-1,3
 78 506 78 506 78 744 c 0,4,5
 78 985 78 985 170 1157 c 128,-1,6
 262 1329 262 1329 420.5 1420.5 c 128,-1,7
 579 1512 579 1512 778 1512 c 0,8,9
 976 1512 976 1512 1134.5 1420.5 c 128,-1,10
 1293 1329 1293 1329 1384.5 1157 c 128,-1,11
 1476 985 1476 985 1476 744 c 0,12,13
 1476 505 1476 505 1384.5 333.5 c 128,-1,14
 1293 162 1293 162 1134.5 70 c 128,-1,15
 976 -22 976 -22 778 -22 c 0,0,1
778 249 m 256,16,17
 893 249 893 249 980.5 306.5 c 128,-1,18
 1068 364 1068 364 1117.5 475 c 128,-1,19
 1167 586 1167 586 1167 744 c 0,20,21
 1167 904 1167 904 1117.5 1015 c 128,-1,22
 1068 1126 1068 1126 980.5 1183.5 c 128,-1,23
 893 1241 893 1241 778 1241 c 256,24,25
 663 1241 663 1241 575 1183.5 c 128,-1,26
 487 1126 487 1126 438 1015 c 128,-1,27
 389 904 389 904 389 744 c 0,28,29
 389 586 389 586 438 475.5 c 128,-1,30
 487 365 487 365 575 307 c 128,-1,31
 663 249 663 249 778 249 c 256,16,17
EndSplineSet
Substitution2: "'ss06' Style Set 6 in Latin lookup 52 subtable" O.squared
Substitution2: "'ss05' Style Set 5 in Latin lookup 51 subtable" uni24C4
Substitution2: "Single Substitution lookup 44 subtable" ordmasculine
Substitution2: "'aalt' Access All Alternates in Latin lookup 0 subtable" ordmasculine
Position2: "'cpsp' Capital Spacing in Latin lookup 0 subtable" dx=0 dy=0 dh=0 dv=0
EndChar

StartChar: Ohorn
Encoding: 416 416 326
Width: 1564
GlyphClass: 2
Flags: W
AnchorPoint: "Anchor-4" 1476 744 basechar 0
AnchorPoint: "Anchor-1" 778 1490 basechar 0
AnchorPoint: "Anchor-0" 778 0 basechar 0
LayerCount: 2
Fore
SplineSet
783 1322 m 1,0,-1
 783 1512 l 1,1,2
 833 1512 833 1512 870 1509 c 128,-1,3
 907 1506 907 1506 947 1501.5 c 128,-1,4
 987 1497 987 1497 1043.5 1493.5 c 128,-1,5
 1100 1490 1100 1490 1188 1490 c 0,6,7
 1214 1490 1214 1490 1214 1516 c 2,8,-1
 1214 1714 l 1,9,-1
 1480 1714 l 1,10,-1
 1480 1497 l 2,11,12
 1480 1395 1480 1395 1420 1348.5 c 128,-1,13
 1360 1302 1360 1302 1262 1302 c 0,14,15
 1212 1302 1212 1302 1165 1305 c 128,-1,16
 1118 1308 1118 1308 1064 1312.5 c 128,-1,17
 1010 1317 1010 1317 942.5 1319.5 c 128,-1,18
 875 1322 875 1322 783 1322 c 1,0,-1
778 -22 m 0,19,20
 579 -22 579 -22 420.5 70 c 128,-1,21
 262 162 262 162 170 334 c 128,-1,22
 78 506 78 506 78 744 c 0,23,24
 78 985 78 985 170 1157 c 128,-1,25
 262 1329 262 1329 420.5 1420.5 c 128,-1,26
 579 1512 579 1512 778 1512 c 0,27,28
 976 1512 976 1512 1134.5 1420.5 c 128,-1,29
 1293 1329 1293 1329 1384.5 1157 c 128,-1,30
 1476 985 1476 985 1476 744 c 0,31,32
 1476 505 1476 505 1384.5 333.5 c 128,-1,33
 1293 162 1293 162 1134.5 70 c 128,-1,34
 976 -22 976 -22 778 -22 c 0,19,20
778 249 m 256,35,36
 893 249 893 249 980.5 306.5 c 128,-1,37
 1068 364 1068 364 1117.5 475 c 128,-1,38
 1167 586 1167 586 1167 744 c 0,39,40
 1167 904 1167 904 1117.5 1015 c 128,-1,41
 1068 1126 1068 1126 980.5 1183.5 c 128,-1,42
 893 1241 893 1241 778 1241 c 256,43,44
 663 1241 663 1241 575 1183.5 c 128,-1,45
 487 1126 487 1126 438 1015 c 128,-1,46
 389 904 389 904 389 744 c 0,47,48
 389 586 389 586 438 475.5 c 128,-1,49
 487 365 487 365 575 307 c 128,-1,50
 663 249 663 249 778 249 c 256,35,36
EndSplineSet
Position2: "'cpsp' Capital Spacing in Latin lookup 0 subtable" dx=0 dy=0 dh=0 dv=0
EndChar

StartChar: uni03F4
Encoding: 1012 1012 368
Width: 1554
GlyphClass: 2
Flags: W
AnchorPoint: "Anchor-4" 1476 744 basechar 0
AnchorPoint: "Anchor-1" 778 1490 basechar 0
AnchorPoint: "Anchor-0" 778 0 basechar 0
LayerCount: 2
Fore
SplineSet
1270 845 m 1,0,-1
 1270 645 l 1,1,-1
 305 645 l 1,2,-1
 305 845 l 1,3,-1
 1270 845 l 1,0,-1
778 -22 m 0,4,5
 579 -22 579 -22 420.5 70 c 128,-1,6
 262 162 262 162 170 334 c 128,-1,7
 78 506 78 506 78 744 c 0,8,9
 78 985 78 985 170 1157 c 128,-1,10
 262 1329 262 1329 420.5 1420.5 c 128,-1,11
 579 1512 579 1512 778 1512 c 0,12,13
 976 1512 976 1512 1134.5 1420.5 c 128,-1,14
 1293 1329 1293 1329 1384.5 1157 c 128,-1,15
 1476 985 1476 985 1476 744 c 0,16,17
 1476 505 1476 505 1384.5 333.5 c 128,-1,18
 1293 162 1293 162 1134.5 70 c 128,-1,19
 976 -22 976 -22 778 -22 c 0,4,5
778 249 m 256,20,21
 893 249 893 249 980.5 306.5 c 128,-1,22
 1068 364 1068 364 1117.5 475 c 128,-1,23
 1167 586 1167 586 1167 744 c 0,24,25
 1167 904 1167 904 1117.5 1015 c 128,-1,26
 1068 1126 1068 1126 980.5 1183.5 c 128,-1,27
 893 1241 893 1241 778 1241 c 256,28,29
 663 1241 663 1241 575 1183.5 c 128,-1,30
 487 1126 487 1126 438 1015 c 128,-1,31
 389 904 389 904 389 744 c 0,32,33
 389 586 389 586 438 475.5 c 128,-1,34
 487 365 487 365 575 307 c 128,-1,35
 663 249 663 249 778 249 c 256,20,21
EndSplineSet
Position2: "'cpsp' Capital Spacing in Latin lookup 0 subtable" dx=0 dy=0 dh=0 dv=0
EndChar

StartChar: OE
Encoding: 338 338 375
Width: 2095
GlyphClass: 2
Flags: W
AnchorPoint: "Anchor-4" 2008 0 basechar 0
AnchorPoint: "Anchor-3" 1494 0 basechar 0
AnchorPoint: "Anchor-1" 1491 1490 basechar 0
AnchorPoint: "Anchor-0" 1491 0 basechar 0
LayerCount: 2
Fore
SplineSet
800 0 m 2,0,1
 579 0 579 0 417.5 91.5 c 128,-1,2
 256 183 256 183 167 350 c 128,-1,3
 78 517 78 517 78 745 c 0,4,5
 78 974 78 974 167 1141.5 c 128,-1,6
 256 1309 256 1309 417.5 1399.5 c 128,-1,7
 579 1490 579 1490 798 1490 c 2,8,-1
 1143 1490 l 1,9,-1
 1143 1229 l 1,10,-1
 814 1229 l 2,11,12
 675 1229 675 1229 579.5 1175.5 c 128,-1,13
 484 1122 484 1122 434.5 1014.5 c 128,-1,14
 385 907 385 907 385 745 c 0,15,16
 385 585 385 585 434 477.5 c 128,-1,17
 483 370 483 370 578 315.5 c 128,-1,18
 673 261 673 261 812 261 c 2,19,-1
 1138 261 l 1,20,-1
 1138 0 l 1,21,-1
 800 0 l 2,0,1
974 0 m 1,22,-1
 974 1490 l 1,23,-1
 2006 1490 l 1,24,-1
 2006 1232 l 1,25,-1
 1280 1232 l 1,26,-1
 1280 880 l 1,27,-1
 1952 880 l 1,28,-1
 1952 627 l 1,29,-1
 1280 627 l 1,30,-1
 1280 258 l 1,31,-1
 2008 258 l 1,32,-1
 2008 0 l 1,33,-1
 974 0 l 1,22,-1
EndSplineSet
Substitution2: "'c2sc' Capitals to Small Capitals in Latin lookup 68 subtable" oe.sc
Substitution2: "'aalt' Access All Alternates in Latin lookup 0 subtable" oe.sc
Position2: "'cpsp' Capital Spacing in Latin lookup 0 subtable" dx=0 dy=0 dh=0 dv=0
EndChar

StartChar: P
Encoding: 80 80 376
Width: 1311
GlyphClass: 2
Flags: W
AnchorPoint: "Anchor-1" 646 1490 basechar 0
LayerCount: 2
Fore
SplineSet
123 0 m 1,0,-1
 123 1490 l 1,1,-1
 708 1490 l 2,2,3
 876 1490 876 1490 996.5 1428.5 c 128,-1,4
 1117 1367 1117 1367 1181.5 1255 c 128,-1,5
 1246 1143 1246 1143 1246 994 c 0,6,7
 1246 846 1246 846 1181 735 c 128,-1,8
 1116 624 1116 624 994 561.5 c 128,-1,9
 872 499 872 499 702 499 c 2,10,-1
 309 499 l 1,11,-1
 309 752 l 1,12,-1
 670 752 l 2,13,14
 758 752 758 752 818 782.5 c 128,-1,15
 878 813 878 813 908.5 867.5 c 128,-1,16
 939 922 939 922 939 994 c 0,17,18
 939 1068 939 1068 908.5 1121.5 c 128,-1,19
 878 1175 878 1175 818 1205.5 c 128,-1,20
 758 1236 758 1236 669 1236 c 2,21,-1
 429 1236 l 1,22,-1
 429 0 l 1,23,-1
 123 0 l 1,0,-1
EndSplineSet
Substitution2: "'ss06' Style Set 6 in Latin lookup 52 subtable" P.squared
Substitution2: "'ss05' Style Set 5 in Latin lookup 51 subtable" uni24C5
Position2: "'cpsp' Capital Spacing in Latin lookup 0 subtable" dx=0 dy=0 dh=0 dv=0
EndChar

StartChar: uni048E
Encoding: 1166 1166 379
Width: 1325
GlyphClass: 2
Flags: W
AnchorPoint: "Anchor-1" 652 1490 basechar 0
LayerCount: 2
Fore
SplineSet
755 976 m 1,0,-1
 1116 417 l 1,1,-1
 984 332 l 1,2,-1
 622 891 l 1,3,-1
 755 976 l 1,0,-1
129 0 m 1,4,-1
 129 1490 l 1,5,-1
 714 1490 l 2,6,7
 883 1490 883 1490 1003.5 1428.5 c 128,-1,8
 1124 1367 1124 1367 1188.5 1255 c 128,-1,9
 1253 1143 1253 1143 1253 994 c 0,10,11
 1253 846 1253 846 1188 735 c 128,-1,12
 1123 624 1123 624 1001 561.5 c 128,-1,13
 879 499 879 499 709 499 c 2,14,-1
 315 499 l 1,15,-1
 315 752 l 1,16,-1
 676 752 l 2,17,18
 764 752 764 752 824 782.5 c 128,-1,19
 884 813 884 813 915 867.5 c 128,-1,20
 946 922 946 922 946 994 c 0,21,22
 946 1068 946 1068 915 1121.5 c 128,-1,23
 884 1175 884 1175 824 1205.5 c 128,-1,24
 764 1236 764 1236 676 1236 c 2,25,-1
 436 1236 l 1,26,-1
 436 0 l 1,27,-1
 129 0 l 1,4,-1
EndSplineSet
Position2: "'cpsp' Capital Spacing in Latin lookup 0 subtable" dx=0 dy=0 dh=0 dv=0
EndChar

StartChar: uni01A4
Encoding: 420 420 380
Width: 1699
GlyphClass: 2
Flags: W
AnchorPoint: "Anchor-1" 1034 1490 basechar 0
LayerCount: 2
Fore
SplineSet
42 1049 m 1,0,-1
 42 1160 l 2,1,2
 42 1322 42 1322 131.5 1406 c 128,-1,3
 221 1490 221 1490 401 1490 c 2,4,-1
 512 1490 l 1,5,-1
 512 1236 l 1,6,-1
 438 1236 l 2,7,8
 380 1236 380 1236 352 1210.5 c 128,-1,9
 324 1185 324 1185 324 1132 c 2,10,-1
 324 1049 l 1,11,-1
 42 1049 l 1,0,-1
511 0 m 1,12,-1
 511 1490 l 1,13,-1
 1096 1490 l 2,14,15
 1264 1490 1264 1490 1384.5 1428.5 c 128,-1,16
 1505 1367 1505 1367 1569.5 1255 c 128,-1,17
 1634 1143 1634 1143 1634 994 c 0,18,19
 1634 846 1634 846 1569 735 c 128,-1,20
 1504 624 1504 624 1382 561.5 c 128,-1,21
 1260 499 1260 499 1090 499 c 2,22,-1
 697 499 l 1,23,-1
 697 752 l 1,24,-1
 1058 752 l 2,25,26
 1146 752 1146 752 1206 782.5 c 128,-1,27
 1266 813 1266 813 1296.5 867.5 c 128,-1,28
 1327 922 1327 922 1327 994 c 0,29,30
 1327 1068 1327 1068 1296.5 1121.5 c 128,-1,31
 1266 1175 1266 1175 1206 1205.5 c 128,-1,32
 1146 1236 1146 1236 1057 1236 c 2,33,-1
 817 1236 l 1,34,-1
 817 0 l 1,35,-1
 511 0 l 1,12,-1
EndSplineSet
Position2: "'cpsp' Capital Spacing in Latin lookup 0 subtable" dx=0 dy=0 dh=0 dv=0
EndChar

StartChar: Q
Encoding: 81 81 383
Width: 1561
GlyphClass: 2
Flags: W
AnchorPoint: "Anchor-4" 1476 744 basechar 0
AnchorPoint: "Anchor-1" 778 1490 basechar 0
AnchorPoint: "Anchor-0" 778 0 basechar 0
LayerCount: 2
Fore
SplineSet
670 512 m 1,0,-1
 931 512 l 1,1,-1
 1069 335 l 1,2,-1
 1192 191 l 1,3,-1
 1443 -124 l 1,4,-1
 1161 -124 l 1,5,-1
 992 88 l 1,6,-1
 903 206 l 1,7,-1
 670 512 l 1,0,-1
778 -22 m 0,8,9
 579 -22 579 -22 420.5 70 c 128,-1,10
 262 162 262 162 170 334 c 128,-1,11
 78 506 78 506 78 744 c 0,12,13
 78 985 78 985 170 1157 c 128,-1,14
 262 1329 262 1329 420.5 1420.5 c 128,-1,15
 579 1512 579 1512 778 1512 c 0,16,17
 976 1512 976 1512 1134.5 1420.5 c 128,-1,18
 1293 1329 1293 1329 1384.5 1157 c 128,-1,19
 1476 985 1476 985 1476 744 c 0,20,21
 1476 505 1476 505 1384.5 333.5 c 128,-1,22
 1293 162 1293 162 1134.5 70 c 128,-1,23
 976 -22 976 -22 778 -22 c 0,8,9
778 249 m 256,24,25
 893 249 893 249 980.5 306.5 c 128,-1,26
 1068 364 1068 364 1117.5 475 c 128,-1,27
 1167 586 1167 586 1167 744 c 0,28,29
 1167 904 1167 904 1117.5 1015 c 128,-1,30
 1068 1126 1068 1126 980.5 1183.5 c 128,-1,31
 893 1241 893 1241 778 1241 c 256,32,33
 663 1241 663 1241 575 1183.5 c 128,-1,34
 487 1126 487 1126 438 1015 c 128,-1,35
 389 904 389 904 389 744 c 0,36,37
 389 586 389 586 438 475.5 c 128,-1,38
 487 365 487 365 575 307 c 128,-1,39
 663 249 663 249 778 249 c 256,24,25
EndSplineSet
Substitution2: "'ss06' Style Set 6 in Latin lookup 52 subtable" Q.squared
Substitution2: "'ss05' Style Set 5 in Latin lookup 51 subtable" uni24C6
Position2: "'cpsp' Capital Spacing in Latin lookup 0 subtable" dx=0 dy=0 dh=0 dv=0
EndChar

StartChar: Q_rthook
Encoding: 586 586 384
Width: 1562
GlyphClass: 2
Flags: W
LayerCount: 2
Fore
SplineSet
1439 1490 m 1,0,-1
 1439 0 l 1,1,-1
 1142 0 l 1,2,-1
 1142 220 l 1,3,-1
 1136 220 l 1,4,5
 1079 110 1079 110 968.5 44 c 128,-1,6
 858 -22 858 -22 711 -22 c 0,7,8
 572 -22 572 -22 456.5 35.5 c 128,-1,9
 341 93 341 93 256 196.5 c 128,-1,10
 171 300 171 300 124.5 440.5 c 128,-1,11
 78 581 78 581 78 746 c 256,12,13
 78 911 78 911 125.5 1050.5 c 128,-1,14
 173 1190 173 1190 258 1293.5 c 128,-1,15
 343 1397 343 1397 458.5 1454 c 128,-1,16
 574 1511 574 1511 711 1511 c 0,17,18
 858 1511 858 1511 968.5 1445.5 c 128,-1,19
 1079 1380 1079 1380 1136 1274 c 1,20,-1
 1142 1274 l 1,21,-1
 1142 1490 l 1,22,-1
 1439 1490 l 1,0,-1
765 248 m 0,23,24
 889 248 889 248 973 309.5 c 128,-1,25
 1057 371 1057 371 1100 483 c 128,-1,26
 1143 595 1143 595 1143 746 c 256,27,28
 1143 897 1143 897 1099.5 1009 c 128,-1,29
 1056 1121 1056 1121 972 1182 c 128,-1,30
 888 1243 888 1243 766 1243 c 0,31,32
 649 1243 649 1243 564 1182 c 128,-1,33
 479 1121 479 1121 433.5 1009.5 c 128,-1,34
 388 898 388 898 388 746 c 0,35,36
 388 591 388 591 434 479.5 c 128,-1,37
 480 368 480 368 564.5 308 c 128,-1,38
 649 248 649 248 765 248 c 0,23,24
1497 -426 m 0,39,40
 1320 -426 1320 -426 1231 -345.5 c 128,-1,41
 1142 -265 1142 -265 1142 -108 c 2,42,-1
 1142 0 l 1,43,-1
 1439 0 l 1,44,-1
 1439 -102 l 2,45,46
 1439 -151 1439 -151 1465.5 -172.5 c 128,-1,47
 1492 -194 1492 -194 1552 -194 c 0,48,49
 1579 -194 1579 -194 1608 -193 c 128,-1,50
 1637 -192 1637 -192 1657 -191 c 1,51,-1
 1657 -417 l 1,52,53
 1628 -422 1628 -422 1587.5 -424 c 128,-1,54
 1547 -426 1547 -426 1497 -426 c 0,39,40
EndSplineSet
Position2: "'cpsp' Capital Spacing in Latin lookup 0 subtable" dx=0 dy=0 dh=0 dv=0
EndChar

StartChar: R
Encoding: 82 82 385
Width: 1339
GlyphClass: 2
Flags: W
AnchorPoint: "Anchor-1" 664 1490 basechar 0
AnchorPoint: "Anchor-0" 680 0 basechar 0
LayerCount: 2
Fore
SplineSet
123 0 m 1,0,-1
 123 1490 l 1,1,-1
 712 1490 l 2,2,3
 881 1490 881 1490 1002 1430.5 c 128,-1,4
 1123 1371 1123 1371 1187.5 1261.5 c 128,-1,5
 1252 1152 1252 1152 1252 1003 c 0,6,7
 1252 856 1252 856 1185 749 c 128,-1,8
 1118 642 1118 642 994.5 584.5 c 128,-1,9
 871 527 871 527 699 527 c 2,10,-1
 305 527 l 1,11,-1
 305 774 l 1,12,-1
 675 774 l 2,13,14
 762 774 762 774 821.5 801 c 128,-1,15
 881 828 881 828 912 879.5 c 128,-1,16
 943 931 943 931 943 1003 c 0,17,18
 943 1077 943 1077 912.5 1129 c 128,-1,19
 882 1181 882 1181 822 1209 c 128,-1,20
 762 1237 762 1237 675 1237 c 2,21,-1
 429 1237 l 1,22,-1
 429 0 l 1,23,-1
 123 0 l 1,0,-1
960 0 m 1,24,-1
 609 676 l 1,25,-1
 936 676 l 1,26,-1
 1295 0 l 1,27,-1
 960 0 l 1,24,-1
EndSplineSet
Substitution2: "'c2sc' Capitals to Small Capitals in Latin lookup 68 subtable" r.sc
Substitution2: "'ss06' Style Set 6 in Latin lookup 52 subtable" R.squared
Substitution2: "'ss05' Style Set 5 in Latin lookup 51 subtable" uni24C7
Substitution2: "'aalt' Access All Alternates in Latin lookup 0 subtable" r.sc
Position2: "'cpsp' Capital Spacing in Latin lookup 0 subtable" dx=0 dy=0 dh=0 dv=0
EndChar

StartChar: uni211F
Encoding: 8479 8479 395
Width: 1329
GlyphClass: 2
Flags: W
AnchorPoint: "Anchor-1" 668 1490 basechar 0
AnchorPoint: "Anchor-0" 684 0 basechar 0
LayerCount: 2
Fore
SplineSet
948 1697 m 1,0,-1
 489 -365 l 1,1,-1
 371 -347 l 1,2,-1
 815 1620 l 1,3,-1
 495 1698 l 1,4,-1
 529 1806 l 1,5,-1
 948 1697 l 1,0,-1
127 0 m 1,6,-1
 127 1490 l 1,7,-1
 717 1490 l 2,8,9
 885 1490 885 1490 1006 1430.5 c 128,-1,10
 1127 1371 1127 1371 1191.5 1261.5 c 128,-1,11
 1256 1152 1256 1152 1256 1003 c 0,12,13
 1256 856 1256 856 1189 749 c 128,-1,14
 1122 642 1122 642 999 584.5 c 128,-1,15
 876 527 876 527 704 527 c 2,16,-1
 310 527 l 1,17,-1
 310 774 l 1,18,-1
 680 774 l 2,19,20
 767 774 767 774 826.5 801 c 128,-1,21
 886 828 886 828 916.5 879.5 c 128,-1,22
 947 931 947 931 947 1003 c 0,23,24
 947 1077 947 1077 916.5 1129 c 128,-1,25
 886 1181 886 1181 826 1209 c 128,-1,26
 766 1237 766 1237 679 1237 c 2,27,-1
 434 1237 l 1,28,-1
 434 0 l 1,29,-1
 127 0 l 1,6,-1
964 0 m 1,30,-1
 613 676 l 1,31,-1
 940 676 l 1,32,-1
 1299 0 l 1,33,-1
 964 0 l 1,30,-1
EndSplineSet
EndChar

StartChar: Rx
Encoding: 8478 8478 396
Width: 1533
Flags: W
LayerCount: 2
Fore
SplineSet
123 1490 m 1,0,-1
 691 1490 l 2,1,2
 872 1490 872 1490 992 1433 c 128,-1,3
 1112 1376 1112 1376 1172 1272 c 128,-1,4
 1232 1168 1232 1168 1232 1027 c 0,5,6
 1232 908 1232 908 1189 820 c 128,-1,7
 1146 732 1146 732 1072 673 c 128,-1,8
 998 614 998 614 901 582 c 1,9,-1
 835 555 l 1,10,-1
 321 555 l 1,11,-1
 320 806 l 1,12,-1
 686 806 l 2,13,14
 768 806 768 806 822.5 830.5 c 128,-1,15
 877 855 877 855 904.5 903 c 128,-1,16
 932 951 932 951 932 1021 c 0,17,18
 932 1086 932 1086 906 1135 c 128,-1,19
 880 1184 880 1184 827 1212 c 128,-1,20
 774 1240 774 1240 691 1240 c 2,21,-1
 426 1240 l 1,22,-1
 426 0 l 1,23,-1
 123 0 l 1,24,-1
 123 1490 l 1,0,-1
1183 0 m 1,25,-1
 699 672 l 1,26,-1
 960 672 l 1,27,-1
 1452 0 l 1,28,-1
 1183 0 l 1,25,-1
934 0 m 1,29,-1
 714 0 l 1,30,-1
 1204 672 l 1,31,-1
 1417 672 l 1,32,-1
 934 0 l 1,29,-1
EndSplineSet
EndChar

StartChar: uni024C
Encoding: 588 588 397
Width: 1354
GlyphClass: 2
Flags: W
AnchorPoint: "Anchor-1" 696 1490 basechar 0
AnchorPoint: "Anchor-0" 712 0 basechar 0
LayerCount: 2
Fore
SplineSet
333 552 m 1,0,-1
 6 552 l 1,1,-1
 6 781 l 1,2,-1
 333 781 l 1,3,-1
 333 552 l 1,0,-1
155 0 m 1,4,-1
 155 1490 l 1,5,-1
 744 1490 l 2,6,7
 913 1490 913 1490 1034 1430.5 c 128,-1,8
 1155 1371 1155 1371 1219.5 1261.5 c 128,-1,9
 1284 1152 1284 1152 1284 1003 c 0,10,11
 1284 856 1284 856 1217 749 c 128,-1,12
 1150 642 1150 642 1026.5 584.5 c 128,-1,13
 903 527 903 527 731 527 c 2,14,-1
 337 527 l 1,15,-1
 337 774 l 1,16,-1
 707 774 l 2,17,18
 794 774 794 774 853.5 801 c 128,-1,19
 913 828 913 828 944 879.5 c 128,-1,20
 975 931 975 931 975 1003 c 0,21,22
 975 1077 975 1077 944.5 1129 c 128,-1,23
 914 1181 914 1181 854 1209 c 128,-1,24
 794 1237 794 1237 707 1237 c 2,25,-1
 461 1237 l 1,26,-1
 461 0 l 1,27,-1
 155 0 l 1,4,-1
992 0 m 1,28,-1
 641 676 l 1,29,-1
 968 676 l 1,30,-1
 1327 0 l 1,31,-1
 992 0 l 1,28,-1
EndSplineSet
Position2: "'cpsp' Capital Spacing in Latin lookup 0 subtable" dx=0 dy=0 dh=0 dv=0
EndChar

StartChar: S
Encoding: 83 83 398
Width: 1339
GlyphClass: 2
Flags: W
AnchorPoint: "Anchor-3" 672 0 basechar 0
AnchorPoint: "Anchor-1" 669 1490 basechar 0
AnchorPoint: "Anchor-0" 674 0 basechar 0
LayerCount: 2
Fore
SplineSet
679 -23 m 0,0,1
 493 -23 493 -23 359.5 35 c 128,-1,2
 226 93 226 93 153 204.5 c 128,-1,3
 80 316 80 316 78 475 c 1,4,-1
 375 475 l 1,5,6
 379 397 379 397 417 342.5 c 128,-1,7
 455 288 455 288 522.5 260 c 128,-1,8
 590 232 590 232 678 232 c 0,9,10
 762 232 762 232 824 256 c 128,-1,11
 886 280 886 280 921 323 c 128,-1,12
 956 366 956 366 956 423 c 0,13,14
 956 473 956 473 927 508 c 128,-1,15
 898 543 898 543 840 568.5 c 128,-1,16
 782 594 782 594 694 614 c 2,17,-1
 533 652 l 2,18,19
 328 699 328 699 220 800 c 128,-1,20
 112 901 112 901 112 1062 c 0,21,22
 112 1196 112 1196 184 1297.5 c 128,-1,23
 256 1399 256 1399 383 1455.5 c 128,-1,24
 510 1512 510 1512 675 1512 c 0,25,26
 843 1512 843 1512 967.5 1455 c 128,-1,27
 1092 1398 1092 1398 1161 1293.5 c 128,-1,28
 1230 1189 1230 1189 1233 1049 c 1,29,-1
 941 1049 l 1,30,31
 934 1148 934 1148 863 1203 c 128,-1,32
 792 1258 792 1258 675 1258 c 0,33,34
 598 1258 598 1258 541 1234.5 c 128,-1,35
 484 1211 484 1211 453.5 1171 c 128,-1,36
 423 1131 423 1131 423 1079 c 0,37,38
 423 1028 423 1028 452.5 993 c 128,-1,39
 482 958 482 958 538 934.5 c 128,-1,40
 594 911 594 911 670 893 c 2,41,-1
 809 861 l 2,42,43
 916 838 916 838 1000 801 c 128,-1,44
 1084 764 1084 764 1142.5 712 c 128,-1,45
 1201 660 1201 660 1231 590.5 c 128,-1,46
 1261 521 1261 521 1261 432 c 0,47,48
 1261 293 1261 293 1191.5 191 c 128,-1,49
 1122 89 1122 89 991.5 33 c 128,-1,50
 861 -23 861 -23 679 -23 c 0,0,1
EndSplineSet
Substitution2: "'ss06' Style Set 6 in Latin lookup 52 subtable" S.squared
Substitution2: "'ss05' Style Set 5 in Latin lookup 51 subtable" uni24C8
Position2: "'cpsp' Capital Spacing in Latin lookup 0 subtable" dx=0 dy=0 dh=0 dv=0
EndChar

StartChar: uni01A7
Encoding: 423 423 410
Width: 1339
GlyphClass: 2
Flags: W
AnchorPoint: "Anchor-3" 668 0 basechar 0
AnchorPoint: "Anchor-1" 670 1490 basechar 0
AnchorPoint: "Anchor-0" 666 0 basechar 0
LayerCount: 2
Fore
SplineSet
661 -23 m 0,0,1
 479 -23 479 -23 348 33 c 128,-1,2
 217 89 217 89 147.5 191 c 128,-1,3
 78 293 78 293 78 432 c 0,4,5
 78 521 78 521 108.5 590.5 c 128,-1,6
 139 660 139 660 197 712 c 128,-1,7
 255 764 255 764 339.5 801 c 128,-1,8
 424 838 424 838 530 861 c 2,9,-1
 669 893 l 2,10,11
 747 911 747 911 802.5 934.5 c 128,-1,12
 858 958 858 958 887.5 993 c 128,-1,13
 917 1028 917 1028 917 1079 c 0,14,15
 917 1131 917 1131 885.5 1171 c 128,-1,16
 854 1211 854 1211 798 1234.5 c 128,-1,17
 742 1258 742 1258 664 1258 c 0,18,19
 548 1258 548 1258 477 1203 c 128,-1,20
 406 1148 406 1148 397 1049 c 1,21,-1
 106 1049 l 1,22,23
 110 1189 110 1189 179 1293.5 c 128,-1,24
 248 1398 248 1398 371.5 1455 c 128,-1,25
 495 1512 495 1512 664 1512 c 0,26,27
 829 1512 829 1512 956.5 1455.5 c 128,-1,28
 1084 1399 1084 1399 1155.5 1297.5 c 128,-1,29
 1227 1196 1227 1196 1227 1062 c 0,30,31
 1227 901 1227 901 1119 800 c 128,-1,32
 1011 699 1011 699 806 652 c 2,33,-1
 646 614 l 2,34,35
 559 594 559 594 500 568.5 c 128,-1,36
 441 543 441 543 412.5 508 c 128,-1,37
 384 473 384 473 384 423 c 0,38,39
 384 366 384 366 419 323 c 128,-1,40
 454 280 454 280 516 256 c 128,-1,41
 578 232 578 232 662 232 c 0,42,43
 751 232 751 232 817.5 260 c 128,-1,44
 884 288 884 288 922.5 342.5 c 128,-1,45
 961 397 961 397 965 475 c 1,46,-1
 1261 475 l 1,47,48
 1259 316 1259 316 1186.5 204.5 c 128,-1,49
 1114 93 1114 93 980.5 35 c 128,-1,50
 847 -23 847 -23 661 -23 c 0,0,1
EndSplineSet
Position2: "'cpsp' Capital Spacing in Latin lookup 0 subtable" dx=0 dy=0 dh=0 dv=0
EndChar

StartChar: uni1E9E
Encoding: 7838 7838 411
Width: 1445
Flags: W
LayerCount: 2
Fore
SplineSet
123 0 m 1,0,-1
 123 982 l 2,1,2
 123 1150 123 1150 186 1268.5 c 128,-1,3
 249 1387 249 1387 368 1449 c 128,-1,4
 487 1511 487 1511 656 1511 c 0,5,6
 769 1511 769 1511 879.5 1478.5 c 128,-1,7
 990 1446 990 1446 1092.5 1388.5 c 128,-1,8
 1195 1331 1195 1331 1283 1255 c 1,9,-1
 951 863 l 1,10,11
 1079 847 1079 847 1172 788.5 c 128,-1,12
 1265 730 1265 730 1316 638 c 128,-1,13
 1367 546 1367 546 1367 431 c 0,14,15
 1367 292 1367 292 1299.5 191.5 c 128,-1,16
 1232 91 1232 91 1113 35.5 c 128,-1,17
 994 -20 994 -20 840 -20 c 0,18,19
 759 -20 759 -20 672 -4 c 128,-1,20
 585 12 585 12 515 40 c 1,21,-1
 599 268 l 1,22,23
 648 248 648 248 705.5 234.5 c 128,-1,24
 763 221 763 221 820 221 c 0,25,26
 938 221 938 221 1003.5 277 c 128,-1,27
 1069 333 1069 333 1069 433 c 0,28,29
 1069 506 1069 506 1041 553 c 128,-1,30
 1013 600 1013 600 969 626.5 c 128,-1,31
 925 653 925 653 875 663 c 128,-1,32
 825 673 825 673 781 673 c 2,33,-1
 644 673 l 1,34,-1
 644 859 l 1,35,-1
 916 1184 l 1,36,37
 872 1217 872 1217 806.5 1242.5 c 128,-1,38
 741 1268 741 1268 660 1268 c 0,39,40
 573 1268 573 1268 521.5 1230.5 c 128,-1,41
 470 1193 470 1193 448 1128 c 128,-1,42
 426 1063 426 1063 426 978 c 2,43,-1
 426 0 l 1,44,-1
 123 0 l 1,0,-1
EndSplineSet
Position2: "'cpsp' Capital Spacing in Latin lookup 0 subtable" dx=0 dy=0 dh=0 dv=0
EndChar

StartChar: T
Encoding: 84 84 412
Width: 1334
GlyphClass: 2
Flags: W
AnchorPoint: "Anchor-3" 669 0 basechar 0
AnchorPoint: "Anchor-1" 668 1490 basechar 0
AnchorPoint: "Anchor-0" 667 0 basechar 0
LayerCount: 2
Fore
SplineSet
60 1232 m 1,0,-1
 60 1490 l 1,1,-1
 1274 1490 l 1,2,-1
 1274 1232 l 1,3,-1
 821 1232 l 1,4,-1
 821 0 l 1,5,-1
 515 0 l 1,6,-1
 515 1232 l 1,7,-1
 60 1232 l 1,0,-1
EndSplineSet
Substitution2: "'c2sc' Capitals to Small Capitals in Latin lookup 68 subtable" t.sc
Substitution2: "'ss06' Style Set 6 in Latin lookup 52 subtable" T.squared
Substitution2: "'ss05' Style Set 5 in Latin lookup 51 subtable" uni24C9
Substitution2: "'aalt' Access All Alternates in Latin lookup 0 subtable" t.sc
Position2: "'cpsp' Capital Spacing in Latin lookup 0 subtable" dx=0 dy=0 dh=0 dv=0
EndChar

StartChar: uni01AC
Encoding: 428 428 420
Width: 1445
GlyphClass: 2
Flags: W
AnchorPoint: "Anchor-1" 775 1490 basechar 0
LayerCount: 2
Fore
SplineSet
94 1049 m 1,0,-1
 94 1160 l 2,1,2
 94 1322 94 1322 183.5 1406 c 128,-1,3
 273 1490 273 1490 453 1490 c 2,4,-1
 564 1490 l 1,5,-1
 564 1236 l 1,6,-1
 490 1236 l 2,7,8
 432 1236 432 1236 404 1210.5 c 128,-1,9
 376 1185 376 1185 376 1132 c 2,10,-1
 376 1049 l 1,11,-1
 94 1049 l 1,0,-1
564 1233 m 1,12,-1
 564 1490 l 1,13,-1
 1385 1490 l 1,14,-1
 1385 1233 l 1,15,-1
 928 1233 l 1,16,-1
 928 0 l 1,17,-1
 622 0 l 1,18,-1
 622 1233 l 1,19,-1
 564 1233 l 1,12,-1
EndSplineSet
Position2: "'cpsp' Capital Spacing in Latin lookup 0 subtable" dx=0 dy=0 dh=0 dv=0
EndChar

StartChar: uni01AC.base
Encoding: 60940 60940 421
Width: 1343
GlyphClass: 2
Flags: W
AnchorPoint: "Anchor-1" 673 1490 basechar 0
LayerCount: 2
Fore
SplineSet
463 1233 m 1,0,-1
 463 1490 l 1,1,-1
 1283 1490 l 1,2,-1
 1283 1233 l 1,3,-1
 827 1233 l 1,4,-1
 827 0 l 1,5,-1
 520 0 l 1,6,-1
 520 1233 l 1,7,-1
 463 1233 l 1,0,-1
EndSplineSet
EndChar

StartChar: Trthook
Encoding: 430 430 422
Width: 1334
GlyphClass: 2
Flags: W
AnchorPoint: "Anchor-3" 669 0 basechar 0
AnchorPoint: "Anchor-1" 668 1490 basechar 0
AnchorPoint: "Anchor-0" 667 0 basechar 0
LayerCount: 2
Fore
SplineSet
870 -426 m 0,0,1
 692 -426 692 -426 603.5 -345.5 c 128,-1,2
 515 -265 515 -265 515 -108 c 2,3,-1
 515 188 l 1,4,-1
 821 188 l 1,5,-1
 821 -98 l 2,6,7
 821 -146 821 -146 847 -167.5 c 128,-1,8
 873 -189 873 -189 934 -189 c 0,9,10
 960 -189 960 -189 989 -188 c 128,-1,11
 1018 -187 1018 -187 1038 -185 c 1,12,-1
 1038 -417 l 1,13,14
 1009 -422 1009 -422 964.5 -424 c 128,-1,15
 920 -426 920 -426 870 -426 c 0,0,1
60 1232 m 1,16,-1
 60 1490 l 1,17,-1
 1274 1490 l 1,18,-1
 1274 1232 l 1,19,-1
 821 1232 l 1,20,-1
 821 0 l 1,21,-1
 515 0 l 1,22,-1
 515 1232 l 1,23,-1
 60 1232 l 1,16,-1
EndSplineSet
Position2: "'cpsp' Capital Spacing in Latin lookup 0 subtable" dx=0 dy=0 dh=0 dv=0
EndChar

StartChar: uni023E
Encoding: 574 574 423
Width: 1334
GlyphClass: 2
Flags: W
AnchorPoint: "Anchor-3" 669 0 basechar 0
AnchorPoint: "Anchor-1" 668 1490 basechar 0
AnchorPoint: "Anchor-0" 667 0 basechar 0
LayerCount: 2
Fore
SplineSet
201 -209 m 1,0,-1
 983 1699 l 1,1,-1
 1139 1699 l 1,2,-1
 356 -209 l 1,3,-1
 201 -209 l 1,0,-1
60 1232 m 1,4,-1
 60 1490 l 1,5,-1
 1274 1490 l 1,6,-1
 1274 1232 l 1,7,-1
 821 1232 l 1,8,-1
 821 0 l 1,9,-1
 515 0 l 1,10,-1
 515 1232 l 1,11,-1
 60 1232 l 1,4,-1
EndSplineSet
Position2: "'cpsp' Capital Spacing in Latin lookup 0 subtable" dx=0 dy=0 dh=0 dv=0
EndChar

StartChar: U
Encoding: 85 85 425
Width: 1471
GlyphClass: 2
Flags: W
AnchorPoint: "Anchor-4" 1350 522 basechar 0
AnchorPoint: "Anchor-1" 736 1490 basechar 0
AnchorPoint: "Anchor-0" 736 0 basechar 0
LayerCount: 2
Fore
SplineSet
736 -22 m 0,0,1
 550 -22 550 -22 412 46.5 c 128,-1,2
 274 115 274 115 197.5 237.5 c 128,-1,3
 121 360 121 360 121 522 c 2,4,-1
 121 1490 l 1,5,-1
 424 1490 l 1,6,-1
 424 546 l 2,7,8
 424 459 424 459 463.5 391.5 c 128,-1,9
 503 324 503 324 572 285 c 128,-1,10
 641 246 641 246 736 246 c 0,11,12
 830 246 830 246 900 285 c 128,-1,13
 970 324 970 324 1008 391 c 128,-1,14
 1046 458 1046 458 1046 546 c 2,15,-1
 1046 1490 l 1,16,-1
 1350 1490 l 1,17,-1
 1350 522 l 2,18,19
 1350 360 1350 360 1273.5 237.5 c 128,-1,20
 1197 115 1197 115 1058.5 46.5 c 128,-1,21
 920 -22 920 -22 736 -22 c 0,0,1
EndSplineSet
Substitution2: "'ss06' Style Set 6 in Latin lookup 52 subtable" U.squared
Substitution2: "'ss05' Style Set 5 in Latin lookup 51 subtable" uni24CA
Position2: "'cpsp' Capital Spacing in Latin lookup 0 subtable" dx=0 dy=0 dh=0 dv=0
EndChar

StartChar: Uhorn
Encoding: 431 431 426
Width: 1469
GlyphClass: 2
Flags: W
AnchorPoint: "Anchor-4" 1350 522 basechar 0
AnchorPoint: "Anchor-1" 736 1490 basechar 0
AnchorPoint: "Anchor-0" 736 0 basechar 0
LayerCount: 2
Fore
SplineSet
1047 1297 m 1,0,-1
 1047 1490 l 1,1,-1
 1229 1490 l 2,2,3
 1254 1490 1254 1490 1254 1516 c 2,4,-1
 1254 1714 l 1,5,-1
 1520 1714 l 1,6,-1
 1520 1497 l 2,7,8
 1520 1395 1520 1395 1460.5 1346 c 128,-1,9
 1401 1297 1401 1297 1303 1297 c 2,10,-1
 1047 1297 l 1,0,-1
736 -22 m 0,11,12
 550 -22 550 -22 412 46.5 c 128,-1,13
 274 115 274 115 197.5 237.5 c 128,-1,14
 121 360 121 360 121 522 c 2,15,-1
 121 1490 l 1,16,-1
 424 1490 l 1,17,-1
 424 546 l 2,18,19
 424 459 424 459 463.5 391.5 c 128,-1,20
 503 324 503 324 572 285 c 128,-1,21
 641 246 641 246 736 246 c 0,22,23
 830 246 830 246 900 285 c 128,-1,24
 970 324 970 324 1008 391 c 128,-1,25
 1046 458 1046 458 1046 546 c 2,26,-1
 1046 1490 l 1,27,-1
 1350 1490 l 1,28,-1
 1350 522 l 2,29,30
 1350 360 1350 360 1273.5 237.5 c 128,-1,31
 1197 115 1197 115 1058.5 46.5 c 128,-1,32
 920 -22 920 -22 736 -22 c 0,11,12
EndSplineSet
Position2: "'cpsp' Capital Spacing in Latin lookup 0 subtable" dx=0 dy=0 dh=0 dv=0
EndChar

StartChar: uni0244
Encoding: 580 580 456
Width: 1529
GlyphClass: 2
Flags: W
AnchorPoint: "Anchor-4" 1383 522 basechar 0
AnchorPoint: "Anchor-1" 770 1490 basechar 0
AnchorPoint: "Anchor-0" 770 0 basechar 0
LayerCount: 2
Fore
SplineSet
1550 848 m 1,0,-1
 1550 674 l 1,1,-1
 -21 674 l 1,2,-1
 -21 848 l 1,3,-1
 1550 848 l 1,0,-1
770 -22 m 0,4,5
 584 -22 584 -22 445.5 46.5 c 128,-1,6
 307 115 307 115 231 237.5 c 128,-1,7
 155 360 155 360 155 522 c 2,8,-1
 155 1490 l 1,9,-1
 458 1490 l 1,10,-1
 458 546 l 2,11,12
 458 459 458 459 497 391.5 c 128,-1,13
 536 324 536 324 605.5 285 c 128,-1,14
 675 246 675 246 770 246 c 0,15,16
 863 246 863 246 933 285 c 128,-1,17
 1003 324 1003 324 1041.5 391 c 128,-1,18
 1080 458 1080 458 1080 546 c 2,19,-1
 1080 1490 l 1,20,-1
 1383 1490 l 1,21,-1
 1383 522 l 2,22,23
 1383 360 1383 360 1306.5 237.5 c 128,-1,24
 1230 115 1230 115 1092 46.5 c 128,-1,25
 954 -22 954 -22 770 -22 c 0,4,5
EndSplineSet
Position2: "'cpsp' Capital Spacing in Latin lookup 0 subtable" dx=0 dy=0 dh=0 dv=0
EndChar

StartChar: V
Encoding: 86 86 457
Width: 1488
GlyphClass: 2
Flags: W
AnchorPoint: "Anchor-1" 744 1490 basechar 0
AnchorPoint: "Anchor-0" 744 0 basechar 0
LayerCount: 2
Fore
SplineSet
552 0 m 1,0,-1
 29 1490 l 1,1,-1
 366 1490 l 1,2,-1
 607 768 l 2,3,4
 648 633 648 633 693.5 472 c 128,-1,5
 739 311 739 311 792 120 c 1,6,-1
 714 120 l 1,7,8
 765 313 765 313 808.5 473 c 128,-1,9
 852 633 852 633 892 768 c 2,10,-1
 1125 1490 l 1,11,-1
 1459 1490 l 1,12,-1
 948 0 l 1,13,-1
 552 0 l 1,0,-1
EndSplineSet
Substitution2: "'ss06' Style Set 6 in Latin lookup 52 subtable" V.squared
Substitution2: "'ss05' Style Set 5 in Latin lookup 51 subtable" uni24CB
Position2: "'cpsp' Capital Spacing in Latin lookup 0 subtable" dx=0 dy=0 dh=0 dv=0
EndChar

StartChar: W
Encoding: 87 87 460
Width: 2083
GlyphClass: 2
Flags: W
AnchorPoint: "Anchor-1" 1042 1490 basechar 0
AnchorPoint: "Anchor-0" 1042 0 basechar 0
LayerCount: 2
Fore
SplineSet
429 0 m 1,0,-1
 29 1490 l 1,1,-1
 360 1490 l 1,2,-1
 534 754 l 2,3,4
 555 662 555 662 573.5 563.5 c 128,-1,5
 592 465 592 465 609 366.5 c 128,-1,6
 626 268 626 268 642 173 c 1,7,-1
 585 173 l 1,8,9
 603 268 603 268 621 366.5 c 128,-1,10
 639 465 639 465 658.5 563.5 c 128,-1,11
 678 662 678 662 700 754 c 2,12,-1
 884 1490 l 1,13,-1
 1200 1490 l 1,14,-1
 1382 754 l 2,15,16
 1405 662 1405 662 1424.5 563.5 c 128,-1,17
 1444 465 1444 465 1463 366.5 c 128,-1,18
 1482 268 1482 268 1500 173 c 1,19,-1
 1440 173 l 1,20,21
 1457 268 1457 268 1474.5 366.5 c 128,-1,22
 1492 465 1492 465 1510.5 563.5 c 128,-1,23
 1529 662 1529 662 1549 754 c 2,24,-1
 1723 1490 l 1,25,-1
 2054 1490 l 1,26,-1
 1653 0 l 1,27,-1
 1308 0 l 1,28,-1
 1103 788 l 2,29,30
 1075 896 1075 896 1053 1024.5 c 128,-1,31
 1031 1153 1031 1153 1001 1300 c 1,32,-1
 1081 1300 l 1,33,34
 1051 1155 1051 1155 1030 1027 c 128,-1,35
 1009 899 1009 899 981 788 c 2,36,-1
 776 0 l 1,37,-1
 429 0 l 1,0,-1
EndSplineSet
Substitution2: "'ss06' Style Set 6 in Latin lookup 52 subtable" W.squared
Substitution2: "'ss05' Style Set 5 in Latin lookup 51 subtable" uni24CC
Position2: "'cpsp' Capital Spacing in Latin lookup 0 subtable" dx=0 dy=0 dh=0 dv=0
EndChar

StartChar: X
Encoding: 88 88 467
Width: 1471
GlyphClass: 2
Flags: W
AnchorPoint: "Anchor-1" 735 1490 basechar 0
AnchorPoint: "Anchor-0" 735 -2 basechar 0
LayerCount: 2
Fore
SplineSet
31 0 m 1,0,-1
 646 874 l 1,1,-1
 646 644 l 1,2,-1
 79 1490 l 1,3,-1
 431 1490 l 1,4,-1
 595 1238 l 2,5,6
 634 1179 634 1179 664 1126 c 128,-1,7
 694 1073 694 1073 721.5 1022 c 128,-1,8
 749 971 749 971 778 918 c 1,9,-1
 698 918 l 1,10,11
 729 972 729 972 757 1022.5 c 128,-1,12
 785 1073 785 1073 815.5 1126 c 128,-1,13
 846 1179 846 1179 885 1238 c 2,14,-1
 1052 1490 l 1,15,-1
 1395 1490 l 1,16,-1
 839 662 l 1,17,-1
 839 880 l 1,18,-1
 1439 0 l 1,19,-1
 1081 0 l 1,20,-1
 872 314 l 2,21,22
 837 366 837 366 811 409 c 128,-1,23
 785 452 785 452 761.5 492 c 128,-1,24
 738 532 738 532 712 577 c 1,25,-1
 759 577 l 1,26,27
 733 532 733 532 709 491.5 c 128,-1,28
 685 451 685 451 658.5 408.5 c 128,-1,29
 632 366 632 366 596 314 c 2,30,-1
 382 0 l 1,31,-1
 31 0 l 1,0,-1
EndSplineSet
Substitution2: "'ss06' Style Set 6 in Latin lookup 52 subtable" X.squared
Substitution2: "'ss05' Style Set 5 in Latin lookup 51 subtable" uni24CD
Position2: "'cpsp' Capital Spacing in Latin lookup 0 subtable" dx=0 dy=0 dh=0 dv=0
EndChar

StartChar: Y
Encoding: 89 89 473
Width: 1455
GlyphClass: 2
Flags: W
AnchorPoint: "Anchor-4" 883 0 basechar 0
AnchorPoint: "Anchor-1" 728 1490 basechar 0
AnchorPoint: "Anchor-0" 731 0 basechar 0
LayerCount: 2
Fore
SplineSet
581 0 m 1,0,-1
 581 559 l 1,1,-1
 29 1490 l 1,2,-1
 384 1490 l 1,3,-1
 637 1035 l 2,4,5
 674 969 674 969 705 904 c 128,-1,6
 736 839 736 839 769 761 c 1,7,-1
 701 761 l 1,8,9
 732 840 732 840 762.5 905 c 128,-1,10
 793 970 793 970 828 1035 c 2,11,-1
 1073 1490 l 1,12,-1
 1426 1490 l 1,13,-1
 883 559 l 1,14,-1
 883 0 l 1,15,-1
 581 0 l 1,0,-1
EndSplineSet
Substitution2: "'c2sc' Capitals to Small Capitals in Latin lookup 68 subtable" y.sc
Substitution2: "'ss06' Style Set 6 in Latin lookup 52 subtable" Y.squared
Substitution2: "'ss05' Style Set 5 in Latin lookup 51 subtable" uni24CE
Substitution2: "'aalt' Access All Alternates in Latin lookup 0 subtable" y.sc
Position2: "'cpsp' Capital Spacing in Latin lookup 0 subtable" dx=0 dy=0 dh=0 dv=0
EndChar

StartChar: uni01B3
Encoding: 435 435 474
Width: 1579
Flags: W
LayerCount: 2
Fore
SplineSet
750 810 m 1,0,-1
 750 844 l 1,1,-1
 786 844 l 1,2,-1
 786 810 l 1,3,-1
 750 810 l 1,0,-1
42 1490 m 1,4,-1
 374 1490 l 1,5,-1
 768 830 l 1,6,-1
 1055 1309 l 2,7,8
 1117 1410 1117 1410 1200.5 1457.5 c 128,-1,9
 1284 1505 1284 1505 1377.5 1507 c 128,-1,10
 1471 1509 1471 1509 1561 1474 c 1,11,-1
 1494 1245 l 1,12,13
 1422 1267 1422 1267 1377 1249.5 c 128,-1,14
 1332 1232 1332 1232 1290 1164 c 2,15,-1
 919 580 l 1,16,-1
 919 0 l 1,17,-1
 618 0 l 1,18,-1
 618 580 l 1,19,-1
 42 1490 l 1,4,-1
EndSplineSet
Position2: "'cpsp' Capital Spacing in Latin lookup 0 subtable" dx=0 dy=0 dh=0 dv=0
EndChar

StartChar: uni024E
Encoding: 590 590 484
Width: 1452
GlyphClass: 2
Flags: W
AnchorPoint: "Anchor-4" 883 0 basechar 0
AnchorPoint: "Anchor-1" 728 1490 basechar 0
AnchorPoint: "Anchor-0" 731 0 basechar 0
LayerCount: 2
Fore
SplineSet
1445 1180 m 1,0,-1
 1445 1022 l 1,1,-1
 5 1022 l 1,2,-1
 5 1180 l 1,3,-1
 1445 1180 l 1,0,-1
581 0 m 1,4,-1
 581 559 l 1,5,-1
 29 1490 l 1,6,-1
 384 1490 l 1,7,-1
 637 1035 l 2,8,9
 674 969 674 969 705 904 c 128,-1,10
 736 839 736 839 769 761 c 1,11,-1
 701 761 l 1,12,13
 732 840 732 840 762.5 905 c 128,-1,14
 793 970 793 970 828 1035 c 2,15,-1
 1073 1490 l 1,16,-1
 1426 1490 l 1,17,-1
 883 559 l 1,18,-1
 883 0 l 1,19,-1
 581 0 l 1,4,-1
EndSplineSet
Position2: "'cpsp' Capital Spacing in Latin lookup 0 subtable" dx=0 dy=0 dh=0 dv=0
EndChar

StartChar: Z
Encoding: 90 90 497
Width: 1330
GlyphClass: 2
Flags: W
AnchorPoint: "Anchor-1" 666 1490 basechar 0
AnchorPoint: "Anchor-0" 664 0 basechar 0
LayerCount: 2
Fore
SplineSet
84 0 m 1,0,-1
 84 210 l 1,1,-1
 717 1042 l 2,2,3
 774 1117 774 1117 838.5 1191.5 c 128,-1,4
 903 1266 903 1266 968 1340 c 1,5,-1
 998 1239 l 1,6,7
 901 1234 901 1234 803.5 1233 c 128,-1,8
 706 1232 706 1232 608 1232 c 2,9,-1
 94 1232 l 1,10,-1
 94 1490 l 1,11,-1
 1242 1490 l 1,12,-1
 1242 1279 l 1,13,-1
 622 459 l 2,14,15
 563 383 563 383 496.5 305.5 c 128,-1,16
 430 228 430 228 362 151 c 1,17,-1
 332 253 l 1,18,19
 432 257 432 257 531 257.5 c 128,-1,20
 630 258 630 258 729 258 c 2,21,-1
 1247 258 l 1,22,-1
 1247 0 l 1,23,-1
 84 0 l 1,0,-1
EndSplineSet
Substitution2: "'ss06' Style Set 6 in Latin lookup 52 subtable" Z.squared
Substitution2: "'ss05' Style Set 5 in Latin lookup 51 subtable" uni24CF
Position2: "'cpsp' Capital Spacing in Latin lookup 0 subtable" dx=0 dy=0 dh=0 dv=0
EndChar

StartChar: uni0224
Encoding: 548 548 504
Width: 1330
GlyphClass: 2
Flags: W
AnchorPoint: "Anchor-1" 666 1490 basechar 0
AnchorPoint: "Anchor-0" 664 0 basechar 0
LayerCount: 2
Fore
SplineSet
726 -417 m 1,0,-1
 726 -178 l 1,1,2
 746 -180 746 -180 775 -181 c 128,-1,3
 804 -182 804 -182 830 -182 c 0,4,5
 892 -182 892 -182 916 -160.5 c 128,-1,6
 940 -139 940 -139 940 -92 c 2,7,-1
 940 0 l 1,8,-1
 1247 0 l 1,9,-1
 1247 -108 l 2,10,11
 1247 -265 1247 -265 1156.5 -345.5 c 128,-1,12
 1066 -426 1066 -426 887 -426 c 0,13,14
 839 -426 839 -426 797 -424 c 128,-1,15
 755 -422 755 -422 726 -417 c 1,0,-1
84 0 m 1,16,-1
 84 210 l 1,17,-1
 717 1042 l 2,18,19
 774 1117 774 1117 838.5 1191.5 c 128,-1,20
 903 1266 903 1266 968 1340 c 1,21,-1
 998 1239 l 1,22,23
 901 1234 901 1234 803.5 1233 c 128,-1,24
 706 1232 706 1232 608 1232 c 2,25,-1
 94 1232 l 1,26,-1
 94 1490 l 1,27,-1
 1242 1490 l 1,28,-1
 1242 1279 l 1,29,-1
 622 459 l 2,30,31
 563 383 563 383 496.5 305.5 c 128,-1,32
 430 228 430 228 362 151 c 1,33,-1
 332 253 l 1,34,35
 432 257 432 257 531 257.5 c 128,-1,36
 630 258 630 258 729 258 c 2,37,-1
 1247 258 l 1,38,-1
 1247 0 l 1,39,-1
 84 0 l 1,16,-1
EndSplineSet
Position2: "'cpsp' Capital Spacing in Latin lookup 0 subtable" dx=0 dy=0 dh=0 dv=0
EndChar

StartChar: uni2C7F
Encoding: 11391 11391 507
Width: 1323
Flags: W
LayerCount: 2
Fore
SplineSet
1096 -427 m 0,0,1
 1003 -427 1003 -427 933 -396 c 128,-1,2
 863 -365 863 -365 804.5 -316.5 c 128,-1,3
 746 -268 746 -268 690.5 -213.5 c 128,-1,4
 635 -159 635 -159 574 -110 c 128,-1,5
 513 -61 513 -61 437 -30.5 c 128,-1,6
 361 0 361 0 260 0 c 2,7,-1
 87 0 l 1,8,-1
 87 201 l 1,9,-1
 835 1234 l 1,10,-1
 85 1234 l 1,11,-1
 85 1490 l 1,12,-1
 1215 1490 l 1,13,-1
 1215 1291 l 1,14,-1
 455 234 l 1,15,16
 545 218 545 218 613 183 c 128,-1,17
 681 148 681 148 735 101 c 128,-1,18
 789 54 789 54 834.5 5.5 c 128,-1,19
 880 -43 880 -43 924 -84.5 c 128,-1,20
 968 -126 968 -126 1015 -151.5 c 128,-1,21
 1062 -177 1062 -177 1119 -177 c 0,22,23
 1146 -177 1146 -177 1164 -176 c 128,-1,24
 1182 -175 1182 -175 1199.5 -172.5 c 128,-1,25
 1217 -170 1217 -170 1240 -166 c 1,26,-1
 1240 -412 l 1,27,28
 1210 -418 1210 -418 1173 -422.5 c 128,-1,29
 1136 -427 1136 -427 1096 -427 c 0,0,1
EndSplineSet
Position2: "'cpsp' Capital Spacing in Latin lookup 0 subtable" dx=0 dy=0 dh=0 dv=0
EndChar

StartChar: a
Encoding: 97 97 508
Width: 1161
GlyphClass: 2
Flags: W
AnchorPoint: "Anchor-4" 1045 0 basechar 0
AnchorPoint: "Anchor-1" 575 1087 basechar 0
AnchorPoint: "Anchor-0" 571 0 basechar 0
LayerCount: 2
Fore
SplineSet
435 -19 m 0,0,1
 328 -19 328 -19 245 17 c 128,-1,2
 162 53 162 53 114 125.5 c 128,-1,3
 66 198 66 198 66 305 c 0,4,5
 66 397 66 397 100 458.5 c 128,-1,6
 134 520 134 520 192.5 557 c 128,-1,7
 251 594 251 594 326 613.5 c 128,-1,8
 401 633 401 633 484 641 c 0,9,10
 580 650 580 650 638.5 659 c 128,-1,11
 697 668 697 668 723 685.5 c 128,-1,12
 749 703 749 703 749 739 c 2,13,-1
 749 745 l 2,14,15
 749 788 749 788 728.5 819.5 c 128,-1,16
 708 851 708 851 669 868 c 128,-1,17
 630 885 630 885 575 885 c 0,18,19
 519 885 519 885 477 868 c 128,-1,20
 435 851 435 851 409 820.5 c 128,-1,21
 383 790 383 790 375 751 c 1,22,-1
 99 775 l 1,23,24
 117 878 117 878 179.5 952 c 128,-1,25
 242 1026 242 1026 343.5 1065.5 c 128,-1,26
 445 1105 445 1105 581 1105 c 0,27,28
 679 1105 679 1105 764 1082.5 c 128,-1,29
 849 1060 849 1060 912 1013.5 c 128,-1,30
 975 967 975 967 1010 897.5 c 128,-1,31
 1045 828 1045 828 1045 735 c 2,32,-1
 1045 0 l 1,33,-1
 759 0 l 1,34,-1
 759 152 l 1,35,-1
 752 152 l 1,36,37
 725 101 725 101 682 62.5 c 128,-1,38
 639 24 639 24 577.5 2.5 c 128,-1,39
 516 -19 516 -19 435 -19 c 0,0,1
517 188 m 0,40,41
 588 188 588 188 640.5 215 c 128,-1,42
 693 242 693 242 722 289 c 128,-1,43
 751 336 751 336 751 393 c 2,44,-1
 751 507 l 1,45,46
 739 499 739 499 714.5 491.5 c 128,-1,47
 690 484 690 484 660 478 c 128,-1,48
 630 472 630 472 597 467 c 128,-1,49
 564 462 564 462 535 458 c 0,50,51
 482 450 482 450 440.5 432.5 c 128,-1,52
 399 415 399 415 375.5 386.5 c 128,-1,53
 352 358 352 358 352 314 c 0,54,55
 352 273 352 273 372.5 245.5 c 128,-1,56
 393 218 393 218 430.5 203 c 128,-1,57
 468 188 468 188 517 188 c 0,40,41
EndSplineSet
Substitution2: "'smcp' Lowercase to Small Capitals in Latin lookup 69 subtable" a.sc
Substitution2: "'c2sc' Capitals to Small Capitals in Latin lookup 68 subtable" a.sc
Substitution2: "'cv11' Character Variants 11 in Latin lookup 65 subtable" a.1
Substitution2: "'salt' Stylistic Alternatives in Latin lookup 46 subtable" a.1
Substitution2: "Single Substitution lookup 44 subtable" ordfeminine
Substitution2: "'sups' Superscript in Latin lookup 39 subtable" a.sups
Substitution2: "'subs' Subscript in Latin lookup 38 subtable" a.subs
Substitution2: "'sinf' Scientific Inferiors in Latin lookup 18 subtable" a.subs
AlternateSubs2: "'aalt' Access All Alternates in Latin lookup 1 subtable" ordfeminine a.sups a.subs a.sc
EndChar

StartChar: aturn
Encoding: 592 592 540
Width: 1161
GlyphClass: 2
Flags: W
AnchorPoint: "Anchor-4" 116 1087 basechar 0
AnchorPoint: "Anchor-1" 607 1087 basechar 0
AnchorPoint: "Anchor-0" 596 0 basechar 0
LayerCount: 2
Fore
SplineSet
728 1107 m 0,0,1
 833 1107 833 1107 916.5 1071 c 128,-1,2
 1000 1035 1000 1035 1047.5 962.5 c 128,-1,3
 1095 890 1095 890 1095 782 c 0,4,5
 1095 691 1095 691 1061.5 630 c 128,-1,6
 1028 569 1028 569 969.5 531.5 c 128,-1,7
 911 494 911 494 836 474.5 c 128,-1,8
 761 455 761 455 678 447 c 0,9,10
 582 438 582 438 523 429 c 128,-1,11
 464 420 464 420 438 402.5 c 128,-1,12
 412 385 412 385 412 350 c 2,13,-1
 412 344 l 2,14,15
 412 301 412 301 432.5 269.5 c 128,-1,16
 453 238 453 238 492.5 220 c 128,-1,17
 532 202 532 202 586 202 c 0,18,19
 643 202 643 202 684.5 219.5 c 128,-1,20
 726 237 726 237 752.5 267.5 c 128,-1,21
 779 298 779 298 785 336 c 1,22,-1
 1062 314 l 1,23,24
 1045 210 1045 210 982 136 c 128,-1,25
 919 62 919 62 817.5 22 c 128,-1,26
 716 -18 716 -18 582 -18 c 0,27,28
 482 -18 482 -18 397 5 c 128,-1,29
 312 28 312 28 249 74.5 c 128,-1,30
 186 121 186 121 151 190.5 c 128,-1,31
 116 260 116 260 116 353 c 2,32,-1
 116 1087 l 1,33,-1
 403 1087 l 1,34,-1
 403 935 l 1,35,-1
 410 935 l 1,36,37
 437 987 437 987 480.5 1026 c 128,-1,38
 524 1065 524 1065 585 1086 c 128,-1,39
 646 1107 646 1107 728 1107 c 0,0,1
644 900 m 0,40,41
 574 900 574 900 521 872.5 c 128,-1,42
 468 845 468 845 438.5 798.5 c 128,-1,43
 409 752 409 752 409 694 c 2,44,-1
 409 581 l 1,45,46
 423 589 423 589 446.5 596 c 128,-1,47
 470 603 470 603 501 609.5 c 128,-1,48
 532 616 532 616 564 621 c 128,-1,49
 596 626 596 626 627 631 c 0,50,51
 680 639 680 639 721.5 656 c 128,-1,52
 763 673 763 673 787 702 c 128,-1,53
 811 731 811 731 811 774 c 0,54,55
 811 815 811 815 789.5 843 c 128,-1,56
 768 871 768 871 731 885.5 c 128,-1,57
 694 900 694 900 644 900 c 0,40,41
EndSplineSet
EndChar

StartChar: ae
Encoding: 230 230 544
Width: 1838
GlyphClass: 2
Flags: W
AnchorPoint: "Anchor-1" 900 1087 basechar 0
LayerCount: 2
Fore
SplineSet
458 -19 m 0,0,1
 339 -19 339 -19 251 18.5 c 128,-1,2
 163 56 163 56 114.5 128.5 c 128,-1,3
 66 201 66 201 66 305 c 0,4,5
 66 399 66 399 107 465 c 128,-1,6
 148 531 148 531 219.5 573 c 128,-1,7
 291 615 291 615 387.5 635.5 c 128,-1,8
 484 656 484 656 597 656 c 2,9,-1
 1592 656 l 1,10,-1
 1491 607 l 1,11,12
 1494 690 1494 690 1466 751.5 c 128,-1,13
 1438 813 1438 813 1384.5 847 c 128,-1,14
 1331 881 1331 881 1255 881 c 0,15,16
 1180 881 1180 881 1126 847.5 c 128,-1,17
 1072 814 1072 814 1043.5 754 c 128,-1,18
 1015 694 1015 694 1015 615 c 2,19,-1
 1015 484 l 2,20,21
 1015 394 1015 394 1045.5 331 c 128,-1,22
 1076 268 1076 268 1133.5 234 c 128,-1,23
 1191 200 1191 200 1269 200 c 0,24,25
 1325 200 1325 200 1368.5 216.5 c 128,-1,26
 1412 233 1412 233 1443 262.5 c 128,-1,27
 1474 292 1474 292 1489 334 c 1,28,-1
 1762 324 l 1,29,30
 1741 221 1741 221 1673 143 c 128,-1,31
 1605 65 1605 65 1500 21 c 128,-1,32
 1395 -23 1395 -23 1263 -23 c 0,33,34
 1158 -23 1158 -23 1070.5 9 c 128,-1,35
 983 41 983 41 920 98.5 c 128,-1,36
 857 156 857 156 822 233 c 1,37,-1
 829 864 l 1,38,39
 872 940 872 940 933.5 994 c 128,-1,40
 995 1048 995 1048 1074.5 1077 c 128,-1,41
 1154 1106 1154 1106 1251 1106 c 0,42,43
 1365 1106 1365 1106 1460 1069 c 128,-1,44
 1555 1032 1555 1032 1625 960 c 128,-1,45
 1695 888 1695 888 1733.5 785 c 128,-1,46
 1772 682 1772 682 1772 549 c 2,47,-1
 1772 468 l 1,48,-1
 584 468 l 2,49,50
 511 468 511 468 458.5 449 c 128,-1,51
 406 430 406 430 379 396.5 c 128,-1,52
 352 363 352 363 352 318 c 0,53,54
 352 254 352 254 398 221.5 c 128,-1,55
 444 189 444 189 517 189 c 0,56,57
 588 189 588 189 640.5 215.5 c 128,-1,58
 693 242 693 242 721.5 289 c 128,-1,59
 750 336 750 336 750 393 c 2,60,-1
 750 745 l 2,61,62
 750 787 750 787 729.5 819 c 128,-1,63
 709 851 709 851 669.5 868 c 128,-1,64
 630 885 630 885 575 885 c 0,65,66
 519 885 519 885 477 868 c 128,-1,67
 435 851 435 851 409 820.5 c 128,-1,68
 383 790 383 790 375 751 c 1,69,-1
 99 775 l 1,70,71
 117 872 117 872 178.5 946.5 c 128,-1,72
 240 1021 240 1021 340.5 1063 c 128,-1,73
 441 1105 441 1105 574 1105 c 0,74,75
 695 1105 695 1105 781 1065.5 c 128,-1,76
 867 1026 867 1026 916.5 951 c 128,-1,77
 966 876 966 876 973 769 c 1,78,-1
 959 230 l 1,79,-1
 898 230 l 1,80,81
 873 164 873 164 828.5 117 c 128,-1,82
 784 70 784 70 725 40 c 128,-1,83
 666 10 666 10 598 -4.5 c 128,-1,84
 530 -19 530 -19 458 -19 c 0,0,1
EndSplineSet
EndChar

StartChar: a.1
Encoding: 57388 57388 548
Width: 1256
GlyphClass: 2
Flags: W
AnchorPoint: "Anchor-4" 1140 0 basechar 0
AnchorPoint: "Anchor-1" 619 1087 basechar 0
AnchorPoint: "Anchor-0" 622 0 basechar 0
LayerCount: 2
Fore
SplineSet
525 -20 m 0,0,1
 393 -20 393 -20 290.5 48 c 128,-1,2
 188 116 188 116 129 242 c 128,-1,3
 70 368 70 368 70 543 c 0,4,5
 70 720 70 720 130 845.5 c 128,-1,6
 190 971 190 971 293 1038 c 128,-1,7
 396 1105 396 1105 525 1105 c 0,8,9
 607 1105 607 1105 667.5 1080 c 128,-1,10
 728 1055 728 1055 771 1013.5 c 128,-1,11
 814 972 814 972 840 922 c 1,12,-1
 848 922 l 1,13,-1
 848 1087 l 1,14,-1
 1140 1087 l 1,15,-1
 1140 0 l 1,16,-1
 848 0 l 1,17,-1
 848 169 l 1,18,-1
 840 169 l 1,19,20
 815 117 815 117 772 74 c 128,-1,21
 729 31 729 31 667.5 5.5 c 128,-1,22
 606 -20 606 -20 525 -20 c 0,0,1
611 220 m 256,23,24
 686 220 686 220 741 260.5 c 128,-1,25
 796 301 796 301 825.5 374 c 128,-1,26
 855 447 855 447 855 544 c 0,27,28
 855 642 855 642 825.5 714.5 c 128,-1,29
 796 787 796 787 741.5 826.5 c 128,-1,30
 687 866 687 866 611 866 c 0,31,32
 536 866 536 866 482.5 826.5 c 128,-1,33
 429 787 429 787 401 715 c 128,-1,34
 373 643 373 643 373 544 c 256,35,36
 373 445 373 445 401 372.5 c 128,-1,37
 429 300 429 300 482.5 260 c 128,-1,38
 536 220 536 220 611 220 c 256,23,24
EndSplineSet
EndChar

StartChar: b
Encoding: 98 98 579
Width: 1257
GlyphClass: 2
Flags: W
AnchorPoint: "Anchor-1" 750 1294 basechar 0
AnchorPoint: "Anchor-0" 645 0 basechar 0
LayerCount: 2
Fore
SplineSet
732 -20 m 0,0,1
 652 -20 652 -20 590.5 5.5 c 128,-1,2
 529 31 529 31 486 74.5 c 128,-1,3
 443 118 443 118 417 171 c 1,4,-1
 409 171 l 1,5,-1
 409 0 l 1,6,-1
 116 0 l 1,7,-1
 116 1490 l 1,8,-1
 413 1490 l 1,9,-1
 413 921 l 1,10,-1
 419 921 l 1,11,12
 446 971 446 971 488.5 1013 c 128,-1,13
 531 1055 531 1055 592 1080 c 128,-1,14
 653 1105 653 1105 734 1105 c 0,15,16
 863 1105 863 1105 966 1038 c 128,-1,17
 1069 971 1069 971 1128.5 845.5 c 128,-1,18
 1188 720 1188 720 1188 543 c 0,19,20
 1188 368 1188 368 1129.5 242 c 128,-1,21
 1071 116 1071 116 968.5 48 c 128,-1,22
 866 -20 866 -20 732 -20 c 0,0,1
648 220 m 256,23,24
 723 220 723 220 776 260 c 128,-1,25
 829 300 829 300 857.5 372.5 c 128,-1,26
 886 445 886 445 886 544 c 0,27,28
 886 642 886 642 857.5 714.5 c 128,-1,29
 829 787 829 787 776 826.5 c 128,-1,30
 723 866 723 866 648 866 c 0,31,32
 572 866 572 866 517 826.5 c 128,-1,33
 462 787 462 787 432.5 714.5 c 128,-1,34
 403 642 403 642 403 544 c 0,35,36
 403 447 403 447 432.5 374 c 128,-1,37
 462 301 462 301 517.5 260.5 c 128,-1,38
 573 220 573 220 648 220 c 256,23,24
EndSplineSet
Substitution2: "'sups' Superscript in Latin lookup 39 subtable" b.sups
Substitution2: "'subs' Subscript in Latin lookup 38 subtable" b.subs
Substitution2: "'sinf' Scientific Inferiors in Latin lookup 18 subtable" b.subs
AlternateSubs2: "'aalt' Access All Alternates in Latin lookup 1 subtable" b.sups b.subs
EndChar

StartChar: uni0183
Encoding: 387 387 581
Width: 1257
GlyphClass: 2
Flags: W
AnchorPoint: "Anchor-1" 750 1294 basechar 0
AnchorPoint: "Anchor-0" 645 0 basechar 0
LayerCount: 2
Fore
SplineSet
268 1260 m 1,0,-1
 116 1490 l 1,1,-1
 981 1490 l 1,2,-1
 981 1260 l 1,3,-1
 268 1260 l 1,0,-1
732 -20 m 0,4,5
 652 -20 652 -20 590.5 5.5 c 128,-1,6
 529 31 529 31 486 74.5 c 128,-1,7
 443 118 443 118 417 171 c 1,8,-1
 409 171 l 1,9,-1
 409 0 l 1,10,-1
 116 0 l 1,11,-1
 116 1490 l 1,12,-1
 413 1490 l 1,13,-1
 413 921 l 1,14,-1
 419 921 l 1,15,16
 446 971 446 971 488.5 1013 c 128,-1,17
 531 1055 531 1055 592 1080 c 128,-1,18
 653 1105 653 1105 734 1105 c 0,19,20
 863 1105 863 1105 966 1038 c 128,-1,21
 1069 971 1069 971 1128.5 845.5 c 128,-1,22
 1188 720 1188 720 1188 543 c 0,23,24
 1188 368 1188 368 1129.5 242 c 128,-1,25
 1071 116 1071 116 968.5 48 c 128,-1,26
 866 -20 866 -20 732 -20 c 0,4,5
648 220 m 256,27,28
 723 220 723 220 776 260 c 128,-1,29
 829 300 829 300 857.5 372.5 c 128,-1,30
 886 445 886 445 886 544 c 0,31,32
 886 642 886 642 857.5 714.5 c 128,-1,33
 829 787 829 787 776 826.5 c 128,-1,34
 723 866 723 866 648 866 c 0,35,36
 572 866 572 866 517 826.5 c 128,-1,37
 462 787 462 787 432.5 714.5 c 128,-1,38
 403 642 403 642 403 544 c 0,39,40
 403 447 403 447 432.5 374 c 128,-1,41
 462 301 462 301 517.5 260.5 c 128,-1,42
 573 220 573 220 648 220 c 256,27,28
EndSplineSet
EndChar

StartChar: uni0253
Encoding: 595 595 582
Width: 1255
GlyphClass: 2
Flags: W
AnchorPoint: "Anchor-1" 440 1490 basechar 0
AnchorPoint: "Anchor-0" 636 0 basechar 0
LayerCount: 2
Fore
SplineSet
730 -20 m 0,0,1
 650 -20 650 -20 588.5 5.5 c 128,-1,2
 527 31 527 31 484 74 c 128,-1,3
 441 117 441 117 415 168 c 1,4,-1
 406 168 l 1,5,-1
 406 0 l 1,6,-1
 116 0 l 1,7,-1
 116 1087 l 1,8,-1
 411 1087 l 1,9,-1
 411 909 l 1,10,-1
 418 912 l 1,11,12
 445 960 445 960 487 1001.5 c 128,-1,13
 529 1043 529 1043 589.5 1067.5 c 128,-1,14
 650 1092 650 1092 731 1092 c 0,15,16
 862 1092 862 1092 964.5 1026.5 c 128,-1,17
 1067 961 1067 961 1126.5 837 c 128,-1,18
 1186 713 1186 713 1186 539 c 0,19,20
 1186 367 1186 367 1127.5 241 c 128,-1,21
 1069 115 1069 115 966.5 47.5 c 128,-1,22
 864 -20 864 -20 730 -20 c 0,0,1
647 219 m 0,23,24
 723 219 723 219 776 258 c 128,-1,25
 829 297 829 297 857.5 369.5 c 128,-1,26
 886 442 886 442 886 540 c 0,27,28
 886 637 886 637 857.5 709 c 128,-1,29
 829 781 829 781 776 820 c 128,-1,30
 723 859 723 859 647 859 c 256,31,32
 571 859 571 859 515.5 820 c 128,-1,33
 460 781 460 781 430.5 709 c 128,-1,34
 401 637 401 637 401 540 c 0,35,36
 401 444 401 444 430.5 371 c 128,-1,37
 460 298 460 298 516 258.5 c 128,-1,38
 572 219 572 219 647 219 c 0,23,24
116 852 m 1,39,-1
 116 1180 l 2,40,41
 116 1338 116 1338 206.5 1417.5 c 128,-1,42
 297 1497 297 1497 475 1497 c 0,43,44
 524 1497 524 1497 564.5 1495 c 128,-1,45
 605 1493 605 1493 634 1489 c 1,46,-1
 634 1262 l 1,47,48
 614 1263 614 1263 585.5 1264 c 128,-1,49
 557 1265 557 1265 530 1265 c 0,50,51
 468 1265 468 1265 440.5 1243.5 c 128,-1,52
 413 1222 413 1222 413 1174 c 2,53,-1
 413 852 l 1,54,-1
 116 852 l 1,39,-1
EndSplineSet
EndChar

StartChar: thorn
Encoding: 254 254 586
Width: 1258
Flags: W
LayerCount: 2
Fore
SplineSet
733 -20 m 0,0,1
 653 -20 653 -20 592 5.5 c 128,-1,2
 531 31 531 31 488.5 74 c 128,-1,3
 446 117 446 117 420 169 c 1,4,-1
 414 169 l 1,5,-1
 414 -418 l 1,6,-1
 116 -418 l 1,7,-1
 116 1490 l 1,8,-1
 414 1490 l 1,9,-1
 414 922 l 1,10,-1
 421 922 l 1,11,12
 448 972 448 972 489.5 1013.5 c 128,-1,13
 531 1055 531 1055 592 1080 c 128,-1,14
 653 1105 653 1105 734 1105 c 0,15,16
 864 1105 864 1105 967 1038 c 128,-1,17
 1070 971 1070 971 1129 845.5 c 128,-1,18
 1188 720 1188 720 1188 543 c 0,19,20
 1188 368 1188 368 1130 242 c 128,-1,21
 1072 116 1072 116 969.5 48 c 128,-1,22
 867 -20 867 -20 733 -20 c 0,0,1
648 220 m 0,23,24
 724 220 724 220 776.5 260 c 128,-1,25
 829 300 829 300 857.5 372.5 c 128,-1,26
 886 445 886 445 886 544 c 0,27,28
 886 642 886 642 858 714.5 c 128,-1,29
 830 787 830 787 776.5 826.5 c 128,-1,30
 723 866 723 866 648 866 c 256,31,32
 573 866 573 866 518 826.5 c 128,-1,33
 463 787 463 787 433 714.5 c 128,-1,34
 403 642 403 642 403 544 c 0,35,36
 403 447 403 447 433 374 c 128,-1,37
 463 301 463 301 518 260.5 c 128,-1,38
 573 220 573 220 648 220 c 0,23,24
EndSplineSet
EndChar

StartChar: c
Encoding: 99 99 587
Width: 1172
GlyphClass: 2
Flags: W
AnchorPoint: "Anchor-3" 609 0 basechar 0
AnchorPoint: "Anchor-1" 609 1087 basechar 0
AnchorPoint: "Anchor-0" 609 0 basechar 0
LayerCount: 2
Fore
SplineSet
609 -23 m 0,0,1
 445 -23 445 -23 324 48.5 c 128,-1,2
 203 120 203 120 136.5 247 c 128,-1,3
 70 374 70 374 70 541 c 0,4,5
 70 710 70 710 136.5 837 c 128,-1,6
 203 964 203 964 324 1035 c 128,-1,7
 445 1106 445 1106 609 1106 c 0,8,9
 710 1106 710 1106 796 1078 c 128,-1,10
 882 1050 882 1050 947 998 c 128,-1,11
 1012 946 1012 946 1052.5 873 c 128,-1,12
 1093 800 1093 800 1105 711 c 1,13,-1
 822 685 l 1,14,15
 816 727 816 727 798.5 760.5 c 128,-1,16
 781 794 781 794 754 818.5 c 128,-1,17
 727 843 727 843 691.5 856.5 c 128,-1,18
 656 870 656 870 612 870 c 0,19,20
 534 870 534 870 481 829 c 128,-1,21
 428 788 428 788 400 714.5 c 128,-1,22
 372 641 372 641 372 541 c 0,23,24
 372 443 372 443 400 370 c 128,-1,25
 428 297 428 297 481.5 256 c 128,-1,26
 535 215 535 215 612 215 c 0,27,28
 656 215 656 215 691.5 228 c 128,-1,29
 727 241 727 241 753.5 265.5 c 128,-1,30
 780 290 780 290 797.5 325 c 128,-1,31
 815 360 815 360 823 404 c 1,32,-1
 1106 377 l 1,33,34
 1095 288 1095 288 1055 214.5 c 128,-1,35
 1015 141 1015 141 950 88 c 128,-1,36
 885 35 885 35 798 6 c 128,-1,37
 711 -23 711 -23 609 -23 c 0,0,1
EndSplineSet
Substitution2: "'sups' Superscript in Latin lookup 39 subtable" c.sups
Substitution2: "'subs' Subscript in Latin lookup 38 subtable" c.subs
Substitution2: "'sinf' Scientific Inferiors in Latin lookup 18 subtable" c.subs
AlternateSubs2: "'aalt' Access All Alternates in Latin lookup 1 subtable" c.sups c.subs
EndChar

StartChar: uni023C
Encoding: 572 572 588
Width: 1172
GlyphClass: 2
Flags: W
AnchorPoint: "Anchor-3" 609 0 basechar 0
AnchorPoint: "Anchor-1" 609 1087 basechar 0
AnchorPoint: "Anchor-0" 609 0 basechar 0
LayerCount: 2
Fore
SplineSet
214 -418 m 1,0,-1
 838 1490 l 1,1,-1
 994 1490 l 1,2,-1
 370 -418 l 1,3,-1
 214 -418 l 1,0,-1
609 -23 m 0,4,5
 445 -23 445 -23 324 48.5 c 128,-1,6
 203 120 203 120 136.5 247 c 128,-1,7
 70 374 70 374 70 541 c 0,8,9
 70 710 70 710 136.5 837 c 128,-1,10
 203 964 203 964 324 1035 c 128,-1,11
 445 1106 445 1106 609 1106 c 0,12,13
 710 1106 710 1106 796 1078 c 128,-1,14
 882 1050 882 1050 947 998 c 128,-1,15
 1012 946 1012 946 1052.5 873 c 128,-1,16
 1093 800 1093 800 1105 711 c 1,17,-1
 822 685 l 1,18,19
 816 727 816 727 798.5 760.5 c 128,-1,20
 781 794 781 794 754 818.5 c 128,-1,21
 727 843 727 843 691.5 856.5 c 128,-1,22
 656 870 656 870 612 870 c 0,23,24
 534 870 534 870 481 829 c 128,-1,25
 428 788 428 788 400 714.5 c 128,-1,26
 372 641 372 641 372 541 c 0,27,28
 372 443 372 443 400 370 c 128,-1,29
 428 297 428 297 481.5 256 c 128,-1,30
 535 215 535 215 612 215 c 0,31,32
 656 215 656 215 691.5 228 c 128,-1,33
 727 241 727 241 753.5 265.5 c 128,-1,34
 780 290 780 290 797.5 325 c 128,-1,35
 815 360 815 360 823 404 c 1,36,-1
 1106 377 l 1,37,38
 1095 288 1095 288 1055 214.5 c 128,-1,39
 1015 141 1015 141 950 88 c 128,-1,40
 885 35 885 35 798 6 c 128,-1,41
 711 -23 711 -23 609 -23 c 0,4,5
EndSplineSet
Ligature2: "'ccmp' Glyph Composition/Decomposition in Latin lookup 6 subtable" c uni0338
EndChar

StartChar: uni0188
Encoding: 392 392 589
Width: 1309
GlyphClass: 2
Flags: W
AnchorPoint: "Anchor-3" 609 0 basechar 0
AnchorPoint: "Anchor-1" 609 1087 basechar 0
AnchorPoint: "Anchor-0" 609 0 basechar 0
LayerCount: 2
Fore
SplineSet
857 705 m 1,0,-1
 826 966 l 2,1,2
 803 1130 803 1130 876 1208.5 c 128,-1,3
 949 1287 949 1287 1130 1287 c 0,4,5
 1173 1287 1173 1287 1208.5 1286 c 128,-1,6
 1244 1285 1244 1285 1269 1282 c 1,7,-1
 1267 1052 l 1,8,9
 1248 1054 1248 1054 1219 1055 c 128,-1,10
 1190 1056 1190 1056 1164 1056 c 0,11,12
 1111 1056 1111 1056 1090 1032.5 c 128,-1,13
 1069 1009 1069 1009 1077 957 c 2,14,-1
 1105 711 l 1,15,-1
 857 705 l 1,0,-1
609 -23 m 0,16,17
 445 -23 445 -23 324 48.5 c 128,-1,18
 203 120 203 120 136.5 247 c 128,-1,19
 70 374 70 374 70 541 c 0,20,21
 70 710 70 710 136.5 837 c 128,-1,22
 203 964 203 964 324 1035 c 128,-1,23
 445 1106 445 1106 609 1106 c 0,24,25
 710 1106 710 1106 796 1078 c 128,-1,26
 882 1050 882 1050 947 998 c 128,-1,27
 1012 946 1012 946 1052.5 873 c 128,-1,28
 1093 800 1093 800 1105 711 c 1,29,-1
 822 685 l 1,30,31
 816 727 816 727 798.5 760.5 c 128,-1,32
 781 794 781 794 754 818.5 c 128,-1,33
 727 843 727 843 691.5 856.5 c 128,-1,34
 656 870 656 870 612 870 c 0,35,36
 534 870 534 870 481 829 c 128,-1,37
 428 788 428 788 400 714.5 c 128,-1,38
 372 641 372 641 372 541 c 0,39,40
 372 443 372 443 400 370 c 128,-1,41
 428 297 428 297 481.5 256 c 128,-1,42
 535 215 535 215 612 215 c 0,43,44
 656 215 656 215 691.5 228 c 128,-1,45
 727 241 727 241 753.5 265.5 c 128,-1,46
 780 290 780 290 797.5 325 c 128,-1,47
 815 360 815 360 823 404 c 1,48,-1
 1106 377 l 1,49,50
 1095 288 1095 288 1055 214.5 c 128,-1,51
 1015 141 1015 141 950 88 c 128,-1,52
 885 35 885 35 798 6 c 128,-1,53
 711 -23 711 -23 609 -23 c 0,16,17
EndSplineSet
EndChar

StartChar: d
Encoding: 100 100 598
Width: 1257
GlyphClass: 2
Flags: W
AnchorPoint: "Anchor-1" 507 1294 basechar 0
LayerCount: 2
Fore
SplineSet
526 -20 m 0,0,1
 393 -20 393 -20 290 48 c 128,-1,2
 187 116 187 116 128.5 242 c 128,-1,3
 70 368 70 368 70 543 c 0,4,5
 70 720 70 720 130 845.5 c 128,-1,6
 190 971 190 971 292.5 1038 c 128,-1,7
 395 1105 395 1105 524 1105 c 0,8,9
 606 1105 606 1105 666.5 1080 c 128,-1,10
 727 1055 727 1055 769.5 1013 c 128,-1,11
 812 971 812 971 839 921 c 1,12,-1
 844 921 l 1,13,-1
 844 1490 l 1,14,-1
 1141 1490 l 1,15,-1
 1141 0 l 1,16,-1
 849 0 l 1,17,-1
 849 171 l 1,18,-1
 841 171 l 1,19,20
 815 118 815 118 772 74.5 c 128,-1,21
 729 31 729 31 668 5.5 c 128,-1,22
 607 -20 607 -20 526 -20 c 0,0,1
610 220 m 0,23,24
 686 220 686 220 741 260.5 c 128,-1,25
 796 301 796 301 825 374 c 128,-1,26
 854 447 854 447 854 544 c 0,27,28
 854 642 854 642 825 714.5 c 128,-1,29
 796 787 796 787 741 826.5 c 128,-1,30
 686 866 686 866 610 866 c 0,31,32
 536 866 536 866 482.5 826.5 c 128,-1,33
 429 787 429 787 401 714.5 c 128,-1,34
 373 642 373 642 373 544 c 0,35,36
 373 445 373 445 401 372.5 c 128,-1,37
 429 300 429 300 482.5 260 c 128,-1,38
 536 220 536 220 610 220 c 0,23,24
EndSplineSet
Substitution2: "'sups' Superscript in Latin lookup 39 subtable" d.sups
Substitution2: "'subs' Subscript in Latin lookup 38 subtable" d.subs
Substitution2: "'sinf' Scientific Inferiors in Latin lookup 18 subtable" d.subs
AlternateSubs2: "'aalt' Access All Alternates in Latin lookup 1 subtable" d.sups d.subs
EndChar

StartChar: drthook
Encoding: 598 598 600
Width: 1257
GlyphClass: 2
Flags: W
AnchorPoint: "Anchor-1" 507 1294 basechar 0
LayerCount: 2
Fore
SplineSet
1197 -426 m 0,0,1
 1020 -426 1020 -426 932.5 -345.5 c 128,-1,2
 845 -265 845 -265 845 -108 c 2,3,-1
 845 198 l 1,4,-1
 1139 198 l 1,5,-1
 1139 -102 l 2,6,7
 1139 -151 1139 -151 1165 -172.5 c 128,-1,8
 1191 -194 1191 -194 1252 -194 c 0,9,10
 1279 -194 1279 -194 1308 -193 c 128,-1,11
 1337 -192 1337 -192 1356 -191 c 1,12,-1
 1356 -417 l 1,13,14
 1327 -422 1327 -422 1286.5 -424 c 128,-1,15
 1246 -426 1246 -426 1197 -426 c 0,0,1
526 -20 m 0,16,17
 393 -20 393 -20 290 48 c 128,-1,18
 187 116 187 116 128.5 242 c 128,-1,19
 70 368 70 368 70 543 c 0,20,21
 70 720 70 720 130 845.5 c 128,-1,22
 190 971 190 971 292.5 1038 c 128,-1,23
 395 1105 395 1105 524 1105 c 0,24,25
 606 1105 606 1105 666.5 1080 c 128,-1,26
 727 1055 727 1055 769.5 1013 c 128,-1,27
 812 971 812 971 839 921 c 1,28,-1
 844 921 l 1,29,-1
 844 1490 l 1,30,-1
 1141 1490 l 1,31,-1
 1141 0 l 1,32,-1
 849 0 l 1,33,-1
 849 171 l 1,34,-1
 841 171 l 1,35,36
 815 118 815 118 772 74.5 c 128,-1,37
 729 31 729 31 668 5.5 c 128,-1,38
 607 -20 607 -20 526 -20 c 0,16,17
610 220 m 0,39,40
 686 220 686 220 741 260.5 c 128,-1,41
 796 301 796 301 825 374 c 128,-1,42
 854 447 854 447 854 544 c 0,43,44
 854 642 854 642 825 714.5 c 128,-1,45
 796 787 796 787 741 826.5 c 128,-1,46
 686 866 686 866 610 866 c 0,47,48
 536 866 536 866 482.5 826.5 c 128,-1,49
 429 787 429 787 401 714.5 c 128,-1,50
 373 642 373 642 373 544 c 0,51,52
 373 445 373 445 401 372.5 c 128,-1,53
 429 300 429 300 482.5 260 c 128,-1,54
 536 220 536 220 610 220 c 0,39,40
EndSplineSet
EndChar

StartChar: uni0257
Encoding: 599 599 601
Width: 1256
GlyphClass: 2
Flags: W
AnchorPoint: "Anchor-4" 1140 0 basechar 0
AnchorPoint: "Anchor-1" 619 1087 basechar 0
AnchorPoint: "Anchor-0" 622 0 basechar 0
LayerCount: 2
Fore
SplineSet
843 852 m 1,0,-1
 843 1180 l 2,1,2
 843 1338 843 1338 933.5 1417.5 c 128,-1,3
 1024 1497 1024 1497 1202 1497 c 0,4,5
 1251 1497 1251 1497 1291.5 1495 c 128,-1,6
 1332 1493 1332 1493 1361 1489 c 1,7,-1
 1361 1262 l 1,8,9
 1341 1263 1341 1263 1312.5 1264 c 128,-1,10
 1284 1265 1284 1265 1257 1265 c 0,11,12
 1195 1265 1195 1265 1167.5 1243.5 c 128,-1,13
 1140 1222 1140 1222 1140 1174 c 2,14,-1
 1140 852 l 1,15,-1
 843 852 l 1,0,-1
525 -20 m 0,16,17
 393 -20 393 -20 290.5 48 c 128,-1,18
 188 116 188 116 129 242 c 128,-1,19
 70 368 70 368 70 543 c 0,20,21
 70 720 70 720 130 845.5 c 128,-1,22
 190 971 190 971 293 1038 c 128,-1,23
 396 1105 396 1105 525 1105 c 0,24,25
 607 1105 607 1105 667.5 1080 c 128,-1,26
 728 1055 728 1055 771 1013.5 c 128,-1,27
 814 972 814 972 840 922 c 1,28,-1
 848 922 l 1,29,-1
 848 1087 l 1,30,-1
 1140 1087 l 1,31,-1
 1140 0 l 1,32,-1
 848 0 l 1,33,-1
 848 169 l 1,34,-1
 840 169 l 1,35,36
 815 117 815 117 772 74 c 128,-1,37
 729 31 729 31 667.5 5.5 c 128,-1,38
 606 -20 606 -20 525 -20 c 0,16,17
611 220 m 256,39,40
 686 220 686 220 741 260.5 c 128,-1,41
 796 301 796 301 825.5 374 c 128,-1,42
 855 447 855 447 855 544 c 0,43,44
 855 642 855 642 825.5 714.5 c 128,-1,45
 796 787 796 787 741.5 826.5 c 128,-1,46
 687 866 687 866 611 866 c 0,47,48
 536 866 536 866 482.5 826.5 c 128,-1,49
 429 787 429 787 401 715 c 128,-1,50
 373 643 373 643 373 544 c 256,51,52
 373 445 373 445 401 372.5 c 128,-1,53
 429 300 429 300 482.5 260 c 128,-1,54
 536 220 536 220 611 220 c 256,39,40
EndSplineSet
EndChar

StartChar: uni018C
Encoding: 396 396 602
Width: 1257
GlyphClass: 2
Flags: W
AnchorPoint: "Anchor-1" 507 1294 basechar 0
LayerCount: 2
Fore
SplineSet
991 1260 m 1,0,-1
 277 1260 l 1,1,-1
 277 1490 l 1,2,-1
 1141 1490 l 1,3,-1
 991 1260 l 1,0,-1
526 -20 m 0,4,5
 393 -20 393 -20 290 48 c 128,-1,6
 187 116 187 116 128.5 242 c 128,-1,7
 70 368 70 368 70 543 c 0,8,9
 70 720 70 720 130 845.5 c 128,-1,10
 190 971 190 971 292.5 1038 c 128,-1,11
 395 1105 395 1105 524 1105 c 0,12,13
 606 1105 606 1105 666.5 1080 c 128,-1,14
 727 1055 727 1055 769.5 1013 c 128,-1,15
 812 971 812 971 839 921 c 1,16,-1
 844 921 l 1,17,-1
 844 1490 l 1,18,-1
 1141 1490 l 1,19,-1
 1141 0 l 1,20,-1
 849 0 l 1,21,-1
 849 171 l 1,22,-1
 841 171 l 1,23,24
 815 118 815 118 772 74.5 c 128,-1,25
 729 31 729 31 668 5.5 c 128,-1,26
 607 -20 607 -20 526 -20 c 0,4,5
610 220 m 0,27,28
 686 220 686 220 741 260.5 c 128,-1,29
 796 301 796 301 825 374 c 128,-1,30
 854 447 854 447 854 544 c 0,31,32
 854 642 854 642 825 714.5 c 128,-1,33
 796 787 796 787 741 826.5 c 128,-1,34
 686 866 686 866 610 866 c 0,35,36
 536 866 536 866 482.5 826.5 c 128,-1,37
 429 787 429 787 401 714.5 c 128,-1,38
 373 642 373 642 373 544 c 0,39,40
 373 445 373 445 401 372.5 c 128,-1,41
 429 300 429 300 482.5 260 c 128,-1,42
 536 220 536 220 610 220 c 0,27,28
EndSplineSet
EndChar

StartChar: uni0221
Encoding: 545 545 603
Width: 1577
GlyphClass: 2
Flags: W
AnchorPoint: "Anchor-1" 507 1294 basechar 0
LayerCount: 2
Fore
SplineSet
1242 -418 m 0,0,1
 1102 -418 1102 -418 1013.5 -372.5 c 128,-1,2
 925 -327 925 -327 883.5 -244.5 c 128,-1,3
 842 -162 842 -162 842 -53 c 2,4,-1
 842 215 l 1,5,-1
 1139 215 l 1,6,-1
 1139 -121 l 2,7,8
 1139 -175 1139 -175 1171.5 -203.5 c 128,-1,9
 1204 -232 1204 -232 1249 -232 c 0,10,11
 1291 -232 1291 -232 1317.5 -209 c 128,-1,12
 1344 -186 1344 -186 1344 -149 c 0,13,14
 1344 -113 1344 -113 1319.5 -88.5 c 128,-1,15
 1295 -64 1295 -64 1247 -61 c 0,16,17
 1215 -58 1215 -58 1182.5 -66.5 c 128,-1,18
 1150 -75 1150 -75 1110.5 -98 c 128,-1,19
 1071 -121 1071 -121 1016 -163 c 2,20,-1
 718 -408 l 1,21,-1
 577 -234 l 1,22,-1
 864 -2 l 2,23,24
 939 58 939 58 1034.5 98.5 c 128,-1,25
 1130 139 1130 139 1234 139 c 0,26,27
 1403 139 1403 139 1503.5 55 c 128,-1,28
 1604 -29 1604 -29 1604 -158 c 0,29,30
 1604 -281 1604 -281 1510 -349.5 c 128,-1,31
 1416 -418 1416 -418 1242 -418 c 0,0,1
526 -20 m 0,32,33
 393 -20 393 -20 290 48 c 128,-1,34
 187 116 187 116 128.5 242 c 128,-1,35
 70 368 70 368 70 543 c 0,36,37
 70 720 70 720 130 845.5 c 128,-1,38
 190 971 190 971 292.5 1038 c 128,-1,39
 395 1105 395 1105 524 1105 c 0,40,41
 606 1105 606 1105 666.5 1080 c 128,-1,42
 727 1055 727 1055 769.5 1013 c 128,-1,43
 812 971 812 971 839 921 c 1,44,-1
 844 921 l 1,45,-1
 844 1490 l 1,46,-1
 1141 1490 l 1,47,-1
 1141 0 l 1,48,-1
 849 0 l 1,49,-1
 849 171 l 1,50,-1
 841 171 l 1,51,52
 815 118 815 118 772 74.5 c 128,-1,53
 729 31 729 31 668 5.5 c 128,-1,54
 607 -20 607 -20 526 -20 c 0,32,33
610 220 m 0,55,56
 686 220 686 220 741 260.5 c 128,-1,57
 796 301 796 301 825 374 c 128,-1,58
 854 447 854 447 854 544 c 0,59,60
 854 642 854 642 825 714.5 c 128,-1,61
 796 787 796 787 741 826.5 c 128,-1,62
 686 866 686 866 610 866 c 0,63,64
 536 866 536 866 482.5 826.5 c 128,-1,65
 429 787 429 787 401 714.5 c 128,-1,66
 373 642 373 642 373 544 c 0,67,68
 373 445 373 445 401 372.5 c 128,-1,69
 429 300 429 300 482.5 260 c 128,-1,70
 536 220 536 220 610 220 c 0,55,56
EndSplineSet
EndChar

StartChar: uni02A3
Encoding: 675 675 611
Width: 2279
GlyphClass: 2
Flags: W
AnchorPoint: "Anchor-1" 507 1294 basechar 0
LayerCount: 2
Fore
SplineSet
1266 0 m 1,0,-1
 1266 189 l 1,1,-1
 1805 845 l 1,2,-1
 1805 851 l 1,3,-1
 1054 851 l 1,4,-1
 1054 1087 l 1,5,-1
 2158 1087 l 1,6,-1
 2158 884 l 1,7,-1
 1640 242 l 1,8,-1
 1640 236 l 1,9,-1
 2171 236 l 1,10,-1
 2171 0 l 1,11,-1
 1266 0 l 1,0,-1
526 -20 m 0,12,13
 393 -20 393 -20 290 48 c 128,-1,14
 187 116 187 116 128.5 242 c 128,-1,15
 70 368 70 368 70 543 c 0,16,17
 70 720 70 720 130 845.5 c 128,-1,18
 190 971 190 971 292.5 1038 c 128,-1,19
 395 1105 395 1105 524 1105 c 0,20,21
 606 1105 606 1105 666.5 1080 c 128,-1,22
 727 1055 727 1055 769.5 1013 c 128,-1,23
 812 971 812 971 839 921 c 1,24,-1
 844 921 l 1,25,-1
 844 1490 l 1,26,-1
 1141 1490 l 1,27,-1
 1141 0 l 1,28,-1
 849 0 l 1,29,-1
 849 171 l 1,30,-1
 841 171 l 1,31,32
 815 118 815 118 772 74.5 c 128,-1,33
 729 31 729 31 668 5.5 c 128,-1,34
 607 -20 607 -20 526 -20 c 0,12,13
610 220 m 0,35,36
 686 220 686 220 741 260.5 c 128,-1,37
 796 301 796 301 825 374 c 128,-1,38
 854 447 854 447 854 544 c 0,39,40
 854 642 854 642 825 714.5 c 128,-1,41
 796 787 796 787 741 826.5 c 128,-1,42
 686 866 686 866 610 866 c 0,43,44
 536 866 536 866 482.5 826.5 c 128,-1,45
 429 787 429 787 401 714.5 c 128,-1,46
 373 642 373 642 373 544 c 0,47,48
 373 445 373 445 401 372.5 c 128,-1,49
 429 300 429 300 482.5 260 c 128,-1,50
 536 220 536 220 610 220 c 0,35,36
EndSplineSet
EndChar

StartChar: dyogh
Encoding: 676 676 613
Width: 2053
GlyphClass: 2
Flags: W
AnchorPoint: "Anchor-1" 507 1294 basechar 0
LayerCount: 2
Fore
SplineSet
1153 -75 m 1,0,1
 1164 -113 1164 -113 1199 -140.5 c 128,-1,2
 1234 -168 1234 -168 1286 -183 c 128,-1,3
 1338 -198 1338 -198 1398 -198 c 0,4,5
 1478 -198 1478 -198 1538 -170.5 c 128,-1,6
 1598 -143 1598 -143 1632 -92 c 128,-1,7
 1666 -41 1666 -41 1666 29 c 0,8,9
 1666 96 1666 96 1632.5 146.5 c 128,-1,10
 1599 197 1599 197 1534 225.5 c 128,-1,11
 1469 254 1469 254 1374 254 c 2,12,-1
 1257 254 l 1,13,-1
 1257 486 l 1,14,-1
 1571 830 l 1,15,-1
 1571 836 l 1,16,-1
 1042 836 l 1,17,-1
 1042 1088 l 1,18,-1
 1924 1088 l 1,19,-1
 1924 870 l 1,20,-1
 1516 443 l 1,21,-1
 1516 437 l 1,22,23
 1673 423 1673 423 1774.5 360 c 128,-1,24
 1876 297 1876 297 1925 205.5 c 128,-1,25
 1974 114 1974 114 1974 12 c 0,26,27
 1974 -122 1974 -122 1898.5 -222.5 c 128,-1,28
 1823 -323 1823 -323 1692.5 -378.5 c 128,-1,29
 1562 -434 1562 -434 1396 -434 c 0,30,31
 1247 -434 1247 -434 1130 -389 c 128,-1,32
 1013 -344 1013 -344 941 -263 c 128,-1,33
 869 -182 869 -182 852 -75 c 1,34,-1
 1153 -75 l 1,0,1
526 -20 m 0,35,36
 393 -20 393 -20 290 48 c 128,-1,37
 187 116 187 116 128.5 242 c 128,-1,38
 70 368 70 368 70 543 c 0,39,40
 70 720 70 720 130 845.5 c 128,-1,41
 190 971 190 971 292.5 1038 c 128,-1,42
 395 1105 395 1105 524 1105 c 0,43,44
 606 1105 606 1105 666.5 1080 c 128,-1,45
 727 1055 727 1055 769.5 1013 c 128,-1,46
 812 971 812 971 839 921 c 1,47,-1
 844 921 l 1,48,-1
 844 1490 l 1,49,-1
 1141 1490 l 1,50,-1
 1141 0 l 1,51,-1
 849 0 l 1,52,-1
 849 171 l 1,53,-1
 841 171 l 1,54,55
 815 118 815 118 772 74.5 c 128,-1,56
 729 31 729 31 668 5.5 c 128,-1,57
 607 -20 607 -20 526 -20 c 0,35,36
610 220 m 0,58,59
 686 220 686 220 741 260.5 c 128,-1,60
 796 301 796 301 825 374 c 128,-1,61
 854 447 854 447 854 544 c 0,62,63
 854 642 854 642 825 714.5 c 128,-1,64
 796 787 796 787 741 826.5 c 128,-1,65
 686 866 686 866 610 866 c 0,66,67
 536 866 536 866 482.5 826.5 c 128,-1,68
 429 787 429 787 401 714.5 c 128,-1,69
 373 642 373 642 373 544 c 0,70,71
 373 445 373 445 401 372.5 c 128,-1,72
 429 300 429 300 482.5 260 c 128,-1,73
 536 220 536 220 610 220 c 0,58,59
EndSplineSet
EndChar

StartChar: e
Encoding: 101 101 615
Width: 1185
GlyphClass: 2
Flags: W
AnchorPoint: "Anchor-4" 1106 309 basechar 0
AnchorPoint: "Anchor-3" 602 0 basechar 0
AnchorPoint: "Anchor-1" 595 1087 basechar 0
AnchorPoint: "Anchor-0" 595 0 basechar 0
LayerCount: 2
Fore
SplineSet
610 -23 m 0,0,1
 445 -23 445 -23 323.5 47.5 c 128,-1,2
 202 118 202 118 136 245 c 128,-1,3
 70 372 70 372 70 540 c 256,4,5
 70 708 70 708 136 835.5 c 128,-1,6
 202 963 202 963 321.5 1034.5 c 128,-1,7
 441 1106 441 1106 598 1106 c 0,8,9
 710 1106 710 1106 805.5 1069 c 128,-1,10
 901 1032 901 1032 971.5 960 c 128,-1,11
 1042 888 1042 888 1080.5 785 c 128,-1,12
 1119 682 1119 682 1119 549 c 2,13,-1
 1119 468 l 1,14,-1
 184 468 l 1,15,-1
 184 656 l 1,16,-1
 975 656 l 1,17,-1
 839 608 l 1,18,19
 839 692 839 692 811.5 753 c 128,-1,20
 784 814 784 814 731 847.5 c 128,-1,21
 678 881 678 881 602 881 c 256,22,23
 526 881 526 881 472.5 847.5 c 128,-1,24
 419 814 419 814 390 754 c 128,-1,25
 361 694 361 694 361 615 c 2,26,-1
 361 484 l 2,27,28
 361 395 361 395 392.5 331.5 c 128,-1,29
 424 268 424 268 481 234 c 128,-1,30
 538 200 538 200 617 200 c 0,31,32
 672 200 672 200 716 216.5 c 128,-1,33
 760 233 760 233 790.5 262.5 c 128,-1,34
 821 292 821 292 835 334 c 1,35,-1
 1106 309 l 1,36,37
 1083 211 1083 211 1014.5 136 c 128,-1,38
 946 61 946 61 842.5 19 c 128,-1,39
 739 -23 739 -23 610 -23 c 0,0,1
EndSplineSet
Substitution2: "'sups' Superscript in Latin lookup 39 subtable" e.sups
Substitution2: "'subs' Subscript in Latin lookup 38 subtable" e.subs
Substitution2: "'sinf' Scientific Inferiors in Latin lookup 18 subtable" e.subs
AlternateSubs2: "'aalt' Access All Alternates in Latin lookup 1 subtable" e.sups e.subs
EndChar

StartChar: uni0247
Encoding: 583 583 617
Width: 1185
GlyphClass: 2
Flags: W
AnchorPoint: "Anchor-4" 1106 309 basechar 0
AnchorPoint: "Anchor-3" 602 0 basechar 0
AnchorPoint: "Anchor-1" 595 1087 basechar 0
AnchorPoint: "Anchor-0" 595 0 basechar 0
LayerCount: 2
Fore
SplineSet
189 -418 m 1,0,-1
 854 1490 l 1,1,-1
 1005 1490 l 1,2,-1
 340 -418 l 1,3,-1
 189 -418 l 1,0,-1
610 -23 m 0,4,5
 445 -23 445 -23 323.5 47.5 c 128,-1,6
 202 118 202 118 136 245 c 128,-1,7
 70 372 70 372 70 540 c 256,8,9
 70 708 70 708 136 835.5 c 128,-1,10
 202 963 202 963 321.5 1034.5 c 128,-1,11
 441 1106 441 1106 598 1106 c 0,12,13
 710 1106 710 1106 805.5 1069 c 128,-1,14
 901 1032 901 1032 971.5 960 c 128,-1,15
 1042 888 1042 888 1080.5 785 c 128,-1,16
 1119 682 1119 682 1119 549 c 2,17,-1
 1119 468 l 1,18,-1
 184 468 l 1,19,-1
 184 656 l 1,20,-1
 975 656 l 1,21,-1
 839 608 l 1,22,23
 839 692 839 692 811.5 753 c 128,-1,24
 784 814 784 814 731 847.5 c 128,-1,25
 678 881 678 881 602 881 c 256,26,27
 526 881 526 881 472.5 847.5 c 128,-1,28
 419 814 419 814 390 754 c 128,-1,29
 361 694 361 694 361 615 c 2,30,-1
 361 484 l 2,31,32
 361 395 361 395 392.5 331.5 c 128,-1,33
 424 268 424 268 481 234 c 128,-1,34
 538 200 538 200 617 200 c 0,35,36
 672 200 672 200 716 216.5 c 128,-1,37
 760 233 760 233 790.5 262.5 c 128,-1,38
 821 292 821 292 835 334 c 1,39,-1
 1106 309 l 1,40,41
 1083 211 1083 211 1014.5 136 c 128,-1,42
 946 61 946 61 842.5 19 c 128,-1,43
 739 -23 739 -23 610 -23 c 0,4,5
EndSplineSet
EndChar

StartChar: eturn
Encoding: 477 477 646
Width: 1185
GlyphClass: 2
Flags: W
AnchorPoint: "Anchor-4" 873 27 basechar 0
AnchorPoint: "Anchor-3" 619 0 basechar 0
AnchorPoint: "Anchor-1" 612 1087 basechar 0
AnchorPoint: "Anchor-0" 615 0 basechar 0
LayerCount: 2
Fore
SplineSet
575 1110 m 0,0,1
 742 1110 742 1110 863 1039.5 c 128,-1,2
 984 969 984 969 1049.5 842.5 c 128,-1,3
 1115 716 1115 716 1115 547 c 0,4,5
 1115 381 1115 381 1049 253 c 128,-1,6
 983 125 983 125 864 53 c 128,-1,7
 745 -19 745 -19 588 -19 c 0,8,9
 475 -19 475 -19 379.5 18.5 c 128,-1,10
 284 56 284 56 214 127.5 c 128,-1,11
 144 199 144 199 105 303 c 128,-1,12
 66 407 66 407 66 539 c 2,13,-1
 66 621 l 1,14,-1
 1001 621 l 1,15,-1
 1001 432 l 1,16,-1
 210 432 l 1,17,-1
 347 479 l 1,18,19
 347 397 347 397 375 335 c 128,-1,20
 403 273 403 273 455.5 239.5 c 128,-1,21
 508 206 508 206 584 206 c 0,22,23
 659 206 659 206 713 240 c 128,-1,24
 767 274 767 274 795.5 334 c 128,-1,25
 824 394 824 394 824 473 c 2,26,-1
 824 603 l 2,27,28
 824 694 824 694 793.5 757 c 128,-1,29
 763 820 763 820 705.5 853.5 c 128,-1,30
 648 887 648 887 569 887 c 0,31,32
 513 887 513 887 469.5 871 c 128,-1,33
 426 855 426 855 395.5 825 c 128,-1,34
 365 795 365 795 350 753 c 1,35,-1
 79 778 l 1,36,37
 103 878 103 878 171.5 952.5 c 128,-1,38
 240 1027 240 1027 343.5 1068.5 c 128,-1,39
 447 1110 447 1110 575 1110 c 0,0,1
EndSplineSet
EndChar

StartChar: _part.f_base
Encoding: 1114123 -1 647
Width: 779
GlyphClass: 2
Flags: W
AnchorPoint: "Anchor-1" 410 1521 basechar 0
AnchorPoint: "Anchor-0" 343 0 basechar 0
LayerCount: 2
Fore
SplineSet
194 0 m 1,0,-1
 194 1199 l 2,1,2
 194 1307 194 1307 237.5 1379.5 c 128,-1,3
 281 1452 281 1452 360 1488.5 c 128,-1,4
 439 1525 439 1525 547 1525 c 0,5,6
 609 1525 609 1525 662.5 1519.5 c 128,-1,7
 716 1514 716 1514 738 1509 c 1,8,-1
 711 1281 l 1,9,10
 697 1284 697 1284 667.5 1286.5 c 128,-1,11
 638 1289 638 1289 612 1289 c 0,12,13
 546 1289 546 1289 518.5 1259.5 c 128,-1,14
 491 1230 491 1230 491 1170 c 2,15,-1
 491 0 l 1,16,-1
 194 0 l 1,0,-1
EndSplineSet
EndChar

StartChar: f
Encoding: 102 102 648
Width: 788
GlyphClass: 2
Flags: W
AnchorPoint: "Anchor-1" 428 1521 basechar 0
AnchorPoint: "Anchor-0" 361 0 basechar 0
LayerCount: 2
Fore
SplineSet
735 1087 m 1,0,-1
 735 857 l 1,1,-1
 20 857 l 1,2,-1
 20 1087 l 1,3,-1
 735 1087 l 1,0,-1
214 0 m 1,4,-1
 214 1199 l 2,5,6
 214 1307 214 1307 256.5 1379.5 c 128,-1,7
 299 1452 299 1452 378.5 1488.5 c 128,-1,8
 458 1525 458 1525 566 1525 c 0,9,10
 628 1525 628 1525 681 1519.5 c 128,-1,11
 734 1514 734 1514 758 1509 c 1,12,-1
 731 1281 l 1,13,14
 714 1284 714 1284 685 1286.5 c 128,-1,15
 656 1289 656 1289 630 1289 c 0,16,17
 565 1289 565 1289 537.5 1259.5 c 128,-1,18
 510 1230 510 1230 510 1170 c 2,19,-1
 510 0 l 1,20,-1
 214 0 l 1,4,-1
EndSplineSet
Substitution2: "'cv12' Character Variants 12 in Latin lookup 66 subtable" f.1
Substitution2: "'salt' Stylistic Alternatives in Latin lookup 46 subtable" f.1
Substitution2: "'sups' Superscript in Latin lookup 39 subtable" f.sups
Substitution2: "'subs' Subscript in Latin lookup 38 subtable" f.subs
Substitution2: "Single Substitution lookup 36 subtable" f.1
Substitution2: "Single Substitution lookup 35 subtable" f.i.1
Substitution2: "Single Substitution lookup 34 subtable" f.i
Substitution2: "'sinf' Scientific Inferiors in Latin lookup 18 subtable" f.subs
AlternateSubs2: "'aalt' Access All Alternates in Latin lookup 1 subtable" f.sups f.subs
EndChar

StartChar: f.1
Encoding: 60941 60941 649
Width: 690
GlyphClass: 2
Flags: W
AnchorPoint: "Anchor-1" 331 1521 basechar 0
AnchorPoint: "Anchor-0" 265 0 basechar 0
LayerCount: 2
Fore
SplineSet
638 1087 m 1,0,-1
 638 857 l 1,1,-1
 258 857 l 1,2,-1
 258 1087 l 1,3,-1
 638 1087 l 1,0,-1
116 0 m 1,4,-1
 116 1199 l 2,5,6
 116 1307 116 1307 159.5 1379.5 c 128,-1,7
 203 1452 203 1452 281.5 1488.5 c 128,-1,8
 360 1525 360 1525 469 1525 c 0,9,10
 531 1525 531 1525 584.5 1519.5 c 128,-1,11
 638 1514 638 1514 660 1509 c 1,12,-1
 633 1281 l 1,13,14
 618 1284 618 1284 589 1286.5 c 128,-1,15
 560 1289 560 1289 534 1289 c 0,16,17
 468 1289 468 1289 440.5 1259.5 c 128,-1,18
 413 1230 413 1230 413 1170 c 2,19,-1
 413 0 l 1,20,-1
 116 0 l 1,4,-1
EndSplineSet
EndChar

StartChar: f.i
Encoding: 60942 60942 650
Width: 729
GlyphClass: 2
Flags: W
AnchorPoint: "Anchor-1" 428 1521 basechar 0
AnchorPoint: "Anchor-0" 361 0 basechar 0
LayerCount: 2
Fore
SplineSet
213 0 m 1,0,-1
 213 1199 l 2,1,2
 213 1307 213 1307 255.5 1379.5 c 128,-1,3
 298 1452 298 1452 378 1488.5 c 128,-1,4
 458 1525 458 1525 566 1525 c 0,5,6
 598 1525 598 1525 629 1523.5 c 128,-1,7
 660 1522 660 1522 689 1519 c 1,8,-1
 682 1286 l 1,9,10
 670 1288 670 1288 656.5 1288.5 c 128,-1,11
 643 1289 643 1289 629 1289 c 0,12,13
 564 1289 564 1289 537 1259.5 c 128,-1,14
 510 1230 510 1230 510 1170 c 2,15,-1
 510 0 l 1,16,-1
 213 0 l 1,0,-1
20 857 m 1,17,-1
 20 1087 l 1,18,-1
 983 1087 l 1,19,-1
 983 857 l 1,20,-1
 20 857 l 1,17,-1
EndSplineSet
Substitution2: "Single Substitution lookup 35 subtable" f.i.1
EndChar

StartChar: f.i.1
Encoding: 60943 60943 651
Width: 634
GlyphClass: 2
Flags: W
AnchorPoint: "Anchor-1" 331 1521 basechar 0
AnchorPoint: "Anchor-0" 265 0 basechar 0
LayerCount: 2
Fore
SplineSet
116 0 m 1,0,-1
 116 1199 l 2,1,2
 116 1307 116 1307 159.5 1379.5 c 128,-1,3
 203 1452 203 1452 281.5 1488.5 c 128,-1,4
 360 1525 360 1525 469 1525 c 0,5,6
 501 1525 501 1525 532.5 1523.5 c 128,-1,7
 564 1522 564 1522 592 1519 c 1,8,-1
 586 1286 l 1,9,10
 573 1288 573 1288 559.5 1288.5 c 128,-1,11
 546 1289 546 1289 534 1289 c 0,12,13
 468 1289 468 1289 440.5 1259.5 c 128,-1,14
 413 1230 413 1230 413 1170 c 2,15,-1
 413 0 l 1,16,-1
 116 0 l 1,0,-1
263 857 m 1,17,-1
 263 1087 l 1,18,-1
 908 1087 l 1,19,-1
 908 857 l 1,20,-1
 263 857 l 1,17,-1
EndSplineSet
EndChar

StartChar: g
Encoding: 103 103 659
Width: 1259
GlyphClass: 2
Flags: W
AnchorPoint: "Anchor-1" 610 1087 basechar 0
AnchorPoint: "Anchor-0" 617 -425 basechar 0
LayerCount: 2
Fore
SplineSet
614 -437 m 0,0,1
 469 -437 469 -437 365 -398 c 128,-1,2
 261 -359 261 -359 199 -289.5 c 128,-1,3
 137 -220 137 -220 117 -129 c 1,4,-1
 388 -93 l 1,5,6
 400 -128 400 -128 429 -157 c 128,-1,7
 458 -186 458 -186 504 -202.5 c 128,-1,8
 550 -219 550 -219 614 -219 c 0,9,10
 725 -219 725 -219 787 -163.5 c 128,-1,11
 849 -108 849 -108 849 6 c 2,12,-1
 849 189 l 1,13,-1
 837 189 l 1,14,15
 811 135 811 135 769 94.5 c 128,-1,16
 727 54 727 54 666.5 31 c 128,-1,17
 606 8 606 8 525 8 c 0,18,19
 394 8 394 8 291 72 c 128,-1,20
 188 136 188 136 129 257 c 128,-1,21
 70 378 70 378 70 548 c 0,22,23
 70 723 70 723 130 847.5 c 128,-1,24
 190 972 190 972 293 1038.5 c 128,-1,25
 396 1105 396 1105 525 1105 c 0,26,27
 607 1105 607 1105 668 1080 c 128,-1,28
 729 1055 729 1055 772.5 1012 c 128,-1,29
 816 969 816 969 843 917 c 1,30,-1
 850 917 l 1,31,-1
 850 1087 l 1,32,-1
 1143 1087 l 1,33,-1
 1143 26 l 2,34,35
 1143 -133 1143 -133 1075.5 -236 c 128,-1,36
 1008 -339 1008 -339 888.5 -388 c 128,-1,37
 769 -437 769 -437 614 -437 c 0,0,1
611 240 m 256,38,39
 686 240 686 240 741 277.5 c 128,-1,40
 796 315 796 315 825.5 385.5 c 128,-1,41
 855 456 855 456 855 551 c 0,42,43
 855 648 855 648 825.5 719 c 128,-1,44
 796 790 796 790 741.5 829.5 c 128,-1,45
 687 869 687 869 611 869 c 0,46,47
 536 869 536 869 482.5 829.5 c 128,-1,48
 429 790 429 790 401 719 c 128,-1,49
 373 648 373 648 373 551 c 0,50,51
 373 455 373 455 401 384.5 c 128,-1,52
 429 314 429 314 482.5 277 c 128,-1,53
 536 240 536 240 611 240 c 256,38,39
EndSplineSet
Substitution2: "'smcp' Lowercase to Small Capitals in Latin lookup 69 subtable" g.sc
Substitution2: "'sups' Superscript in Latin lookup 39 subtable" g.sups
Substitution2: "'subs' Subscript in Latin lookup 38 subtable" g.subs
Substitution2: "'sinf' Scientific Inferiors in Latin lookup 18 subtable" g.subs
AlternateSubs2: "'aalt' Access All Alternates in Latin lookup 1 subtable" g.sc g.sups g.subs
EndChar

StartChar: uni0260
Encoding: 608 608 660
Width: 1259
GlyphClass: 2
Flags: W
AnchorPoint: "Anchor-1" 610 1087 basechar 0
AnchorPoint: "Anchor-0" 617 -425 basechar 0
LayerCount: 2
Fore
SplineSet
846 852 m 1,0,-1
 846 1180 l 2,1,2
 846 1338 846 1338 936.5 1417.5 c 128,-1,3
 1027 1497 1027 1497 1205 1497 c 0,4,5
 1254 1497 1254 1497 1294.5 1495 c 128,-1,6
 1335 1493 1335 1493 1363 1489 c 1,7,-1
 1363 1262 l 1,8,9
 1344 1263 1344 1263 1315 1264 c 128,-1,10
 1286 1265 1286 1265 1260 1265 c 0,11,12
 1198 1265 1198 1265 1170.5 1243.5 c 128,-1,13
 1143 1222 1143 1222 1143 1174 c 2,14,-1
 1143 852 l 1,15,-1
 846 852 l 1,0,-1
614 -437 m 0,16,17
 469 -437 469 -437 365 -398 c 128,-1,18
 261 -359 261 -359 199 -289.5 c 128,-1,19
 137 -220 137 -220 117 -129 c 1,20,-1
 388 -93 l 1,21,22
 400 -128 400 -128 429 -157 c 128,-1,23
 458 -186 458 -186 504 -202.5 c 128,-1,24
 550 -219 550 -219 614 -219 c 0,25,26
 725 -219 725 -219 787 -163.5 c 128,-1,27
 849 -108 849 -108 849 6 c 2,28,-1
 849 189 l 1,29,-1
 837 189 l 1,30,31
 811 135 811 135 769 94.5 c 128,-1,32
 727 54 727 54 666.5 31 c 128,-1,33
 606 8 606 8 525 8 c 0,34,35
 394 8 394 8 291 72 c 128,-1,36
 188 136 188 136 129 257 c 128,-1,37
 70 378 70 378 70 548 c 0,38,39
 70 723 70 723 130 847.5 c 128,-1,40
 190 972 190 972 293 1038.5 c 128,-1,41
 396 1105 396 1105 525 1105 c 0,42,43
 607 1105 607 1105 668 1080 c 128,-1,44
 729 1055 729 1055 772.5 1012 c 128,-1,45
 816 969 816 969 843 917 c 1,46,-1
 850 917 l 1,47,-1
 850 1087 l 1,48,-1
 1143 1087 l 1,49,-1
 1143 26 l 2,50,51
 1143 -133 1143 -133 1075.5 -236 c 128,-1,52
 1008 -339 1008 -339 888.5 -388 c 128,-1,53
 769 -437 769 -437 614 -437 c 0,16,17
611 240 m 256,54,55
 686 240 686 240 741 277.5 c 128,-1,56
 796 315 796 315 825.5 385.5 c 128,-1,57
 855 456 855 456 855 551 c 0,58,59
 855 648 855 648 825.5 719 c 128,-1,60
 796 790 796 790 741.5 829.5 c 128,-1,61
 687 869 687 869 611 869 c 0,62,63
 536 869 536 869 482.5 829.5 c 128,-1,64
 429 790 429 790 401 719 c 128,-1,65
 373 648 373 648 373 551 c 0,66,67
 373 455 373 455 401 384.5 c 128,-1,68
 429 314 429 314 482.5 277 c 128,-1,69
 536 240 536 240 611 240 c 256,54,55
EndSplineSet
Substitution2: "'smcp' Lowercase to Small Capitals in Latin lookup 69 subtable" uni0260.sc
Substitution2: "'c2sc' Capitals to Small Capitals in Latin lookup 68 subtable" uni0260.sc
Substitution2: "'aalt' Access All Alternates in Latin lookup 0 subtable" uni0260.sc
EndChar

StartChar: g.sc
Encoding: 610 610 669
Width: 1123
GlyphClass: 2
Flags: W
AnchorPoint: "Anchor-1" 569 1087 basechar 0
AnchorPoint: "Anchor-0" 566 0 basechar 0
LayerCount: 2
Fore
SplineSet
579 -16 m 0,0,1
 421 -16 421 -16 300.5 52.5 c 128,-1,2
 180 121 180 121 113 246.5 c 128,-1,3
 46 372 46 372 46 542 c 0,4,5
 46 720 46 720 117 845.5 c 128,-1,6
 188 971 188 971 308.5 1037 c 128,-1,7
 429 1103 429 1103 577 1103 c 0,8,9
 704 1103 704 1103 809 1056 c 128,-1,10
 914 1009 914 1009 982 924 c 128,-1,11
 1050 839 1050 839 1062 724 c 1,12,-1
 769 724 l 1,13,14
 758 766 758 766 733 794 c 128,-1,15
 708 822 708 822 670.5 836.5 c 128,-1,16
 633 851 633 851 583 851 c 0,17,18
 508 851 508 851 453 815 c 128,-1,19
 398 779 398 779 369.5 710.5 c 128,-1,20
 341 642 341 642 341 545 c 256,21,22
 341 448 341 448 369 379 c 128,-1,23
 397 310 397 310 451.5 273 c 128,-1,24
 506 236 506 236 585 236 c 0,25,26
 684 236 684 236 738.5 281.5 c 128,-1,27
 793 327 793 327 793 401 c 1,28,-1
 848 395 l 1,29,-1
 594 395 l 1,30,-1
 594 605 l 1,31,-1
 1073 605 l 1,32,-1
 1073 449 l 2,33,34
 1073 305 1073 305 1009.5 201 c 128,-1,35
 946 97 946 97 834.5 40.5 c 128,-1,36
 723 -16 723 -16 579 -16 c 0,0,1
EndSplineSet
EndChar

StartChar: uni0260.sc
Encoding: 60947 60947 670
Width: 1234
GlyphClass: 2
Flags: W
AnchorPoint: "Anchor-1" 569 1087 basechar 0
AnchorPoint: "Anchor-0" 566 0 basechar 0
LayerCount: 2
Fore
SplineSet
873 724 m 1,0,-1
 841 927 l 2,1,2
 824 1030 824 1030 842.5 1104.5 c 128,-1,3
 861 1179 861 1179 922.5 1220 c 128,-1,4
 984 1261 984 1261 1090 1261 c 0,5,6
 1131 1261 1131 1261 1164 1259 c 128,-1,7
 1197 1257 1197 1257 1227 1253 c 1,8,-1
 1227 1026 l 1,9,10
 1207 1028 1207 1028 1185 1028.5 c 128,-1,11
 1163 1029 1163 1029 1145 1029 c 0,12,13
 1083 1029 1083 1029 1061.5 994.5 c 128,-1,14
 1040 960 1040 960 1055 873 c 1,15,-1
 1062 724 l 1,16,-1
 873 724 l 1,0,-1
579 -16 m 0,17,18
 421 -16 421 -16 300.5 52.5 c 128,-1,19
 180 121 180 121 113 246.5 c 128,-1,20
 46 372 46 372 46 542 c 0,21,22
 46 720 46 720 117 845.5 c 128,-1,23
 188 971 188 971 308.5 1037 c 128,-1,24
 429 1103 429 1103 577 1103 c 0,25,26
 704 1103 704 1103 809 1056 c 128,-1,27
 914 1009 914 1009 982 924 c 128,-1,28
 1050 839 1050 839 1062 724 c 1,29,-1
 769 724 l 1,30,31
 758 766 758 766 733 794 c 128,-1,32
 708 822 708 822 670.5 836.5 c 128,-1,33
 633 851 633 851 583 851 c 0,34,35
 508 851 508 851 453 815 c 128,-1,36
 398 779 398 779 369.5 710.5 c 128,-1,37
 341 642 341 642 341 545 c 256,38,39
 341 448 341 448 369 379 c 128,-1,40
 397 310 397 310 451.5 273 c 128,-1,41
 506 236 506 236 585 236 c 0,42,43
 684 236 684 236 738.5 281.5 c 128,-1,44
 793 327 793 327 793 401 c 1,45,-1
 848 395 l 1,46,-1
 594 395 l 1,47,-1
 594 605 l 1,48,-1
 1073 605 l 1,49,-1
 1073 449 l 2,50,51
 1073 305 1073 305 1009.5 201 c 128,-1,52
 946 97 946 97 834.5 40.5 c 128,-1,53
 723 -16 723 -16 579 -16 c 0,17,18
EndSplineSet
EndChar

StartChar: h
Encoding: 104 104 671
Width: 1238
GlyphClass: 2
Flags: W
AnchorPoint: "Anchor-3" 264 0 basechar 0
AnchorPoint: "Anchor-1" 263 1490 basechar 0
AnchorPoint: "Anchor-0" 619 0 basechar 0
LayerCount: 2
Fore
SplineSet
413 617 m 2,0,-1
 413 0 l 1,1,-1
 116 0 l 1,2,-1
 116 1490 l 1,3,-1
 410 1490 l 1,4,-1
 410 811 l 1,5,-1
 372 811 l 1,6,7
 418 951 418 951 509 1028 c 128,-1,8
 600 1105 600 1105 743 1105 c 0,9,10
 858 1105 858 1105 943 1055.5 c 128,-1,11
 1028 1006 1028 1006 1075 912.5 c 128,-1,12
 1122 819 1122 819 1122 686 c 2,13,-1
 1122 0 l 1,14,-1
 824 0 l 1,15,-1
 824 634 l 2,16,17
 824 739 824 739 771.5 796 c 128,-1,18
 719 853 719 853 626 853 c 0,19,20
 564 853 564 853 516 826.5 c 128,-1,21
 468 800 468 800 440.5 748 c 128,-1,22
 413 696 413 696 413 617 c 2,0,-1
EndSplineSet
Substitution2: "'smcp' Lowercase to Small Capitals in Latin lookup 69 subtable" h.sc
Substitution2: "'sups' Superscript in Latin lookup 39 subtable" h.sups
Substitution2: "'subs' Subscript in Latin lookup 38 subtable" h.subs
Substitution2: "'sinf' Scientific Inferiors in Latin lookup 18 subtable" h.subs
AlternateSubs2: "'aalt' Access All Alternates in Latin lookup 1 subtable" h.sups h.subs h.sc
EndChar

StartChar: uni0452
Encoding: 1106 1106 674
Width: 1238
GlyphClass: 2
Flags: W
AnchorPoint: "Anchor-3" 264 0 basechar 0
AnchorPoint: "Anchor-1" 263 1490 basechar 0
AnchorPoint: "Anchor-0" 619 0 basechar 0
LayerCount: 2
Fore
SplineSet
769 -426 m 0,0,1
 720 -426 720 -426 678 -424 c 128,-1,2
 636 -422 636 -422 607 -417 c 1,3,-1
 607 -191 l 1,4,5
 628 -192 628 -192 656.5 -193 c 128,-1,6
 685 -194 685 -194 712 -194 c 0,7,8
 772 -194 772 -194 798 -172.5 c 128,-1,9
 824 -151 824 -151 824 -102 c 2,10,-1
 824 0 l 1,11,-1
 1122 0 l 1,12,-1
 1122 -108 l 2,13,14
 1122 -265 1122 -265 1034.5 -345.5 c 128,-1,15
 947 -426 947 -426 769 -426 c 0,0,1
413 617 m 2,16,-1
 413 0 l 1,17,-1
 116 0 l 1,18,-1
 116 1490 l 1,19,-1
 410 1490 l 1,20,-1
 410 811 l 1,21,-1
 372 811 l 1,22,23
 418 951 418 951 509 1028 c 128,-1,24
 600 1105 600 1105 743 1105 c 0,25,26
 858 1105 858 1105 943 1055.5 c 128,-1,27
 1028 1006 1028 1006 1075 912.5 c 128,-1,28
 1122 819 1122 819 1122 686 c 2,29,-1
 1122 0 l 1,30,-1
 824 0 l 1,31,-1
 824 634 l 2,32,33
 824 739 824 739 771.5 796 c 128,-1,34
 719 853 719 853 626 853 c 0,35,36
 564 853 564 853 516 826.5 c 128,-1,37
 468 800 468 800 440.5 748 c 128,-1,38
 413 696 413 696 413 617 c 2,16,-1
-23 1192 m 1,39,-1
 -23 1374 l 1,40,-1
 717 1374 l 1,41,-1
 717 1192 l 1,42,-1
 -23 1192 l 1,39,-1
EndSplineSet
EndChar

StartChar: uni0266
Encoding: 614 614 675
Width: 1237
GlyphClass: 2
Flags: W
AnchorPoint: "Anchor-1" 619 1087 basechar 0
AnchorPoint: "Anchor-0" 619 0 basechar 0
LayerCount: 2
Fore
SplineSet
116 852 m 1,0,-1
 116 1180 l 2,1,2
 116 1338 116 1338 206.5 1417.5 c 128,-1,3
 297 1497 297 1497 475 1497 c 0,4,5
 524 1497 524 1497 564.5 1495 c 128,-1,6
 605 1493 605 1493 634 1489 c 1,7,-1
 634 1262 l 1,8,9
 614 1263 614 1263 585.5 1264 c 128,-1,10
 557 1265 557 1265 530 1265 c 0,11,12
 468 1265 468 1265 440.5 1243.5 c 128,-1,13
 413 1222 413 1222 413 1174 c 2,14,-1
 413 852 l 1,15,-1
 116 852 l 1,0,-1
413 617 m 2,16,-1
 413 0 l 1,17,-1
 116 0 l 1,18,-1
 116 1087 l 1,19,-1
 403 1087 l 1,20,-1
 405 811 l 1,21,-1
 372 811 l 1,22,23
 418 951 418 951 509 1028 c 128,-1,24
 600 1105 600 1105 743 1105 c 0,25,26
 858 1105 858 1105 942.5 1055.5 c 128,-1,27
 1027 1006 1027 1006 1074 912.5 c 128,-1,28
 1121 819 1121 819 1121 686 c 2,29,-1
 1121 0 l 1,30,-1
 824 0 l 1,31,-1
 824 634 l 2,32,33
 824 739 824 739 771.5 796 c 128,-1,34
 719 853 719 853 626 853 c 0,35,36
 564 853 564 853 516 826.5 c 128,-1,37
 468 800 468 800 440.5 748 c 128,-1,38
 413 696 413 696 413 617 c 2,16,-1
EndSplineSet
EndChar

StartChar: uni0267
Encoding: 615 615 676
Width: 1237
GlyphClass: 2
Flags: W
AnchorPoint: "Anchor-1" 619 1087 basechar 0
AnchorPoint: "Anchor-0" 619 0 basechar 0
LayerCount: 2
Fore
SplineSet
769 -426 m 0,0,1
 720 -426 720 -426 678 -424 c 128,-1,2
 636 -422 636 -422 607 -417 c 1,3,-1
 607 -191 l 1,4,5
 628 -192 628 -192 656.5 -193 c 128,-1,6
 685 -194 685 -194 712 -194 c 0,7,8
 772 -194 772 -194 798 -172.5 c 128,-1,9
 824 -151 824 -151 824 -102 c 2,10,-1
 824 0 l 1,11,-1
 1122 0 l 1,12,-1
 1122 -108 l 2,13,14
 1122 -265 1122 -265 1034.5 -345.5 c 128,-1,15
 947 -426 947 -426 769 -426 c 0,0,1
413 617 m 2,16,-1
 413 0 l 1,17,-1
 116 0 l 1,18,-1
 116 1087 l 1,19,-1
 403 1087 l 1,20,-1
 405 811 l 1,21,-1
 372 811 l 1,22,23
 418 951 418 951 509 1028 c 128,-1,24
 600 1105 600 1105 743 1105 c 0,25,26
 858 1105 858 1105 942.5 1055.5 c 128,-1,27
 1027 1006 1027 1006 1074 912.5 c 128,-1,28
 1121 819 1121 819 1121 686 c 2,29,-1
 1121 0 l 1,30,-1
 824 0 l 1,31,-1
 824 634 l 2,32,33
 824 739 824 739 771.5 796 c 128,-1,34
 719 853 719 853 626 853 c 0,35,36
 564 853 564 853 516 826.5 c 128,-1,37
 468 800 468 800 440.5 748 c 128,-1,38
 413 696 413 696 413 617 c 2,16,-1
116 852 m 1,39,-1
 116 1180 l 2,40,41
 116 1338 116 1338 206.5 1417.5 c 128,-1,42
 297 1497 297 1497 475 1497 c 0,43,44
 524 1497 524 1497 564.5 1495 c 128,-1,45
 605 1493 605 1493 634 1489 c 1,46,-1
 634 1262 l 1,47,48
 614 1263 614 1263 585.5 1264 c 128,-1,49
 557 1265 557 1265 530 1265 c 0,50,51
 468 1265 468 1265 440.5 1243.5 c 128,-1,52
 413 1222 413 1222 413 1174 c 2,53,-1
 413 852 l 1,54,-1
 116 852 l 1,39,-1
EndSplineSet
EndChar

StartChar: uni0195
Encoding: 405 405 677
Width: 1983
Flags: W
LayerCount: 2
Fore
SplineSet
1282 -21 m 0,0,1
 1144 -21 1144 -21 1044 33 c 128,-1,2
 944 87 944 87 891 189 c 128,-1,3
 838 291 838 291 838 436 c 2,4,-1
 838 636 l 2,5,6
 838 742 838 742 783.5 799.5 c 128,-1,7
 729 857 729 857 633 857 c 0,8,9
 569 857 569 857 520 830.5 c 128,-1,10
 471 804 471 804 442 752.5 c 128,-1,11
 413 701 413 701 413 623 c 2,12,-1
 413 0 l 1,13,-1
 116 0 l 1,14,-1
 116 1490 l 1,15,-1
 409 1490 l 1,16,-1
 409 895 l 1,17,-1
 418 895 l 1,18,19
 455 992 455 992 538 1048.5 c 128,-1,20
 621 1105 621 1105 746 1105 c 0,21,22
 861 1105 861 1105 949 1055 c 128,-1,23
 1037 1005 1037 1005 1086.5 911 c 128,-1,24
 1136 817 1136 817 1136 686 c 2,25,-1
 1136 436 l 2,26,27
 1136 356 1136 356 1159.5 311 c 128,-1,28
 1183 266 1183 266 1219.5 247 c 128,-1,29
 1256 228 1256 228 1294 228 c 0,30,31
 1382 228 1382 228 1442.5 310.5 c 128,-1,32
 1503 393 1503 393 1536 562.5 c 128,-1,33
 1569 732 1569 732 1569 991 c 2,34,-1
 1569 1087 l 1,35,-1
 1867 1087 l 1,36,-1
 1867 991 l 2,37,38
 1867 646 1867 646 1802.5 421.5 c 128,-1,39
 1738 197 1738 197 1608.5 88 c 128,-1,40
 1479 -21 1479 -21 1282 -21 c 0,0,1
EndSplineSet
EndChar

StartChar: hturn
Encoding: 613 613 678
Width: 1238
GlyphClass: 2
Flags: W
AnchorPoint: "Anchor-3" 974 1087 basechar 0
AnchorPoint: "Anchor-1" 617 1087 basechar 0
AnchorPoint: "Anchor-0" 619 1087 basechar 0
LayerCount: 2
Fore
SplineSet
825 470 m 2,0,-1
 825 1087 l 1,1,-1
 1122 1087 l 1,2,-1
 1122 -403 l 1,3,-1
 827 -403 l 1,4,-1
 827 277 l 1,5,-1
 866 277 l 1,6,7
 820 138 820 138 728.5 60 c 128,-1,8
 637 -18 637 -18 495 -18 c 0,9,10
 380 -18 380 -18 295 31.5 c 128,-1,11
 210 81 210 81 163 175 c 128,-1,12
 116 269 116 269 116 401 c 2,13,-1
 116 1087 l 1,14,-1
 414 1087 l 1,15,-1
 414 455 l 2,16,17
 414 350 414 350 466 292 c 128,-1,18
 518 234 518 234 612 234 c 0,19,20
 675 234 675 234 722.5 260.5 c 128,-1,21
 770 287 770 287 797.5 340 c 128,-1,22
 825 393 825 393 825 470 c 2,0,-1
EndSplineSet
EndChar

StartChar: hturnlthook
Encoding: 686 686 679
Width: 1373
Flags: W
LayerCount: 2
Fore
SplineSet
962 -418 m 1,0,-1
 962 277 l 1,1,-1
 1002 277 l 1,2,3
 954 137 954 137 862.5 59.5 c 128,-1,4
 771 -18 771 -18 630 -18 c 0,5,6
 515 -18 515 -18 429.5 31.5 c 128,-1,7
 344 81 344 81 297.5 175 c 128,-1,8
 251 269 251 269 251 401 c 2,9,-1
 251 753 l 2,10,11
 251 815 251 815 212.5 838.5 c 128,-1,12
 174 862 174 862 111 862 c 0,13,14
 99 862 99 862 82 861.5 c 128,-1,15
 65 861 65 861 48 860.5 c 128,-1,16
 31 860 31 860 20 859 c 1,17,-1
 20 1088 l 1,18,19
 51 1092 51 1092 90.5 1093 c 128,-1,20
 130 1094 130 1094 175 1094 c 0,21,22
 258 1094 258 1094 326.5 1076 c 128,-1,23
 395 1058 395 1058 445 1019 c 128,-1,24
 495 980 495 980 521.5 918 c 128,-1,25
 548 856 548 856 548 768 c 2,26,-1
 548 455 l 2,27,28
 548 350 548 350 600.5 292 c 128,-1,29
 653 234 653 234 747 234 c 0,30,31
 809 234 809 234 857 260.5 c 128,-1,32
 905 287 905 287 932 340 c 128,-1,33
 959 393 959 393 959 470 c 2,34,-1
 959 1087 l 1,35,-1
 1257 1087 l 1,36,-1
 1257 -418 l 1,37,-1
 962 -418 l 1,0,-1
EndSplineSet
EndChar

StartChar: hturnhook2
Encoding: 687 687 680
Width: 1375
Flags: W
LayerCount: 2
Fore
SplineSet
1293 -426 m 0,0,1
 1130 -426 1130 -426 1046 -349 c 128,-1,2
 962 -272 962 -272 962 -125 c 2,3,-1
 962 277 l 1,4,-1
 1002 277 l 1,5,6
 954 137 954 137 862.5 59.5 c 128,-1,7
 771 -18 771 -18 630 -18 c 0,8,9
 515 -18 515 -18 429.5 31.5 c 128,-1,10
 344 81 344 81 297.5 175 c 128,-1,11
 251 269 251 269 251 401 c 2,12,-1
 251 753 l 2,13,14
 251 815 251 815 212.5 838.5 c 128,-1,15
 174 862 174 862 111 862 c 0,16,17
 99 862 99 862 82 861.5 c 128,-1,18
 65 861 65 861 48 860.5 c 128,-1,19
 31 860 31 860 20 859 c 1,20,-1
 20 1088 l 1,21,22
 51 1092 51 1092 90.5 1093 c 128,-1,23
 130 1094 130 1094 175 1094 c 0,24,25
 258 1094 258 1094 326.5 1076 c 128,-1,26
 395 1058 395 1058 445 1019 c 128,-1,27
 495 980 495 980 521.5 918 c 128,-1,28
 548 856 548 856 548 768 c 2,29,-1
 548 455 l 2,30,31
 548 350 548 350 600.5 292 c 128,-1,32
 653 234 653 234 747 234 c 0,33,34
 809 234 809 234 857 260.5 c 128,-1,35
 905 287 905 287 932 340 c 128,-1,36
 959 393 959 393 959 470 c 2,37,-1
 959 1087 l 1,38,-1
 1257 1087 l 1,39,-1
 1257 -111 l 2,40,41
 1257 -156 1257 -156 1282 -176 c 128,-1,42
 1307 -196 1307 -196 1365 -196 c 0,43,44
 1392 -196 1392 -196 1423.5 -195.5 c 128,-1,45
 1455 -195 1455 -195 1476 -193 c 1,46,-1
 1476 -417 l 1,47,48
 1456 -420 1456 -420 1425.5 -422 c 128,-1,49
 1395 -424 1395 -424 1360 -425 c 128,-1,50
 1325 -426 1325 -426 1293 -426 c 0,0,1
EndSplineSet
EndChar

StartChar: dotlessi
Encoding: 305 305 691
Width: 529
GlyphClass: 2
Flags: W
AnchorPoint: "Anchor-4" 413 0 basechar 0
AnchorPoint: "Anchor-1" 265 1087 basechar 0
AnchorPoint: "Anchor-0" 266 0 basechar 0
LayerCount: 2
Fore
SplineSet
116 0 m 1,0,-1
 116 1087 l 1,1,-1
 413 1087 l 1,2,-1
 413 0 l 1,3,-1
 116 0 l 1,0,-1
EndSplineSet
EndChar

StartChar: uni0237
Encoding: 567 567 713
Width: 530
GlyphClass: 2
Flags: W
AnchorPoint: "Anchor-1" 266 1087 basechar 0
AnchorPoint: "Anchor-0" 208 -425 basechar 0
LayerCount: 2
Fore
SplineSet
117 1087 m 1,0,-1
 414 1087 l 1,1,-1
 414 -73 l 2,2,3
 415 -189 415 -189 369.5 -265 c 128,-1,4
 324 -341 324 -341 237.5 -379.5 c 128,-1,5
 151 -418 151 -418 28 -418 c 2,6,-1
 -61 -418 l 1,7,-1
 -61 -183 l 1,8,-1
 -7 -183 l 2,9,10
 59 -183 59 -183 88 -151.5 c 128,-1,11
 117 -120 117 -120 117 -55 c 2,12,-1
 117 1087 l 1,0,-1
EndSplineSet
EndChar

StartChar: i.sc
Encoding: 60950 60950 720
Width: 710
GlyphClass: 2
Flags: W
AnchorPoint: "Anchor-4" 669 0 basechar 0
AnchorPoint: "Anchor-1" 355 1087 basechar 0
AnchorPoint: "Anchor-0" 355 0 basechar 0
LayerCount: 2
Fore
SplineSet
41 0 m 1,0,-1
 41 238 l 1,1,-1
 207 238 l 1,2,-1
 207 850 l 1,3,-1
 41 850 l 1,4,-1
 41 1087 l 1,5,-1
 669 1087 l 1,6,-1
 669 850 l 1,7,-1
 504 850 l 1,8,-1
 504 238 l 1,9,-1
 669 238 l 1,10,-1
 669 0 l 1,11,-1
 41 0 l 1,0,-1
EndSplineSet
EndChar

StartChar: jcrosstail.ccmp
Encoding: 57423 57423 722
Width: 918
GlyphClass: 2
Flags: W
AnchorPoint: "Anchor-4" 759 0 basechar 0
AnchorPoint: "Anchor-1" 611 1087 basechar 0
AnchorPoint: "Anchor-0" 581 -460 basechar 0
LayerCount: 2
Fore
SplineSet
373 -431 m 0,0,1
 254 -431 254 -431 174.5 -395 c 128,-1,2
 95 -359 95 -359 55.5 -296.5 c 128,-1,3
 16 -234 16 -234 15 -153 c 0,4,5
 15 -69 15 -69 56 -6.5 c 128,-1,6
 97 56 97 56 173.5 91 c 128,-1,7
 250 126 250 126 356 126 c 2,8,-1
 1022 126 l 1,9,-1
 1022 -81 l 1,10,-1
 381 -81 l 2,11,12
 339 -81 339 -81 307 -100 c 128,-1,13
 275 -119 275 -119 275 -162 c 0,14,15
 274 -202 274 -202 302 -221 c 128,-1,16
 330 -240 330 -240 369 -240 c 0,17,18
 426 -240 426 -240 444.5 -203.5 c 128,-1,19
 463 -167 463 -167 463 -121 c 2,20,-1
 463 249 l 1,21,-1
 757 249 l 1,22,-1
 757 -55 l 2,23,24
 757 -126 757 -126 738.5 -193.5 c 128,-1,25
 720 -261 720 -261 676 -314.5 c 128,-1,26
 632 -368 632 -368 558 -399.5 c 128,-1,27
 484 -431 484 -431 373 -431 c 0,0,1
462 0 m 1,28,-1
 462 1087 l 1,29,-1
 759 1087 l 1,30,-1
 759 0 l 1,31,-1
 462 0 l 1,28,-1
EndSplineSet
EndChar

StartChar: k
Encoding: 107 107 729
Width: 1158
GlyphClass: 2
Flags: W
AnchorPoint: "Anchor-1" 265 1490 basechar 0
AnchorPoint: "Anchor-0" 594 0 basechar 0
LayerCount: 2
Fore
SplineSet
385 316 m 1,0,-1
 385 670 l 1,1,-1
 423 670 l 1,2,-1
 792 1087 l 1,3,-1
 1138 1087 l 1,4,-1
 658 542 l 1,5,-1
 588 542 l 1,6,-1
 385 316 l 1,0,-1
116 0 m 1,7,-1
 116 1490 l 1,8,-1
 413 1490 l 1,9,-1
 413 0 l 1,10,-1
 116 0 l 1,7,-1
810 0 m 1,11,-1
 476 476 l 1,12,-1
 673 684 l 1,13,-1
 1160 0 l 1,14,-1
 810 0 l 1,11,-1
EndSplineSet
Substitution2: "'sups' Superscript in Latin lookup 39 subtable" k.sups
Substitution2: "'subs' Subscript in Latin lookup 38 subtable" k.subs
Substitution2: "'sinf' Scientific Inferiors in Latin lookup 18 subtable" k.subs
AlternateSubs2: "'aalt' Access All Alternates in Latin lookup 1 subtable" k.sups k.subs
EndChar

StartChar: uni0199
Encoding: 409 409 730
Width: 1158
GlyphClass: 2
Flags: W
AnchorPoint: "Anchor-1" 265 1087 basechar 0
AnchorPoint: "Anchor-0" 594 0 basechar 0
LayerCount: 2
Fore
SplineSet
116 852 m 1,0,-1
 116 1180 l 2,1,2
 116 1338 116 1338 206.5 1417.5 c 128,-1,3
 297 1497 297 1497 475 1497 c 0,4,5
 524 1497 524 1497 564.5 1495 c 128,-1,6
 605 1493 605 1493 634 1489 c 1,7,-1
 634 1262 l 1,8,9
 614 1263 614 1263 585.5 1264 c 128,-1,10
 557 1265 557 1265 530 1265 c 0,11,12
 468 1265 468 1265 440.5 1243.5 c 128,-1,13
 413 1222 413 1222 413 1174 c 2,14,-1
 413 852 l 1,15,-1
 116 852 l 1,0,-1
385 316 m 1,16,-1
 385 670 l 1,17,-1
 423 670 l 1,18,-1
 792 1087 l 1,19,-1
 1138 1087 l 1,20,-1
 658 542 l 1,21,-1
 588 542 l 1,22,-1
 385 316 l 1,16,-1
116 0 m 1,23,-1
 116 1087 l 1,24,-1
 413 1087 l 1,25,-1
 413 0 l 1,26,-1
 116 0 l 1,23,-1
810 0 m 1,27,-1
 476 476 l 1,28,-1
 673 684 l 1,29,-1
 1160 0 l 1,30,-1
 810 0 l 1,27,-1
EndSplineSet
EndChar

StartChar: kturn
Encoding: 670 670 736
Width: 1158
GlyphClass: 2
Flags: W
AnchorPoint: "Anchor-1" 591 1087 basechar 0
AnchorPoint: "Anchor-0" 910 -372 basechar 0
LayerCount: 2
Fore
SplineSet
773 771 m 1,0,-1
 773 417 l 1,1,-1
 735 417 l 1,2,-1
 366 0 l 1,3,-1
 21 0 l 1,4,-1
 500 547 l 1,5,-1
 570 547 l 1,6,-1
 773 771 l 1,0,-1
1042 1087 m 1,7,-1
 1042 -403 l 1,8,-1
 745 -403 l 1,9,-1
 745 1087 l 1,10,-1
 1042 1087 l 1,7,-1
348 1087 m 1,11,-1
 682 613 l 1,12,-1
 485 403 l 1,13,-1
 -2 1087 l 1,14,-1
 348 1087 l 1,11,-1
EndSplineSet
EndChar

StartChar: k.base
Encoding: 60951 60951 737
Width: 1158
GlyphClass: 2
Flags: W
AnchorPoint: "Anchor-1" 265 1087 basechar 0
AnchorPoint: "Anchor-0" 594 0 basechar 0
LayerCount: 2
Fore
SplineSet
385 316 m 1,0,-1
 385 670 l 1,1,-1
 423 670 l 1,2,-1
 792 1087 l 1,3,-1
 1138 1087 l 1,4,-1
 658 542 l 1,5,-1
 588 542 l 1,6,-1
 385 316 l 1,0,-1
116 0 m 1,7,-1
 116 1087 l 1,8,-1
 413 1087 l 1,9,-1
 413 0 l 1,10,-1
 116 0 l 1,7,-1
810 0 m 1,11,-1
 476 476 l 1,12,-1
 673 684 l 1,13,-1
 1160 0 l 1,14,-1
 810 0 l 1,11,-1
EndSplineSet
EndChar

StartChar: l
Encoding: 1114124 -1 738
Width: 529
GlyphClass: 2
Flags: W
AnchorPoint: "Anchor-1" 265 1490 basechar 0
AnchorPoint: "Anchor-0" 264 0 basechar 0
LayerCount: 2
Fore
SplineSet
413 1490 m 1,0,-1
 413 0 l 1,1,-1
 116 0 l 1,2,-1
 116 1490 l 1,3,-1
 413 1490 l 1,0,-1
EndSplineSet
Substitution2: "'smcp' Lowercase to Small Capitals in Latin lookup 69 subtable" l.sc
Substitution2: "'c2sc' Capitals to Small Capitals in Latin lookup 68 subtable" l.sc
Substitution2: "'cv05' Character Variants 05 in Latin lookup 59 subtable" l.ss02
Substitution2: "'ss04' Style Set 4 in Latin lookup 50 subtable" l.ss02
Substitution2: "'ss02' Style Set 2 in Latin lookup 48 subtable" l.ss02
Substitution2: "'salt' Stylistic Alternatives in Latin lookup 46 subtable" l.ss02
Substitution2: "'sups' Superscript in Latin lookup 39 subtable" l.sups
Substitution2: "'subs' Subscript in Latin lookup 38 subtable" l.subs
Substitution2: "'sinf' Scientific Inferiors in Latin lookup 18 subtable" l.subs
AlternateSubs2: "'aalt' Access All Alternates in Latin lookup 1 subtable" l.sc l.sups l.subs
EndChar

StartChar: lrthook
Encoding: 621 621 742
Width: 529
GlyphClass: 2
Flags: W
AnchorPoint: "Anchor-1" 265 1490 basechar 0
AnchorPoint: "Anchor-0" 264 0 basechar 0
LayerCount: 2
Fore
SplineSet
471 -426 m 0,0,1
 293 -426 293 -426 204.5 -345.5 c 128,-1,2
 116 -265 116 -265 116 -108 c 2,3,-1
 116 0 l 1,4,-1
 413 0 l 1,5,-1
 413 -102 l 2,6,7
 413 -151 413 -151 439 -172.5 c 128,-1,8
 465 -194 465 -194 526 -194 c 0,9,10
 552 -194 552 -194 581 -193 c 128,-1,11
 610 -192 610 -192 631 -191 c 1,12,-1
 631 -417 l 1,13,14
 601 -422 601 -422 560.5 -424 c 128,-1,15
 520 -426 520 -426 471 -426 c 0,0,1
413 1490 m 1,16,-1
 413 0 l 1,17,-1
 116 0 l 1,18,-1
 116 1490 l 1,19,-1
 413 1490 l 1,16,-1
EndSplineSet
EndChar

StartChar: uni026C
Encoding: 1114128 -1 743
Width: 976
Flags: W
LayerCount: 2
Fore
SplineSet
958 539 m 1,0,-1
 330 539 l 2,1,2
 228 539 228 539 153.5 573.5 c 128,-1,3
 79 608 79 608 38.5 671 c 128,-1,4
 -2 734 -2 734 -2 817 c 0,5,6
 -2 902 -2 902 39 969.5 c 128,-1,7
 80 1037 80 1037 159 1076 c 128,-1,8
 238 1115 238 1115 350 1115 c 0,9,10
 439 1115 439 1115 503.5 1085 c 128,-1,11
 568 1055 568 1055 610 1001.5 c 128,-1,12
 652 948 652 948 672 876.5 c 128,-1,13
 692 805 692 805 692 723 c 2,14,-1
 692 416 l 1,15,-1
 443 416 l 1,16,-1
 443 792 l 2,17,18
 443 841 443 841 420 872.5 c 128,-1,19
 397 904 397 904 350 904 c 0,20,21
 323 904 323 904 302 893 c 128,-1,22
 281 882 281 882 269 863.5 c 128,-1,23
 257 845 257 845 257 823 c 0,24,25
 257 793 257 793 283.5 769.5 c 128,-1,26
 310 746 310 746 356 746 c 2,27,-1
 958 746 l 1,28,-1
 958 539 l 1,0,-1
742 1490 m 1,29,-1
 742 0 l 1,30,-1
 443 0 l 1,31,-1
 443 1490 l 1,32,-1
 742 1490 l 1,29,-1
EndSplineSet
Substitution2: "'cv05' Character Variants 05 in Latin lookup 59 subtable" uni026C.ss02
Substitution2: "'ss04' Style Set 4 in Latin lookup 50 subtable" uni026C.ss02
Substitution2: "'ss02' Style Set 2 in Latin lookup 48 subtable" uni026C.ss02
Substitution2: "'salt' Stylistic Alternatives in Latin lookup 46 subtable" uni026C.ss02
EndChar

StartChar: uni0234
Encoding: 564 564 744
Width: 849
GlyphClass: 2
Flags: W
AnchorPoint: "Anchor-1" 265 1490 basechar 0
AnchorPoint: "Anchor-0" 264 0 basechar 0
LayerCount: 2
Fore
SplineSet
516 -418 m 0,0,1
 376 -418 376 -418 287.5 -372.5 c 128,-1,2
 199 -327 199 -327 157.5 -244.5 c 128,-1,3
 116 -162 116 -162 116 -53 c 2,4,-1
 116 215 l 1,5,-1
 413 215 l 1,6,-1
 413 -121 l 2,7,8
 413 -175 413 -175 445.5 -203.5 c 128,-1,9
 478 -232 478 -232 523 -232 c 0,10,11
 565 -232 565 -232 591.5 -209 c 128,-1,12
 618 -186 618 -186 618 -149 c 0,13,14
 618 -113 618 -113 593.5 -88.5 c 128,-1,15
 569 -64 569 -64 521 -61 c 0,16,17
 489 -58 489 -58 456.5 -66.5 c 128,-1,18
 424 -75 424 -75 384.5 -98 c 128,-1,19
 345 -121 345 -121 289 -163 c 2,20,-1
 -8 -408 l 1,21,-1
 -149 -234 l 1,22,-1
 138 -2 l 2,23,24
 212 58 212 58 308 98.5 c 128,-1,25
 404 139 404 139 508 139 c 0,26,27
 677 139 677 139 777.5 55 c 128,-1,28
 878 -29 878 -29 878 -158 c 0,29,30
 878 -281 878 -281 783.5 -349.5 c 128,-1,31
 689 -418 689 -418 516 -418 c 0,0,1
413 1490 m 1,32,-1
 413 0 l 1,33,-1
 116 0 l 1,34,-1
 116 1490 l 1,35,-1
 413 1490 l 1,32,-1
EndSplineSet
EndChar

StartChar: l.ss02
Encoding: 57424 57424 753
AltUni2: 00006c.ffffffff.0
Width: 596
GlyphClass: 2
Flags: W
AnchorPoint: "Anchor-1" 265 1490 basechar 0
AnchorPoint: "Anchor-0" 325 0 basechar 0
LayerCount: 2
Fore
SplineSet
454 -3 m 0,0,1
 278 -3 278 -3 197 67 c 128,-1,2
 116 137 116 137 116 288 c 2,3,-1
 116 1490 l 1,4,-1
 413 1490 l 1,5,-1
 413 324 l 2,6,7
 413 272 413 272 432.5 250 c 128,-1,8
 452 228 452 228 500 228 c 0,9,10
 516 228 516 228 529 229 c 128,-1,11
 542 230 542 230 551 232 c 1,12,-1
 575 9 l 1,13,14
 552 5 552 5 521 1 c 128,-1,15
 490 -3 490 -3 454 -3 c 0,0,1
EndSplineSet
EndChar

StartChar: uni026C.ss02
Encoding: 57428 57428 757
AltUni2: 00026c.ffffffff.0
Width: 979
GlyphClass: 2
Flags: W
AnchorPoint: "Anchor-1" 616 1490 basechar 0
AnchorPoint: "Anchor-0" 675 0 basechar 0
LayerCount: 2
Fore
SplineSet
380 561 m 2,0,1
 268 561 268 561 187 599 c 128,-1,2
 106 637 106 637 63 706.5 c 128,-1,3
 20 776 20 776 20 868 c 0,4,5
 20 956 20 956 57 1023 c 128,-1,6
 94 1090 94 1090 158 1128.5 c 128,-1,7
 222 1167 222 1167 303 1167 c 0,8,9
 402 1167 402 1167 458.5 1113 c 128,-1,10
 515 1059 515 1059 539.5 970 c 128,-1,11
 564 881 564 881 564 773 c 2,12,-1
 564 713 l 1,13,-1
 468 713 l 1,14,-1
 468 841 l 2,15,16
 468 886 468 886 440.5 919.5 c 128,-1,17
 413 953 413 953 362 953 c 0,18,19
 324 953 324 953 300 929 c 128,-1,20
 276 905 276 905 276 868 c 0,21,22
 276 833 276 833 303.5 806 c 128,-1,23
 331 779 331 779 376 779 c 2,24,-1
 933 784 l 1,25,-1
 933 561 l 1,26,-1
 380 561 l 2,0,1
804 -3 m 0,27,28
 628 -3 628 -3 548 67 c 128,-1,29
 468 137 468 137 468 288 c 2,30,-1
 468 1490 l 1,31,-1
 765 1490 l 1,32,-1
 765 324 l 2,33,34
 765 272 765 272 784.5 250 c 128,-1,35
 804 228 804 228 850 228 c 0,36,37
 867 228 867 228 879.5 229 c 128,-1,38
 892 230 892 230 902 232 c 1,39,-1
 926 9 l 1,40,41
 903 5 903 5 871.5 1 c 128,-1,42
 840 -3 840 -3 804 -3 c 0,27,28
EndSplineSet
EndChar

StartChar: l.sc
Encoding: 60952 60952 767
Width: 971
Flags: W
LayerCount: 2
Fore
SplineSet
116 0 m 1,0,-1
 116 1087 l 1,1,-1
 413 1087 l 1,2,-1
 413 242 l 1,3,-1
 911 242 l 1,4,-1
 911 0 l 1,5,-1
 116 0 l 1,0,-1
EndSplineSet
EndChar

StartChar: m
Encoding: 109 109 768
Width: 1839
GlyphClass: 2
Flags: W
AnchorPoint: "Anchor-1" 920 1087 basechar 0
AnchorPoint: "Anchor-0" 920 0 basechar 0
LayerCount: 2
Fore
SplineSet
116 0 m 1,0,-1
 116 1087 l 1,1,-1
 398 1087 l 1,2,-1
 405 829 l 1,3,-1
 386 829 l 1,4,5
 412 925 412 925 463 986 c 128,-1,6
 514 1047 514 1047 581 1076.5 c 128,-1,7
 648 1106 648 1106 723 1106 c 0,8,9
 843 1106 843 1106 925 1033.5 c 128,-1,10
 1007 961 1007 961 1034 820 c 1,11,-1
 1001 820 l 1,12,13
 1023 915 1023 915 1077 978.5 c 128,-1,14
 1131 1042 1131 1042 1206.5 1074 c 128,-1,15
 1282 1106 1282 1106 1367 1106 c 0,16,17
 1469 1106 1469 1106 1549.5 1062 c 128,-1,18
 1630 1018 1630 1018 1676.5 933.5 c 128,-1,19
 1723 849 1723 849 1723 727 c 2,20,-1
 1723 0 l 1,21,-1
 1427 0 l 1,22,-1
 1427 672 l 2,23,24
 1427 766 1427 766 1375 813 c 128,-1,25
 1323 860 1323 860 1248 860 c 0,26,27
 1192 860 1192 860 1150 835 c 128,-1,28
 1108 810 1108 810 1086 766 c 128,-1,29
 1064 722 1064 722 1064 662 c 2,30,-1
 1064 0 l 1,31,-1
 777 0 l 1,32,-1
 777 680 l 2,33,34
 777 762 777 762 728 811 c 128,-1,35
 679 860 679 860 601 860 c 0,36,37
 549 860 549 860 506.5 835.5 c 128,-1,38
 464 811 464 811 438.5 764.5 c 128,-1,39
 413 718 413 718 413 650 c 2,40,-1
 413 0 l 1,41,-1
 116 0 l 1,0,-1
EndSplineSet
Substitution2: "'smcp' Lowercase to Small Capitals in Latin lookup 69 subtable" m.sc
Substitution2: "'c2sc' Capitals to Small Capitals in Latin lookup 68 subtable" m.sc
Substitution2: "'sups' Superscript in Latin lookup 39 subtable" m.sups
Substitution2: "'subs' Subscript in Latin lookup 38 subtable" m.subs
Substitution2: "'sinf' Scientific Inferiors in Latin lookup 18 subtable" m.subs
AlternateSubs2: "'aalt' Access All Alternates in Latin lookup 1 subtable" m.sups m.subs m.sc
EndChar

StartChar: uni0271
Encoding: 625 625 769
Width: 1839
GlyphClass: 2
Flags: W
AnchorPoint: "Anchor-1" 920 1087 basechar 0
AnchorPoint: "Anchor-0" 920 0 basechar 0
LayerCount: 2
Fore
SplineSet
1371 -426 m 0,0,1
 1323 -426 1323 -426 1281 -424 c 128,-1,2
 1239 -422 1239 -422 1210 -417 c 1,3,-1
 1210 -191 l 1,4,5
 1229 -192 1229 -192 1258.5 -193 c 128,-1,6
 1288 -194 1288 -194 1314 -194 c 0,7,8
 1375 -194 1375 -194 1401 -172.5 c 128,-1,9
 1427 -151 1427 -151 1427 -102 c 2,10,-1
 1427 0 l 1,11,-1
 1723 0 l 1,12,-1
 1723 -108 l 2,13,14
 1723 -265 1723 -265 1636.5 -345.5 c 128,-1,15
 1550 -426 1550 -426 1371 -426 c 0,0,1
116 0 m 1,16,-1
 116 1087 l 1,17,-1
 398 1087 l 1,18,-1
 405 829 l 1,19,-1
 386 829 l 1,20,21
 412 925 412 925 463 986 c 128,-1,22
 514 1047 514 1047 581 1076.5 c 128,-1,23
 648 1106 648 1106 723 1106 c 0,24,25
 843 1106 843 1106 925 1033.5 c 128,-1,26
 1007 961 1007 961 1034 820 c 1,27,-1
 1001 820 l 1,28,29
 1023 915 1023 915 1077 978.5 c 128,-1,30
 1131 1042 1131 1042 1206.5 1074 c 128,-1,31
 1282 1106 1282 1106 1368 1106 c 0,32,33
 1470 1106 1470 1106 1550 1062 c 128,-1,34
 1630 1018 1630 1018 1676.5 933.5 c 128,-1,35
 1723 849 1723 849 1723 727 c 2,36,-1
 1723 0 l 1,37,-1
 1427 0 l 1,38,-1
 1427 672 l 2,39,40
 1427 767 1427 767 1375 813.5 c 128,-1,41
 1323 860 1323 860 1249 860 c 0,42,43
 1192 860 1192 860 1150 835.5 c 128,-1,44
 1108 811 1108 811 1086 766.5 c 128,-1,45
 1064 722 1064 722 1064 662 c 2,46,-1
 1064 0 l 1,47,-1
 777 0 l 1,48,-1
 777 680 l 2,49,50
 777 762 777 762 728 811 c 128,-1,51
 679 860 679 860 602 860 c 0,52,53
 549 860 549 860 506.5 835.5 c 128,-1,54
 464 811 464 811 438.5 764.5 c 128,-1,55
 413 718 413 718 413 650 c 2,56,-1
 413 0 l 1,57,-1
 116 0 l 1,16,-1
EndSplineSet
EndChar

StartChar: mturn
Encoding: 623 623 770
Width: 1839
GlyphClass: 2
Flags: W
AnchorPoint: "Anchor-1" 919 1087 basechar 0
AnchorPoint: "Anchor-0" 918 0 basechar 0
LayerCount: 2
Fore
SplineSet
1723 1087 m 1,0,-1
 1723 0 l 1,1,-1
 1442 0 l 1,2,-1
 1435 258 l 1,3,-1
 1455 258 l 1,4,5
 1430 163 1430 163 1378.5 101.5 c 128,-1,6
 1327 40 1327 40 1259 10.5 c 128,-1,7
 1191 -19 1191 -19 1117 -19 c 0,8,9
 997 -19 997 -19 915.5 54 c 128,-1,10
 834 127 834 127 806 267 c 1,11,-1
 839 267 l 1,12,13
 817 173 817 173 763 109.5 c 128,-1,14
 709 46 709 46 633.5 13.5 c 128,-1,15
 558 -19 558 -19 472 -19 c 0,16,17
 370 -19 370 -19 289.5 25 c 128,-1,18
 209 69 209 69 162.5 154.5 c 128,-1,19
 116 240 116 240 116 360 c 2,20,-1
 116 1087 l 1,21,-1
 414 1087 l 1,22,-1
 414 417 l 2,23,24
 414 321 414 321 465 274 c 128,-1,25
 516 227 516 227 592 227 c 0,26,27
 650 227 650 227 691 252.5 c 128,-1,28
 732 278 732 278 754.5 322 c 128,-1,29
 777 366 777 366 777 425 c 2,30,-1
 777 1087 l 1,31,-1
 1064 1087 l 1,32,-1
 1064 408 l 2,33,34
 1064 326 1064 326 1113 276.5 c 128,-1,35
 1162 227 1162 227 1237 227 c 0,36,37
 1291 227 1291 227 1333.5 252 c 128,-1,38
 1376 277 1376 277 1401 323.5 c 128,-1,39
 1426 370 1426 370 1426 437 c 2,40,-1
 1426 1087 l 1,41,-1
 1723 1087 l 1,0,-1
EndSplineSet
EndChar

StartChar: mturndescend
Encoding: 624 624 771
Width: 1839
GlyphClass: 2
Flags: W
AnchorPoint: "Anchor-1" 919 1087 basechar 0
AnchorPoint: "Anchor-0" 918 0 basechar 0
LayerCount: 2
Fore
SplineSet
1436 -418 m 1,0,-1
 1436 0 l 1,1,-1
 1720 0 l 1,2,-1
 1720 -418 l 1,3,-1
 1436 -418 l 1,0,-1
1723 1087 m 1,4,-1
 1723 0 l 1,5,-1
 1442 0 l 1,6,-1
 1435 258 l 1,7,-1
 1455 258 l 1,8,9
 1430 163 1430 163 1378.5 101.5 c 128,-1,10
 1327 40 1327 40 1259 10.5 c 128,-1,11
 1191 -19 1191 -19 1117 -19 c 0,12,13
 997 -19 997 -19 915.5 54 c 128,-1,14
 834 127 834 127 806 267 c 1,15,-1
 839 267 l 1,16,17
 817 173 817 173 763 109.5 c 128,-1,18
 709 46 709 46 633.5 13.5 c 128,-1,19
 558 -19 558 -19 472 -19 c 0,20,21
 370 -19 370 -19 289.5 25 c 128,-1,22
 209 69 209 69 162.5 154.5 c 128,-1,23
 116 240 116 240 116 360 c 2,24,-1
 116 1087 l 1,25,-1
 414 1087 l 1,26,-1
 414 417 l 2,27,28
 414 321 414 321 465 274 c 128,-1,29
 516 227 516 227 592 227 c 0,30,31
 650 227 650 227 691 252.5 c 128,-1,32
 732 278 732 278 754.5 322 c 128,-1,33
 777 366 777 366 777 425 c 2,34,-1
 777 1087 l 1,35,-1
 1064 1087 l 1,36,-1
 1064 408 l 2,37,38
 1064 326 1064 326 1113 276.5 c 128,-1,39
 1162 227 1162 227 1237 227 c 0,40,41
 1291 227 1291 227 1333.5 252 c 128,-1,42
 1376 277 1376 277 1401 323.5 c 128,-1,43
 1426 370 1426 370 1426 437 c 2,44,-1
 1426 1087 l 1,45,-1
 1723 1087 l 1,4,-1
EndSplineSet
EndChar

StartChar: n
Encoding: 110 110 775
Width: 1237
GlyphClass: 2
Flags: W
AnchorPoint: "Anchor-1" 619 1087 basechar 0
AnchorPoint: "Anchor-0" 619 0 basechar 0
LayerCount: 2
Fore
SplineSet
413 617 m 2,0,-1
 413 0 l 1,1,-1
 116 0 l 1,2,-1
 116 1087 l 1,3,-1
 403 1087 l 1,4,-1
 405 811 l 1,5,-1
 372 811 l 1,6,7
 418 951 418 951 509 1028 c 128,-1,8
 600 1105 600 1105 743 1105 c 0,9,10
 858 1105 858 1105 942.5 1055.5 c 128,-1,11
 1027 1006 1027 1006 1074 912.5 c 128,-1,12
 1121 819 1121 819 1121 686 c 2,13,-1
 1121 0 l 1,14,-1
 824 0 l 1,15,-1
 824 634 l 2,16,17
 824 739 824 739 771.5 796 c 128,-1,18
 719 853 719 853 626 853 c 0,19,20
 564 853 564 853 516 826.5 c 128,-1,21
 468 800 468 800 440.5 748 c 128,-1,22
 413 696 413 696 413 617 c 2,0,-1
EndSplineSet
Substitution2: "'smcp' Lowercase to Small Capitals in Latin lookup 69 subtable" n.sc
Substitution2: "'c2sc' Capitals to Small Capitals in Latin lookup 68 subtable" n.sc
Substitution2: "'sups' Superscript in Latin lookup 39 subtable" n.sups
Substitution2: "'subs' Subscript in Latin lookup 38 subtable" n.subs
Substitution2: "'numr' Numerators in Latin lookup 19 subtable" n.numr
Substitution2: "'sinf' Scientific Inferiors in Latin lookup 18 subtable" n.subs
AlternateSubs2: "'aalt' Access All Alternates in Latin lookup 1 subtable" n.sc n.numr n.sups n.subs
EndChar

StartChar: nrthook
Encoding: 627 627 777
Width: 1237
GlyphClass: 2
Flags: W
AnchorPoint: "Anchor-1" 619 1087 basechar 0
AnchorPoint: "Anchor-0" 619 0 basechar 0
LayerCount: 2
Fore
SplineSet
1180 -426 m 0,0,1
 1000 -426 1000 -426 912.5 -345.5 c 128,-1,2
 825 -265 825 -265 825 -108 c 2,3,-1
 825 0 l 1,4,-1
 1122 0 l 1,5,-1
 1122 -102 l 2,6,7
 1122 -151 1122 -151 1147.5 -172.5 c 128,-1,8
 1173 -194 1173 -194 1234 -194 c 0,9,10
 1261 -194 1261 -194 1289.5 -193 c 128,-1,11
 1318 -192 1318 -192 1338 -191 c 1,12,-1
 1338 -417 l 1,13,14
 1309 -422 1309 -422 1268.5 -424 c 128,-1,15
 1228 -426 1228 -426 1180 -426 c 0,0,1
413 617 m 2,16,-1
 413 0 l 1,17,-1
 116 0 l 1,18,-1
 116 1087 l 1,19,-1
 403 1087 l 1,20,-1
 405 811 l 1,21,-1
 372 811 l 1,22,23
 418 951 418 951 509 1028 c 128,-1,24
 600 1105 600 1105 743 1105 c 0,25,26
 858 1105 858 1105 942.5 1055.5 c 128,-1,27
 1027 1006 1027 1006 1074 912.5 c 128,-1,28
 1121 819 1121 819 1121 686 c 2,29,-1
 1121 0 l 1,30,-1
 824 0 l 1,31,-1
 824 634 l 2,32,33
 824 739 824 739 771.5 796 c 128,-1,34
 719 853 719 853 626 853 c 0,35,36
 564 853 564 853 516 826.5 c 128,-1,37
 468 800 468 800 440.5 748 c 128,-1,38
 413 696 413 696 413 617 c 2,16,-1
EndSplineSet
EndChar

StartChar: eng
Encoding: 331 331 778
Width: 1237
GlyphClass: 2
Flags: W
AnchorPoint: "Anchor-1" 619 1087 basechar 0
AnchorPoint: "Anchor-0" 619 0 basechar 0
LayerCount: 2
Fore
SplineSet
615 -417 m 1,0,-1
 615 -180 l 1,1,2
 640 -182 640 -182 665.5 -183 c 128,-1,3
 691 -184 691 -184 713 -184 c 0,4,5
 774 -184 774 -184 799 -162 c 128,-1,6
 824 -140 824 -140 824 -92 c 2,7,-1
 824 0 l 1,8,-1
 1122 0 l 1,9,-1
 1122 -108 l 2,10,11
 1122 -265 1122 -265 1033 -345.5 c 128,-1,12
 944 -426 944 -426 765 -426 c 0,13,14
 717 -426 717 -426 680.5 -424 c 128,-1,15
 644 -422 644 -422 615 -417 c 1,0,-1
413 617 m 2,16,-1
 413 0 l 1,17,-1
 116 0 l 1,18,-1
 116 1087 l 1,19,-1
 403 1087 l 1,20,-1
 405 811 l 1,21,-1
 372 811 l 1,22,23
 418 951 418 951 509 1028 c 128,-1,24
 600 1105 600 1105 743 1105 c 0,25,26
 858 1105 858 1105 942.5 1055.5 c 128,-1,27
 1027 1006 1027 1006 1074 912.5 c 128,-1,28
 1121 819 1121 819 1121 686 c 2,29,-1
 1121 0 l 1,30,-1
 824 0 l 1,31,-1
 824 634 l 2,32,33
 824 739 824 739 771.5 796 c 128,-1,34
 719 853 719 853 626 853 c 0,35,36
 564 853 564 853 516 826.5 c 128,-1,37
 468 800 468 800 440.5 748 c 128,-1,38
 413 696 413 696 413 617 c 2,16,-1
EndSplineSet
EndChar

StartChar: uni0235
Encoding: 565 565 779
Width: 1557
GlyphClass: 2
Flags: W
AnchorPoint: "Anchor-1" 619 1087 basechar 0
AnchorPoint: "Anchor-0" 619 0 basechar 0
LayerCount: 2
Fore
SplineSet
1225 -418 m 0,0,1
 1084 -418 1084 -418 995.5 -372.5 c 128,-1,2
 907 -327 907 -327 866 -244.5 c 128,-1,3
 825 -162 825 -162 825 -53 c 2,4,-1
 825 215 l 1,5,-1
 1122 215 l 1,6,-1
 1122 -121 l 2,7,8
 1122 -175 1122 -175 1153.5 -203.5 c 128,-1,9
 1185 -232 1185 -232 1231 -232 c 0,10,11
 1272 -232 1272 -232 1299 -209 c 128,-1,12
 1326 -186 1326 -186 1326 -149 c 0,13,14
 1326 -113 1326 -113 1301 -88.5 c 128,-1,15
 1276 -64 1276 -64 1228 -61 c 0,16,17
 1197 -58 1197 -58 1165 -66.5 c 128,-1,18
 1133 -75 1133 -75 1093 -98 c 128,-1,19
 1053 -121 1053 -121 998 -163 c 2,20,-1
 699 -408 l 1,21,-1
 558 -234 l 1,22,-1
 846 -2 l 2,23,24
 920 58 920 58 1016 98.5 c 128,-1,25
 1112 139 1112 139 1217 139 c 0,26,27
 1386 139 1386 139 1485.5 55 c 128,-1,28
 1585 -29 1585 -29 1585 -158 c 0,29,30
 1585 -281 1585 -281 1491.5 -349.5 c 128,-1,31
 1398 -418 1398 -418 1225 -418 c 0,0,1
413 617 m 2,32,-1
 413 0 l 1,33,-1
 116 0 l 1,34,-1
 116 1087 l 1,35,-1
 403 1087 l 1,36,-1
 405 811 l 1,37,-1
 372 811 l 1,38,39
 418 951 418 951 509 1028 c 128,-1,40
 600 1105 600 1105 743 1105 c 0,41,42
 858 1105 858 1105 942.5 1055.5 c 128,-1,43
 1027 1006 1027 1006 1074 912.5 c 128,-1,44
 1121 819 1121 819 1121 686 c 2,45,-1
 1121 0 l 1,46,-1
 824 0 l 1,47,-1
 824 634 l 2,48,49
 824 739 824 739 771.5 796 c 128,-1,50
 719 853 719 853 626 853 c 0,51,52
 564 853 564 853 516 826.5 c 128,-1,53
 468 800 468 800 440.5 748 c 128,-1,54
 413 696 413 696 413 617 c 2,32,-1
EndSplineSet
EndChar

StartChar: nlfthook
Encoding: 626 626 780
Width: 1237
GlyphClass: 2
Flags: W
AnchorPoint: "Anchor-1" 619 1087 basechar 0
AnchorPoint: "Anchor-0" 619 0 basechar 0
LayerCount: 2
Fore
SplineSet
62 -426 m 0,0,1
 13 -426 13 -426 -29 -424 c 128,-1,2
 -71 -422 -71 -422 -101 -417 c 1,3,-1
 -101 -191 l 1,4,5
 -80 -192 -80 -192 -51.5 -193 c 128,-1,6
 -23 -194 -23 -194 4 -194 c 0,7,8
 65 -194 65 -194 90.5 -172.5 c 128,-1,9
 116 -151 116 -151 116 -102 c 2,10,-1
 116 0 l 1,11,-1
 414 0 l 1,12,-1
 414 -108 l 2,13,14
 414 -265 414 -265 326.5 -345.5 c 128,-1,15
 239 -426 239 -426 62 -426 c 0,0,1
413 617 m 2,16,-1
 413 0 l 1,17,-1
 116 0 l 1,18,-1
 116 1087 l 1,19,-1
 403 1087 l 1,20,-1
 405 811 l 1,21,-1
 372 811 l 1,22,23
 418 951 418 951 509 1028 c 128,-1,24
 600 1105 600 1105 743 1105 c 0,25,26
 858 1105 858 1105 942.5 1055.5 c 128,-1,27
 1027 1006 1027 1006 1074 912.5 c 128,-1,28
 1121 819 1121 819 1121 686 c 2,29,-1
 1121 0 l 1,30,-1
 824 0 l 1,31,-1
 824 634 l 2,32,33
 824 739 824 739 771.5 796 c 128,-1,34
 719 853 719 853 626 853 c 0,35,36
 564 853 564 853 516 826.5 c 128,-1,37
 468 800 468 800 440.5 748 c 128,-1,38
 413 696 413 696 413 617 c 2,16,-1
EndSplineSet
EndChar

StartChar: n.sc
Encoding: 60953 60953 791
Width: 1278
GlyphClass: 2
Flags: W
AnchorPoint: "Anchor-1" 640 1087 basechar 0
AnchorPoint: "Anchor-0" 640 0 basechar 0
LayerCount: 2
Fore
SplineSet
116 0 m 1,0,-1
 116 1087 l 1,1,-1
 421 1087 l 1,2,-1
 722 629 l 2,3,4
 785 533 785 533 833 449 c 128,-1,5
 881 365 881 365 924 285 c 1,6,-1
 879 285 l 1,7,8
 878 342 878 342 877 396 c 128,-1,9
 876 450 876 450 875.5 506.5 c 128,-1,10
 875 563 875 563 875 629 c 2,11,-1
 875 1087 l 1,12,-1
 1162 1087 l 1,13,-1
 1162 0 l 1,14,-1
 860 0 l 1,15,-1
 559 460 l 2,16,17
 495 556 495 556 446.5 640.5 c 128,-1,18
 398 725 398 725 354 804 c 1,19,-1
 400 804 l 1,20,21
 402 720 402 720 403 639 c 128,-1,22
 404 558 404 558 404 460 c 2,23,-1
 404 0 l 1,24,-1
 116 0 l 1,0,-1
EndSplineSet
EndChar

StartChar: o
Encoding: 111 111 792
Width: 1222
GlyphClass: 2
Flags: W
AnchorPoint: "Anchor-4" 1153 541 basechar 0
AnchorPoint: "Anchor-1" 612 1087 basechar 0
AnchorPoint: "Anchor-0" 612 0 basechar 0
LayerCount: 2
Fore
SplineSet
612 -23 m 256,0,1
 448 -23 448 -23 326 48 c 128,-1,2
 204 119 204 119 137 245.5 c 128,-1,3
 70 372 70 372 70 541 c 0,4,5
 70 711 70 711 137 838 c 128,-1,6
 204 965 204 965 326 1035.5 c 128,-1,7
 448 1106 448 1106 612 1106 c 256,8,9
 776 1106 776 1106 898 1035.5 c 128,-1,10
 1020 965 1020 965 1086.5 838 c 128,-1,11
 1153 711 1153 711 1153 541 c 0,12,13
 1153 372 1153 372 1086.5 245.5 c 128,-1,14
 1020 119 1020 119 898 48 c 128,-1,15
 776 -23 776 -23 612 -23 c 256,0,1
612 216 m 256,16,17
 688 216 688 216 741.5 256.5 c 128,-1,18
 795 297 795 297 823.5 370.5 c 128,-1,19
 852 444 852 444 852 541 c 0,20,21
 852 640 852 640 823.5 713.5 c 128,-1,22
 795 787 795 787 741.5 828 c 128,-1,23
 688 869 688 869 612 869 c 256,24,25
 536 869 536 869 482.5 828.5 c 128,-1,26
 429 788 429 788 400.5 714.5 c 128,-1,27
 372 641 372 641 372 541 c 0,28,29
 372 443 372 443 400.5 370 c 128,-1,30
 429 297 429 297 482.5 256.5 c 128,-1,31
 536 216 536 216 612 216 c 256,16,17
EndSplineSet
Substitution2: "Single Substitution lookup 44 subtable" ordmasculine
Substitution2: "'sups' Superscript in Latin lookup 39 subtable" o.sups
Substitution2: "'subs' Subscript in Latin lookup 38 subtable" o.subs
Substitution2: "'sinf' Scientific Inferiors in Latin lookup 18 subtable" o.subs
AlternateSubs2: "'aalt' Access All Alternates in Latin lookup 1 subtable" ordmasculine o.sups o.subs
EndChar

StartChar: ohorn
Encoding: 417 417 796
Width: 1221
GlyphClass: 2
Flags: W
AnchorPoint: "Anchor-4" 1153 541 basechar 0
AnchorPoint: "Anchor-1" 612 1087 basechar 0
AnchorPoint: "Anchor-0" 612 0 basechar 0
LayerCount: 2
Fore
SplineSet
611 942 m 1,0,-1
 611 1106 l 1,1,2
 651 1106 651 1106 688 1103.5 c 128,-1,3
 725 1101 725 1101 761 1098 c 128,-1,4
 797 1095 797 1095 834.5 1092 c 128,-1,5
 872 1089 872 1089 914 1089 c 0,6,7
 959 1089 959 1089 959 1132 c 2,8,-1
 959 1331 l 1,9,-1
 1197 1331 l 1,10,-1
 1197 1147 l 2,11,12
 1197 1050 1197 1050 1135 996 c 128,-1,13
 1073 942 1073 942 962 942 c 0,14,15
 877 942 877 942 786.5 942 c 128,-1,16
 696 942 696 942 611 942 c 1,0,-1
612 -23 m 256,17,18
 448 -23 448 -23 326 48 c 128,-1,19
 204 119 204 119 137 245.5 c 128,-1,20
 70 372 70 372 70 541 c 0,21,22
 70 711 70 711 137 838 c 128,-1,23
 204 965 204 965 326 1035.5 c 128,-1,24
 448 1106 448 1106 612 1106 c 256,25,26
 776 1106 776 1106 898 1035.5 c 128,-1,27
 1020 965 1020 965 1086.5 838 c 128,-1,28
 1153 711 1153 711 1153 541 c 0,29,30
 1153 372 1153 372 1086.5 245.5 c 128,-1,31
 1020 119 1020 119 898 48 c 128,-1,32
 776 -23 776 -23 612 -23 c 256,17,18
612 216 m 256,33,34
 688 216 688 216 741.5 256.5 c 128,-1,35
 795 297 795 297 823.5 370.5 c 128,-1,36
 852 444 852 444 852 541 c 0,37,38
 852 640 852 640 823.5 713.5 c 128,-1,39
 795 787 795 787 741.5 828 c 128,-1,40
 688 869 688 869 612 869 c 256,41,42
 536 869 536 869 482.5 828.5 c 128,-1,43
 429 788 429 788 400.5 714.5 c 128,-1,44
 372 641 372 641 372 541 c 0,45,46
 372 443 372 443 400.5 370 c 128,-1,47
 429 297 429 297 482.5 256.5 c 128,-1,48
 536 216 536 216 612 216 c 256,33,34
EndSplineSet
EndChar

StartChar: uni1EE1
Encoding: 7905 7905 826
Width: 1221
GlyphClass: 2
Flags: W
AnchorPoint: "Anchor-4" 1153 541 basechar 0
AnchorPoint: "Anchor-1" 613 1497 basechar 0
AnchorPoint: "Anchor-0" 612 0 basechar 0
LayerCount: 2
Fore
SplineSet
612 -23 m 256,0,1
 448 -23 448 -23 326 48 c 128,-1,2
 204 119 204 119 137 245.5 c 128,-1,3
 70 372 70 372 70 541 c 0,4,5
 70 711 70 711 137 838 c 128,-1,6
 204 965 204 965 326 1035.5 c 128,-1,7
 448 1106 448 1106 612 1106 c 256,8,9
 776 1106 776 1106 898 1035.5 c 128,-1,10
 1020 965 1020 965 1086.5 838 c 128,-1,11
 1153 711 1153 711 1153 541 c 0,12,13
 1153 372 1153 372 1086.5 245.5 c 128,-1,14
 1020 119 1020 119 898 48 c 128,-1,15
 776 -23 776 -23 612 -23 c 256,0,1
612 216 m 256,16,17
 688 216 688 216 741.5 256.5 c 128,-1,18
 795 297 795 297 823.5 370.5 c 128,-1,19
 852 444 852 444 852 541 c 0,20,21
 852 640 852 640 823.5 713.5 c 128,-1,22
 795 787 795 787 741.5 828 c 128,-1,23
 688 869 688 869 612 869 c 256,24,25
 536 869 536 869 482.5 828.5 c 128,-1,26
 429 788 429 788 400.5 714.5 c 128,-1,27
 372 641 372 641 372 541 c 0,28,29
 372 443 372 443 400.5 370 c 128,-1,30
 429 297 429 297 482.5 256.5 c 128,-1,31
 536 216 536 216 612 216 c 256,16,17
611 942 m 1,32,-1
 611 1106 l 1,33,34
 651 1106 651 1106 688 1103.5 c 128,-1,35
 725 1101 725 1101 761 1098 c 128,-1,36
 797 1095 797 1095 834.5 1092 c 128,-1,37
 872 1089 872 1089 914 1089 c 0,38,39
 959 1089 959 1089 959 1132 c 2,40,-1
 959 1331 l 1,41,-1
 1197 1331 l 1,42,-1
 1197 1147 l 2,43,44
 1197 1050 1197 1050 1135 996 c 128,-1,45
 1073 942 1073 942 962 942 c 0,46,47
 877 942 877 942 786.5 942 c 128,-1,48
 696 942 696 942 611 942 c 1,32,-1
729 1273 m 0,49,50
 690 1273 690 1273 659 1286 c 128,-1,51
 628 1299 628 1299 602.5 1316 c 128,-1,52
 577 1333 577 1333 555 1346 c 128,-1,53
 533 1359 533 1359 515 1359 c 0,54,55
 489 1359 489 1359 476 1336 c 128,-1,56
 463 1313 463 1313 461 1278 c 1,57,-1
 329 1278 l 1,58,59
 332 1382 332 1382 376 1440.5 c 128,-1,60
 420 1499 420 1499 497 1499 c 0,61,62
 536 1499 536 1499 566 1485.5 c 128,-1,63
 596 1472 596 1472 621 1455.5 c 128,-1,64
 646 1439 646 1439 667 1426 c 128,-1,65
 688 1413 688 1413 710 1413 c 0,66,67
 738 1413 738 1413 750.5 1433 c 128,-1,68
 763 1453 763 1453 766 1494 c 1,69,-1
 896 1494 l 1,70,71
 894 1389 894 1389 848 1331 c 128,-1,72
 802 1273 802 1273 729 1273 c 0,49,50
EndSplineSet
Ligature2: "'ccmp' Glyph Composition/Decomposition in Latin lookup 6 subtable" ohorn tildecomb
EndChar

StartChar: obar
Encoding: 629 629 839
Width: 1222
GlyphClass: 2
Flags: W
AnchorPoint: "Anchor-4" 1153 541 basechar 0
AnchorPoint: "Anchor-1" 612 1087 basechar 0
AnchorPoint: "Anchor-0" 612 0 basechar 0
LayerCount: 2
Fore
SplineSet
976 620 m 1,0,-1
 976 467 l 1,1,-1
 248 467 l 1,2,-1
 248 620 l 1,3,-1
 976 620 l 1,0,-1
612 -23 m 256,4,5
 448 -23 448 -23 326 48 c 128,-1,6
 204 119 204 119 137 245.5 c 128,-1,7
 70 372 70 372 70 541 c 0,8,9
 70 711 70 711 137 838 c 128,-1,10
 204 965 204 965 326 1035.5 c 128,-1,11
 448 1106 448 1106 612 1106 c 256,12,13
 776 1106 776 1106 898 1035.5 c 128,-1,14
 1020 965 1020 965 1086.5 838 c 128,-1,15
 1153 711 1153 711 1153 541 c 0,16,17
 1153 372 1153 372 1086.5 245.5 c 128,-1,18
 1020 119 1020 119 898 48 c 128,-1,19
 776 -23 776 -23 612 -23 c 256,4,5
612 216 m 256,20,21
 688 216 688 216 741.5 256.5 c 128,-1,22
 795 297 795 297 823.5 370.5 c 128,-1,23
 852 444 852 444 852 541 c 0,24,25
 852 640 852 640 823.5 713.5 c 128,-1,26
 795 787 795 787 741.5 828 c 128,-1,27
 688 869 688 869 612 869 c 256,28,29
 536 869 536 869 482.5 828.5 c 128,-1,30
 429 788 429 788 400.5 714.5 c 128,-1,31
 372 641 372 641 372 541 c 0,32,33
 372 443 372 443 400.5 370 c 128,-1,34
 429 297 429 297 482.5 256.5 c 128,-1,35
 536 216 536 216 612 216 c 256,20,21
EndSplineSet
EndChar

StartChar: oe.sc
Encoding: 60954 60954 843
Width: 1637
Flags: W
LayerCount: 2
Fore
SplineSet
594 0 m 2,0,1
 429 0 429 0 311.5 70 c 128,-1,2
 194 140 194 140 132 263 c 128,-1,3
 70 386 70 386 70 540 c 2,4,-1
 70 551 l 2,5,6
 70 706 70 706 131.5 827 c 128,-1,7
 193 948 193 948 310 1017.5 c 128,-1,8
 427 1087 427 1087 591 1087 c 2,9,-1
 966 1087 l 1,10,-1
 966 861 l 1,11,-1
 606 861 l 2,12,13
 531 861 531 861 476.5 820 c 128,-1,14
 422 779 422 779 393 709 c 128,-1,15
 364 639 364 639 364 550 c 2,16,-1
 364 540 l 2,17,18
 364 452 364 452 394 381 c 128,-1,19
 424 310 424 310 479 269 c 128,-1,20
 534 228 534 228 610 228 c 2,21,-1
 966 228 l 1,22,-1
 966 0 l 1,23,-1
 594 0 l 2,0,1
959 0 m 1,24,-1
 959 228 l 1,25,-1
 1597 228 l 1,26,-1
 1597 0 l 1,27,-1
 959 0 l 1,24,-1
789 0 m 1,28,-1
 789 1087 l 1,29,-1
 1065 1087 l 1,30,-1
 1065 0 l 1,31,-1
 789 0 l 1,28,-1
959 444 m 1,32,-1
 959 658 l 1,33,-1
 1506 658 l 1,34,-1
 1506 444 l 1,35,-1
 959 444 l 1,32,-1
959 861 m 1,36,-1
 959 1087 l 1,37,-1
 1597 1087 l 1,38,-1
 1597 861 l 1,39,-1
 959 861 l 1,36,-1
EndSplineSet
EndChar

StartChar: p
Encoding: 112 112 845
Width: 1257
GlyphClass: 2
Flags: W
AnchorPoint: "Anchor-1" 671 1087 basechar 0
AnchorPoint: "Anchor-0" 266 -413 basechar 0
LayerCount: 2
Fore
SplineSet
116 -418 m 1,0,-1
 116 1087 l 1,1,-1
 409 1087 l 1,2,-1
 409 922 l 1,3,-1
 418 922 l 1,4,5
 445 972 445 972 487.5 1013.5 c 128,-1,6
 530 1055 530 1055 591.5 1080 c 128,-1,7
 653 1105 653 1105 734 1105 c 0,8,9
 863 1105 863 1105 966 1038 c 128,-1,10
 1069 971 1069 971 1128.5 845.5 c 128,-1,11
 1188 720 1188 720 1188 543 c 0,12,13
 1188 368 1188 368 1129.5 242 c 128,-1,14
 1071 116 1071 116 968.5 48 c 128,-1,15
 866 -20 866 -20 732 -20 c 0,16,17
 652 -20 652 -20 591.5 5.5 c 128,-1,18
 531 31 531 31 488.5 74 c 128,-1,19
 446 117 446 117 419 169 c 1,20,-1
 413 169 l 1,21,-1
 413 -418 l 1,22,-1
 116 -418 l 1,0,-1
648 220 m 256,23,24
 723 220 723 220 776 260 c 128,-1,25
 829 300 829 300 857.5 372.5 c 128,-1,26
 886 445 886 445 886 544 c 0,27,28
 886 642 886 642 857.5 714.5 c 128,-1,29
 829 787 829 787 776 826.5 c 128,-1,30
 723 866 723 866 648 866 c 0,31,32
 572 866 572 866 517 826.5 c 128,-1,33
 462 787 462 787 432.5 714.5 c 128,-1,34
 403 642 403 642 403 544 c 0,35,36
 403 447 403 447 432.5 374 c 128,-1,37
 462 301 462 301 517.5 260.5 c 128,-1,38
 573 220 573 220 648 220 c 256,23,24
EndSplineSet
Substitution2: "'sups' Superscript in Latin lookup 39 subtable" p.sups
Substitution2: "'subs' Subscript in Latin lookup 38 subtable" p.subs
Substitution2: "'sinf' Scientific Inferiors in Latin lookup 18 subtable" p.subs
AlternateSubs2: "'aalt' Access All Alternates in Latin lookup 1 subtable" p.sups p.subs
EndChar

StartChar: uni048F
Encoding: 1167 1167 846
Width: 1229
GlyphClass: 2
Flags: W
AnchorPoint: "Anchor-1" 677 1087 basechar 0
AnchorPoint: "Anchor-0" 272 -413 basechar 0
LayerCount: 2
Fore
SplineSet
743 445 m 1,0,-1
 1135 -19 l 1,1,-1
 1026 -108 l 1,2,-1
 635 357 l 1,3,-1
 743 445 l 1,0,-1
123 -418 m 1,4,-1
 123 1087 l 1,5,-1
 415 1087 l 1,6,-1
 415 922 l 1,7,-1
 425 922 l 1,8,9
 452 972 452 972 494 1013.5 c 128,-1,10
 536 1055 536 1055 597.5 1080 c 128,-1,11
 659 1105 659 1105 740 1105 c 0,12,13
 870 1105 870 1105 973 1038 c 128,-1,14
 1076 971 1076 971 1135 845.5 c 128,-1,15
 1194 720 1194 720 1194 543 c 0,16,17
 1194 368 1194 368 1136 242 c 128,-1,18
 1078 116 1078 116 975 48 c 128,-1,19
 872 -20 872 -20 739 -20 c 0,20,21
 659 -20 659 -20 598 5.5 c 128,-1,22
 537 31 537 31 494.5 74 c 128,-1,23
 452 117 452 117 426 169 c 1,24,-1
 420 169 l 1,25,-1
 420 -418 l 1,26,-1
 123 -418 l 1,4,-1
654 220 m 0,27,28
 730 220 730 220 782.5 260 c 128,-1,29
 835 300 835 300 863.5 372.5 c 128,-1,30
 892 445 892 445 892 544 c 0,31,32
 892 642 892 642 864 714.5 c 128,-1,33
 836 787 836 787 782.5 826.5 c 128,-1,34
 729 866 729 866 654 866 c 256,35,36
 579 866 579 866 524 826.5 c 128,-1,37
 469 787 469 787 439 714.5 c 128,-1,38
 409 642 409 642 409 544 c 0,39,40
 409 447 409 447 439 374 c 128,-1,41
 469 301 469 301 524 260.5 c 128,-1,42
 579 220 579 220 654 220 c 0,27,28
EndSplineSet
EndChar

StartChar: uni01A5
Encoding: 421 421 847
Width: 1257
GlyphClass: 2
Flags: W
AnchorPoint: "Anchor-1" 671 1087 basechar 0
AnchorPoint: "Anchor-0" 266 -413 basechar 0
LayerCount: 2
Fore
SplineSet
116 852 m 1,0,-1
 116 1180 l 2,1,2
 116 1338 116 1338 206.5 1417.5 c 128,-1,3
 297 1497 297 1497 475 1497 c 0,4,5
 524 1497 524 1497 564.5 1495 c 128,-1,6
 605 1493 605 1493 634 1489 c 1,7,-1
 634 1262 l 1,8,9
 614 1263 614 1263 585.5 1264 c 128,-1,10
 557 1265 557 1265 530 1265 c 0,11,12
 468 1265 468 1265 440.5 1243.5 c 128,-1,13
 413 1222 413 1222 413 1174 c 2,14,-1
 413 852 l 1,15,-1
 116 852 l 1,0,-1
116 -418 m 1,16,-1
 116 1087 l 1,17,-1
 409 1087 l 1,18,-1
 409 922 l 1,19,-1
 418 922 l 1,20,21
 445 972 445 972 487.5 1013.5 c 128,-1,22
 530 1055 530 1055 591.5 1080 c 128,-1,23
 653 1105 653 1105 734 1105 c 0,24,25
 863 1105 863 1105 966 1038 c 128,-1,26
 1069 971 1069 971 1128.5 845.5 c 128,-1,27
 1188 720 1188 720 1188 543 c 0,28,29
 1188 368 1188 368 1129.5 242 c 128,-1,30
 1071 116 1071 116 968.5 48 c 128,-1,31
 866 -20 866 -20 732 -20 c 0,32,33
 652 -20 652 -20 591.5 5.5 c 128,-1,34
 531 31 531 31 488.5 74 c 128,-1,35
 446 117 446 117 419 169 c 1,36,-1
 413 169 l 1,37,-1
 413 -418 l 1,38,-1
 116 -418 l 1,16,-1
648 220 m 256,39,40
 723 220 723 220 776 260 c 128,-1,41
 829 300 829 300 857.5 372.5 c 128,-1,42
 886 445 886 445 886 544 c 0,43,44
 886 642 886 642 857.5 714.5 c 128,-1,45
 829 787 829 787 776 826.5 c 128,-1,46
 723 866 723 866 648 866 c 0,47,48
 572 866 572 866 517 826.5 c 128,-1,49
 462 787 462 787 432.5 714.5 c 128,-1,50
 403 642 403 642 403 544 c 0,51,52
 403 447 403 447 432.5 374 c 128,-1,53
 462 301 462 301 517.5 260.5 c 128,-1,54
 573 220 573 220 648 220 c 256,39,40
EndSplineSet
EndChar

StartChar: q
Encoding: 113 113 851
Width: 1257
GlyphClass: 2
Flags: W
AnchorPoint: "Anchor-1" 628 1087 basechar 0
AnchorPoint: "Anchor-0" 993 -413 basechar 0
LayerCount: 2
Fore
SplineSet
1141 -418 m 1,0,-1
 844 -418 l 1,1,-1
 844 169 l 1,2,-1
 838 169 l 1,3,4
 813 117 813 117 770.5 74 c 128,-1,5
 728 31 728 31 667.5 5.5 c 128,-1,6
 607 -20 607 -20 526 -20 c 0,7,8
 393 -20 393 -20 290 48 c 128,-1,9
 187 116 187 116 128.5 242 c 128,-1,10
 70 368 70 368 70 543 c 0,11,12
 70 720 70 720 130 845.5 c 128,-1,13
 190 971 190 971 292.5 1038 c 128,-1,14
 395 1105 395 1105 524 1105 c 0,15,16
 606 1105 606 1105 667 1080 c 128,-1,17
 728 1055 728 1055 771 1013.5 c 128,-1,18
 814 972 814 972 840 922 c 1,19,-1
 849 922 l 1,20,-1
 849 1087 l 1,21,-1
 1141 1087 l 1,22,-1
 1141 -418 l 1,0,-1
610 220 m 0,23,24
 686 220 686 220 741 260.5 c 128,-1,25
 796 301 796 301 825 374 c 128,-1,26
 854 447 854 447 854 544 c 0,27,28
 854 642 854 642 825 714.5 c 128,-1,29
 796 787 796 787 741 826.5 c 128,-1,30
 686 866 686 866 610 866 c 0,31,32
 536 866 536 866 482.5 826.5 c 128,-1,33
 429 787 429 787 401 714.5 c 128,-1,34
 373 642 373 642 373 544 c 0,35,36
 373 445 373 445 401 372.5 c 128,-1,37
 429 300 429 300 482.5 260 c 128,-1,38
 536 220 536 220 610 220 c 0,23,24
EndSplineSet
Substitution2: "'sups' Superscript in Latin lookup 39 subtable" q.sups
Substitution2: "'subs' Subscript in Latin lookup 38 subtable" q.subs
Substitution2: "'sinf' Scientific Inferiors in Latin lookup 18 subtable" q.subs
AlternateSubs2: "'aalt' Access All Alternates in Latin lookup 1 subtable" q.sups q.subs
EndChar

StartChar: uni02A0
Encoding: 672 672 852
Width: 1257
GlyphClass: 2
Flags: W
AnchorPoint: "Anchor-1" 628 1087 basechar 0
AnchorPoint: "Anchor-0" 993 -413 basechar 0
LayerCount: 2
Fore
SplineSet
842 852 m 1,0,-1
 842 1180 l 2,1,2
 842 1338 842 1338 933 1417.5 c 128,-1,3
 1024 1497 1024 1497 1201 1497 c 0,4,5
 1250 1497 1250 1497 1290.5 1495 c 128,-1,6
 1331 1493 1331 1493 1360 1489 c 1,7,-1
 1360 1262 l 1,8,9
 1341 1263 1341 1263 1312 1264 c 128,-1,10
 1283 1265 1283 1265 1256 1265 c 0,11,12
 1195 1265 1195 1265 1167 1243.5 c 128,-1,13
 1139 1222 1139 1222 1139 1174 c 2,14,-1
 1139 852 l 1,15,-1
 842 852 l 1,0,-1
1141 -418 m 1,16,-1
 844 -418 l 1,17,-1
 844 169 l 1,18,-1
 838 169 l 1,19,20
 813 117 813 117 770.5 74 c 128,-1,21
 728 31 728 31 667.5 5.5 c 128,-1,22
 607 -20 607 -20 526 -20 c 0,23,24
 393 -20 393 -20 290 48 c 128,-1,25
 187 116 187 116 128.5 242 c 128,-1,26
 70 368 70 368 70 543 c 0,27,28
 70 720 70 720 130 845.5 c 128,-1,29
 190 971 190 971 292.5 1038 c 128,-1,30
 395 1105 395 1105 524 1105 c 0,31,32
 606 1105 606 1105 667 1080 c 128,-1,33
 728 1055 728 1055 771 1013.5 c 128,-1,34
 814 972 814 972 840 922 c 1,35,-1
 849 922 l 1,36,-1
 849 1087 l 1,37,-1
 1141 1087 l 1,38,-1
 1141 -418 l 1,16,-1
610 220 m 0,39,40
 686 220 686 220 741 260.5 c 128,-1,41
 796 301 796 301 825 374 c 128,-1,42
 854 447 854 447 854 544 c 0,43,44
 854 642 854 642 825 714.5 c 128,-1,45
 796 787 796 787 741 826.5 c 128,-1,46
 686 866 686 866 610 866 c 0,47,48
 536 866 536 866 482.5 826.5 c 128,-1,49
 429 787 429 787 401 714.5 c 128,-1,50
 373 642 373 642 373 544 c 0,51,52
 373 445 373 445 401 372.5 c 128,-1,53
 429 300 429 300 482.5 260 c 128,-1,54
 536 220 536 220 610 220 c 0,39,40
EndSplineSet
EndChar

StartChar: qrthook
Encoding: 587 587 853
Width: 1256
GlyphClass: 2
Flags: W
AnchorPoint: "Anchor-4" 1140 0 basechar 0
AnchorPoint: "Anchor-1" 619 1087 basechar 0
AnchorPoint: "Anchor-0" 622 0 basechar 0
LayerCount: 2
Fore
SplineSet
1198 -426 m 0,0,1
 1020 -426 1020 -426 933 -345.5 c 128,-1,2
 846 -265 846 -265 846 -108 c 2,3,-1
 846 198 l 1,4,-1
 1140 198 l 1,5,-1
 1140 -102 l 2,6,7
 1140 -151 1140 -151 1166 -172.5 c 128,-1,8
 1192 -194 1192 -194 1253 -194 c 0,9,10
 1280 -194 1280 -194 1308.5 -193 c 128,-1,11
 1337 -192 1337 -192 1357 -191 c 1,12,-1
 1357 -417 l 1,13,14
 1328 -422 1328 -422 1287.5 -424 c 128,-1,15
 1247 -426 1247 -426 1198 -426 c 0,0,1
525 -20 m 0,16,17
 393 -20 393 -20 290.5 48 c 128,-1,18
 188 116 188 116 129 242 c 128,-1,19
 70 368 70 368 70 543 c 0,20,21
 70 720 70 720 130 845.5 c 128,-1,22
 190 971 190 971 293 1038 c 128,-1,23
 396 1105 396 1105 525 1105 c 0,24,25
 607 1105 607 1105 667.5 1080 c 128,-1,26
 728 1055 728 1055 771 1013.5 c 128,-1,27
 814 972 814 972 840 922 c 1,28,-1
 848 922 l 1,29,-1
 848 1087 l 1,30,-1
 1140 1087 l 1,31,-1
 1140 0 l 1,32,-1
 848 0 l 1,33,-1
 848 169 l 1,34,-1
 840 169 l 1,35,36
 815 117 815 117 772 74 c 128,-1,37
 729 31 729 31 667.5 5.5 c 128,-1,38
 606 -20 606 -20 525 -20 c 0,16,17
611 220 m 256,39,40
 686 220 686 220 741 260.5 c 128,-1,41
 796 301 796 301 825.5 374 c 128,-1,42
 855 447 855 447 855 544 c 0,43,44
 855 642 855 642 825.5 714.5 c 128,-1,45
 796 787 796 787 741.5 826.5 c 128,-1,46
 687 866 687 866 611 866 c 0,47,48
 536 866 536 866 482.5 826.5 c 128,-1,49
 429 787 429 787 401 715 c 128,-1,50
 373 643 373 643 373 544 c 256,51,52
 373 445 373 445 401 372.5 c 128,-1,53
 429 300 429 300 482.5 260 c 128,-1,54
 536 220 536 220 611 220 c 256,39,40
EndSplineSet
EndChar

StartChar: r
Encoding: 114 114 854
Width: 800
GlyphClass: 2
Flags: W
AnchorPoint: "Anchor-1" 439 1087 basechar 0
AnchorPoint: "Anchor-0" 266 0 basechar 0
LayerCount: 2
Fore
SplineSet
116 0 m 1,0,-1
 116 1087 l 1,1,-1
 403 1087 l 1,2,-1
 403 900 l 1,3,-1
 411 900 l 1,4,5
 441 1000 441 1000 508.5 1049 c 128,-1,6
 576 1098 576 1098 674 1098 c 0,7,8
 699 1098 699 1098 723.5 1096.5 c 128,-1,9
 748 1095 748 1095 767 1093 c 1,10,-1
 767 832 l 1,11,12
 749 837 749 837 711.5 840 c 128,-1,13
 674 843 674 843 639 843 c 0,14,15
 574 843 574 843 523 814.5 c 128,-1,16
 472 786 472 786 442.5 732.5 c 128,-1,17
 413 679 413 679 413 604 c 2,18,-1
 413 0 l 1,19,-1
 116 0 l 1,0,-1
EndSplineSet
Substitution2: "'smcp' Lowercase to Small Capitals in Latin lookup 69 subtable" r.sc
Substitution2: "'c2sc' Capitals to Small Capitals in Latin lookup 68 subtable" r.sc
Substitution2: "'sups' Superscript in Latin lookup 39 subtable" r.sups
Substitution2: "'subs' Subscript in Latin lookup 38 subtable" r.subs
Substitution2: "'sinf' Scientific Inferiors in Latin lookup 18 subtable" r.subs
AlternateSubs2: "'aalt' Access All Alternates in Latin lookup 1 subtable" r.sc r.sups r.subs
EndChar

StartChar: rrthook
Encoding: 57437 57437 855
Width: 800
GlyphClass: 2
Flags: W
AnchorPoint: "Anchor-1" 439 1087 basechar 0
AnchorPoint: "Anchor-0" 266 0 basechar 0
LayerCount: 2
Fore
SplineSet
471 -426 m 0,0,1
 293 -426 293 -426 204.5 -345.5 c 128,-1,2
 116 -265 116 -265 116 -108 c 2,3,-1
 116 0 l 1,4,-1
 413 0 l 1,5,-1
 413 -102 l 2,6,7
 413 -151 413 -151 439 -172.5 c 128,-1,8
 465 -194 465 -194 526 -194 c 0,9,10
 552 -194 552 -194 581 -193 c 128,-1,11
 610 -192 610 -192 631 -191 c 1,12,-1
 631 -417 l 1,13,14
 601 -422 601 -422 560.5 -424 c 128,-1,15
 520 -426 520 -426 471 -426 c 0,0,1
116 0 m 1,16,-1
 116 1087 l 1,17,-1
 403 1087 l 1,18,-1
 403 900 l 1,19,-1
 411 900 l 1,20,21
 441 1000 441 1000 508.5 1049 c 128,-1,22
 576 1098 576 1098 674 1098 c 0,23,24
 699 1098 699 1098 723.5 1096.5 c 128,-1,25
 748 1095 748 1095 767 1093 c 1,26,-1
 767 832 l 1,27,28
 749 837 749 837 711.5 840 c 128,-1,29
 674 843 674 843 639 843 c 0,30,31
 574 843 574 843 523 814.5 c 128,-1,32
 472 786 472 786 442.5 732.5 c 128,-1,33
 413 679 413 679 413 604 c 2,34,-1
 413 0 l 1,35,-1
 116 0 l 1,16,-1
EndSplineSet
EndChar

StartChar: rturn
Encoding: 633 633 857
Width: 800
GlyphClass: 2
Flags: W
AnchorPoint: "Anchor-1" 536 1087 basechar 0
AnchorPoint: "Anchor-0" 406 0 basechar 0
LayerCount: 2
Fore
SplineSet
684 1087 m 1,0,-1
 684 0 l 1,1,-1
 396 0 l 1,2,-1
 396 187 l 1,3,-1
 389 187 l 1,4,5
 359 89 359 89 291.5 39 c 128,-1,6
 224 -11 224 -11 125 -11 c 0,7,8
 101 -11 101 -11 77 -9 c 128,-1,9
 53 -7 53 -7 33 -4 c 1,10,-1
 33 255 l 1,11,12
 51 251 51 251 88.5 247.5 c 128,-1,13
 126 244 126 244 161 244 c 0,14,15
 226 244 226 244 277 273 c 128,-1,16
 328 302 328 302 357.5 355.5 c 128,-1,17
 387 409 387 409 387 483 c 2,18,-1
 387 1087 l 1,19,-1
 684 1087 l 1,0,-1
EndSplineSet
EndChar

StartChar: rturnrthook
Encoding: 635 635 858
Width: 800
GlyphClass: 2
Flags: W
AnchorPoint: "Anchor-1" 536 1087 basechar 0
AnchorPoint: "Anchor-0" 406 0 basechar 0
LayerCount: 2
Fore
SplineSet
718 -426 m 0,0,1
 556 -426 556 -426 474.5 -349 c 128,-1,2
 393 -272 393 -272 393 -125 c 2,3,-1
 393 0 l 1,4,-1
 681 0 l 1,5,-1
 681 -111 l 2,6,7
 681 -156 681 -156 705.5 -176 c 128,-1,8
 730 -196 730 -196 788 -196 c 0,9,10
 814 -196 814 -196 846 -195.5 c 128,-1,11
 878 -195 878 -195 897 -193 c 1,12,-1
 897 -417 l 1,13,14
 878 -420 878 -420 848.5 -422 c 128,-1,15
 819 -424 819 -424 785 -425 c 128,-1,16
 751 -426 751 -426 718 -426 c 0,0,1
684 1087 m 1,17,-1
 684 0 l 1,18,-1
 396 0 l 1,19,-1
 396 187 l 1,20,-1
 389 187 l 1,21,22
 359 89 359 89 291.5 39 c 128,-1,23
 224 -11 224 -11 125 -11 c 0,24,25
 101 -11 101 -11 77 -9 c 128,-1,26
 53 -7 53 -7 33 -4 c 1,27,-1
 33 255 l 1,28,29
 51 251 51 251 88.5 247.5 c 128,-1,30
 126 244 126 244 161 244 c 0,31,32
 226 244 226 244 277 273 c 128,-1,33
 328 302 328 302 357.5 355.5 c 128,-1,34
 387 409 387 409 387 483 c 2,35,-1
 387 1087 l 1,36,-1
 684 1087 l 1,17,-1
EndSplineSet
EndChar

StartChar: rfishhookrev
Encoding: 639 639 859
Width: 763
Flags: W
LayerCount: 2
Fore
SplineSet
647 0 m 1,0,-1
 350 0 l 1,1,-1
 350 641 l 2,2,3
 350 716 350 716 325 760.5 c 128,-1,4
 300 805 300 805 255 825.5 c 128,-1,5
 210 846 210 846 152 846 c 0,6,7
 117 846 117 846 86 845 c 128,-1,8
 55 844 55 844 33 841 c 1,9,-1
 33 1090 l 1,10,11
 46 1092 46 1092 67.5 1093 c 128,-1,12
 89 1094 89 1094 117 1095 c 128,-1,13
 145 1096 145 1096 173 1096 c 0,14,15
 314 1096 314 1096 420.5 1050.5 c 128,-1,16
 527 1005 527 1005 587 909 c 128,-1,17
 647 813 647 813 647 664 c 2,18,-1
 647 0 l 1,0,-1
EndSplineSet
EndChar

StartChar: uni027E
Encoding: 638 638 860
Width: 763
Flags: W
LayerCount: 2
Fore
SplineSet
116 0 m 1,0,-1
 116 664 l 2,1,2
 116 813 116 813 176 909 c 128,-1,3
 236 1005 236 1005 343.5 1050.5 c 128,-1,4
 451 1096 451 1096 591 1096 c 0,5,6
 619 1096 619 1096 646.5 1095 c 128,-1,7
 674 1094 674 1094 696 1093 c 128,-1,8
 718 1092 718 1092 730 1090 c 1,9,-1
 730 841 l 1,10,11
 709 844 709 844 678 845 c 128,-1,12
 647 846 647 846 611 846 c 0,13,14
 554 846 554 846 509.5 825.5 c 128,-1,15
 465 805 465 805 439 760.5 c 128,-1,16
 413 716 413 716 413 641 c 2,17,-1
 413 0 l 1,18,-1
 116 0 l 1,0,-1
EndSplineSet
EndChar

StartChar: rdescend
Encoding: 57438 57438 861
Width: 800
GlyphClass: 2
Flags: W
AnchorPoint: "Anchor-1" 439 1087 basechar 0
AnchorPoint: "Anchor-0" 266 0 basechar 0
LayerCount: 2
Fore
SplineSet
116 -418 m 1,0,-1
 116 0 l 1,1,-1
 411 0 l 1,2,-1
 411 -418 l 1,3,-1
 116 -418 l 1,0,-1
116 0 m 1,4,-1
 116 1087 l 1,5,-1
 403 1087 l 1,6,-1
 403 900 l 1,7,-1
 411 900 l 1,8,9
 441 1000 441 1000 508.5 1049 c 128,-1,10
 576 1098 576 1098 674 1098 c 0,11,12
 699 1098 699 1098 723.5 1096.5 c 128,-1,13
 748 1095 748 1095 767 1093 c 1,14,-1
 767 832 l 1,15,16
 749 837 749 837 711.5 840 c 128,-1,17
 674 843 674 843 639 843 c 0,18,19
 574 843 574 843 523 814.5 c 128,-1,20
 472 786 472 786 442.5 732.5 c 128,-1,21
 413 679 413 679 413 604 c 2,22,-1
 413 0 l 1,23,-1
 116 0 l 1,4,-1
EndSplineSet
EndChar

StartChar: r.sc
Encoding: 60955 60955 871
Width: 1161
Flags: W
LayerCount: 2
Fore
SplineSet
116 0 m 1,0,-1
 116 1087 l 1,1,-1
 637 1087 l 2,2,3
 853 1087 853 1087 971.5 987.5 c 128,-1,4
 1090 888 1090 888 1090 717 c 0,5,6
 1090 552 1090 552 969 457 c 128,-1,7
 848 362 848 362 628 362 c 2,8,-1
 280 362 l 1,9,-1
 280 574 l 1,10,-1
 594 574 l 2,11,12
 699 574 699 574 748 608 c 128,-1,13
 797 642 797 642 797 714 c 256,14,15
 797 786 797 786 749.5 820.5 c 128,-1,16
 702 855 702 855 598 855 c 2,17,-1
 399 855 l 1,18,-1
 399 0 l 1,19,-1
 116 0 l 1,0,-1
813 0 m 1,20,-1
 506 488 l 1,21,-1
 822 488 l 1,22,-1
 1138 0 l 1,23,-1
 813 0 l 1,20,-1
EndSplineSet
EndChar

StartChar: rinv.sc
Encoding: 60956 60956 872
Width: 1161
Flags: W
LayerCount: 2
Fore
SplineSet
116 0 m 1,0,-1
 116 1087 l 1,1,-1
 399 1087 l 1,2,-1
 399 233 l 1,3,-1
 598 233 l 2,4,5
 702 233 702 233 749.5 268 c 128,-1,6
 797 303 797 303 797 375 c 0,7,8
 797 445 797 445 748 479.5 c 128,-1,9
 699 514 699 514 594 514 c 2,10,-1
 280 514 l 1,11,-1
 280 725 l 1,12,-1
 628 725 l 2,13,14
 847 725 847 725 968.5 631 c 128,-1,15
 1090 537 1090 537 1090 372 c 0,16,17
 1090 200 1090 200 971.5 100 c 128,-1,18
 853 0 853 0 637 0 c 2,19,-1
 116 0 l 1,0,-1
506 599 m 1,20,-1
 813 1087 l 1,21,-1
 1138 1087 l 1,22,-1
 822 599 l 1,23,-1
 506 599 l 1,20,-1
EndSplineSet
EndChar

StartChar: s
Encoding: 115 115 873
Width: 1107
GlyphClass: 2
Flags: W
AnchorPoint: "Anchor-3" 559 0 basechar 0
AnchorPoint: "Anchor-1" 556 1087 basechar 0
AnchorPoint: "Anchor-0" 557 0 basechar 0
LayerCount: 2
Fore
SplineSet
558 -23 m 0,0,1
 421 -23 421 -23 316 17.5 c 128,-1,2
 211 58 211 58 146 134.5 c 128,-1,3
 81 211 81 211 66 319 c 1,4,-1
 352 343 l 1,5,6
 366 270 366 270 418.5 231 c 128,-1,7
 471 192 471 192 559 192 c 0,8,9
 644 192 644 192 692.5 223.5 c 128,-1,10
 741 255 741 255 741 305 c 0,11,12
 741 348 741 348 705 375 c 128,-1,13
 669 402 669 402 599 416 c 2,14,-1
 410 454 l 2,15,16
 253 485 253 485 173 563.5 c 128,-1,17
 93 642 93 642 93 766 c 0,18,19
 93 870 93 870 150 946 c 128,-1,20
 207 1022 207 1022 310 1063.5 c 128,-1,21
 413 1105 413 1105 552 1105 c 0,22,23
 686 1105 686 1105 785.5 1065 c 128,-1,24
 885 1025 885 1025 943.5 952 c 128,-1,25
 1002 879 1002 879 1014 778 c 1,26,-1
 746 755 l 1,27,28
 736 815 736 815 687 854 c 128,-1,29
 638 893 638 893 558 893 c 0,30,31
 484 893 484 893 436.5 861.5 c 128,-1,32
 389 830 389 830 389 781 c 0,33,34
 389 739 389 739 422.5 711.5 c 128,-1,35
 456 684 456 684 525 669 c 2,36,-1
 727 630 l 2,37,38
 888 598 888 598 965.5 525 c 128,-1,39
 1043 452 1043 452 1043 334 c 0,40,41
 1043 227 1043 227 981 146.5 c 128,-1,42
 919 66 919 66 809.5 21.5 c 128,-1,43
 700 -23 700 -23 558 -23 c 0,0,1
EndSplineSet
Substitution2: "'sups' Superscript in Latin lookup 39 subtable" s.sups
Substitution2: "'subs' Subscript in Latin lookup 38 subtable" s.subs
Substitution2: "'sinf' Scientific Inferiors in Latin lookup 18 subtable" s.subs
AlternateSubs2: "'aalt' Access All Alternates in Latin lookup 1 subtable" s.sups s.subs
EndChar

StartChar: srthook
Encoding: 642 642 874
Width: 1107
GlyphClass: 2
Flags: W
AnchorPoint: "Anchor-3" 559 0 basechar 0
AnchorPoint: "Anchor-1" 556 1087 basechar 0
AnchorPoint: "Anchor-0" 557 0 basechar 0
LayerCount: 2
Fore
SplineSet
396 -426 m 0,0,1
 235 -426 235 -426 150.5 -349.5 c 128,-1,2
 66 -273 66 -273 66 -125 c 2,3,-1
 66 319 l 1,4,-1
 334 325 l 1,5,-1
 334 -111 l 2,6,7
 334 -156 334 -156 362.5 -176.5 c 128,-1,8
 391 -197 391 -197 453 -197 c 0,9,10
 470 -197 470 -197 495 -196 c 128,-1,11
 520 -195 520 -195 543.5 -194.5 c 128,-1,12
 567 -194 567 -194 580 -193 c 1,13,-1
 580 -418 l 1,14,15
 561 -421 561 -421 530.5 -422.5 c 128,-1,16
 500 -424 500 -424 465 -425 c 128,-1,17
 430 -426 430 -426 396 -426 c 0,0,1
558 -23 m 0,18,19
 421 -23 421 -23 316 17.5 c 128,-1,20
 211 58 211 58 146 134.5 c 128,-1,21
 81 211 81 211 66 319 c 1,22,-1
 352 343 l 1,23,24
 366 270 366 270 418.5 231 c 128,-1,25
 471 192 471 192 559 192 c 0,26,27
 644 192 644 192 692.5 223.5 c 128,-1,28
 741 255 741 255 741 305 c 0,29,30
 741 348 741 348 705 375 c 128,-1,31
 669 402 669 402 599 416 c 2,32,-1
 410 454 l 2,33,34
 253 485 253 485 173 563.5 c 128,-1,35
 93 642 93 642 93 766 c 0,36,37
 93 870 93 870 150 946 c 128,-1,38
 207 1022 207 1022 310 1063.5 c 128,-1,39
 413 1105 413 1105 552 1105 c 0,40,41
 686 1105 686 1105 785.5 1065 c 128,-1,42
 885 1025 885 1025 943.5 952 c 128,-1,43
 1002 879 1002 879 1014 778 c 1,44,-1
 746 755 l 1,45,46
 736 815 736 815 687 854 c 128,-1,47
 638 893 638 893 558 893 c 0,48,49
 484 893 484 893 436.5 861.5 c 128,-1,50
 389 830 389 830 389 781 c 0,51,52
 389 739 389 739 422.5 711.5 c 128,-1,53
 456 684 456 684 525 669 c 2,54,-1
 727 630 l 2,55,56
 888 598 888 598 965.5 525 c 128,-1,57
 1043 452 1043 452 1043 334 c 0,58,59
 1043 227 1043 227 981 146.5 c 128,-1,60
 919 66 919 66 809.5 21.5 c 128,-1,61
 700 -23 700 -23 558 -23 c 0,18,19
EndSplineSet
EndChar

StartChar: uni023F
Encoding: 575 575 875
Width: 1107
GlyphClass: 2
Flags: W
AnchorPoint: "Anchor-3" 559 0 basechar 0
AnchorPoint: "Anchor-1" 556 1087 basechar 0
AnchorPoint: "Anchor-0" 557 0 basechar 0
LayerCount: 2
Fore
SplineSet
299 289 m 1,0,1
 385 125 385 125 442.5 25 c 128,-1,2
 500 -75 500 -75 538.5 -126.5 c 128,-1,3
 577 -178 577 -178 608 -196 c 128,-1,4
 639 -214 639 -214 671 -214 c 0,5,6
 731 -214 731 -214 776.5 -188 c 128,-1,7
 822 -162 822 -162 855 -135 c 1,8,-1
 944 -292 l 1,9,10
 896 -334 896 -334 825 -376 c 128,-1,11
 754 -418 754 -418 663 -418 c 0,12,13
 575 -418 575 -418 510.5 -379 c 128,-1,14
 446 -340 446 -340 397 -277.5 c 128,-1,15
 348 -215 348 -215 306 -144 c 2,16,-1
 112 190 l 1,17,-1
 299 289 l 1,0,1
558 -23 m 0,18,19
 421 -23 421 -23 316 17.5 c 128,-1,20
 211 58 211 58 146 134.5 c 128,-1,21
 81 211 81 211 66 319 c 1,22,-1
 352 343 l 1,23,24
 366 270 366 270 418.5 231 c 128,-1,25
 471 192 471 192 559 192 c 0,26,27
 644 192 644 192 692.5 223.5 c 128,-1,28
 741 255 741 255 741 305 c 0,29,30
 741 348 741 348 705 375 c 128,-1,31
 669 402 669 402 599 416 c 2,32,-1
 410 454 l 2,33,34
 253 485 253 485 173 563.5 c 128,-1,35
 93 642 93 642 93 766 c 0,36,37
 93 870 93 870 150 946 c 128,-1,38
 207 1022 207 1022 310 1063.5 c 128,-1,39
 413 1105 413 1105 552 1105 c 0,40,41
 686 1105 686 1105 785.5 1065 c 128,-1,42
 885 1025 885 1025 943.5 952 c 128,-1,43
 1002 879 1002 879 1014 778 c 1,44,-1
 746 755 l 1,45,46
 736 815 736 815 687 854 c 128,-1,47
 638 893 638 893 558 893 c 0,48,49
 484 893 484 893 436.5 861.5 c 128,-1,50
 389 830 389 830 389 781 c 0,51,52
 389 739 389 739 422.5 711.5 c 128,-1,53
 456 684 456 684 525 669 c 2,54,-1
 727 630 l 2,55,56
 888 598 888 598 965.5 525 c 128,-1,57
 1043 452 1043 452 1043 334 c 0,58,59
 1043 227 1043 227 981 146.5 c 128,-1,60
 919 66 919 66 809.5 21.5 c 128,-1,61
 700 -23 700 -23 558 -23 c 0,18,19
EndSplineSet
EndChar

